<svg width="40" height="40" viewBox="0 0 40 40" fill="none" xmlns="http://www.w3.org/2000/svg">
<mask id="mask0_40002646_7858" style="mask-type:alpha" maskUnits="userSpaceOnUse" x="0" y="0" width="40" height="40">
<rect width="40" height="40" fill="#D9D9D9"/>
</mask>
<g mask="url(#mask0_40002646_7858)">
<path d="M19.5007 29.9997C16.834 29.8608 14.584 28.833 12.7507 26.9163C10.9173 24.9997 10.0007 22.6941 10.0007 19.9997C10.0007 17.2219 10.9729 14.8608 12.9173 12.9163C14.8618 10.9719 17.2229 9.99967 20.0007 9.99967C22.6951 9.99967 25.0007 10.9163 26.9173 12.7497C28.834 14.583 29.8618 16.833 30.0007 19.4997L26.5007 18.458C26.1395 16.958 25.3618 15.7288 24.1673 14.7705C22.9729 13.8122 21.584 13.333 20.0007 13.333C18.1673 13.333 16.5979 13.9858 15.2923 15.2913C13.9868 16.5969 13.334 18.1663 13.334 19.9997C13.334 21.583 13.8132 22.9719 14.7715 24.1663C15.7298 25.3608 16.959 26.1386 18.459 26.4997L19.5007 29.9997ZM21.5007 36.583C21.2507 36.6386 21.0007 36.6663 20.7507 36.6663H20.0007C17.6951 36.6663 15.5284 36.2288 13.5007 35.3538C11.4729 34.4788 9.70898 33.2913 8.20898 31.7913C6.70898 30.2913 5.52148 28.5275 4.64648 26.4997C3.77148 24.4719 3.33398 22.3052 3.33398 19.9997C3.33398 17.6941 3.77148 15.5275 4.64648 13.4997C5.52148 11.4719 6.70898 9.70801 8.20898 8.20801C9.70898 6.70801 11.4729 5.52051 13.5007 4.64551C15.5284 3.77051 17.6951 3.33301 20.0007 3.33301C22.3062 3.33301 24.4729 3.77051 26.5007 4.64551C28.5284 5.52051 30.2923 6.70801 31.7923 8.20801C33.2923 9.70801 34.4798 11.4719 35.3548 13.4997C36.2298 15.5275 36.6673 17.6941 36.6673 19.9997V20.7497C36.6673 20.9997 36.6395 21.2497 36.584 21.4997L33.334 20.4997V19.9997C33.334 16.2775 32.0423 13.1247 29.459 10.5413C26.8757 7.95801 23.7229 6.66634 20.0007 6.66634C16.2784 6.66634 13.1257 7.95801 10.5423 10.5413C7.95898 13.1247 6.66732 16.2775 6.66732 19.9997C6.66732 23.7219 7.95898 26.8747 10.5423 29.458C13.1257 32.0413 16.2784 33.333 20.0007 33.333H20.5007L21.5007 36.583ZM34.209 37.4997L27.084 30.3747L25.0007 36.6663L20.0007 19.9997L36.6673 24.9997L30.3757 27.083L37.5007 34.208L34.209 37.4997Z" fill="#CE181B"/>
</g>
</svg>
