<svg width="15" height="14" viewBox="0 0 15 14" fill="none" xmlns="http://www.w3.org/2000/svg">
<mask id="mask0_40002175_6656" style="mask-type:alpha" maskUnits="userSpaceOnUse" x="0" y="0" width="15" height="14">
<rect x="0.894531" y="0.103516" width="13.7949" height="13.7949" fill="#D9D9D9"/>
</mask>
<g mask="url(#mask0_40002175_6656)">
<path d="M7.79242 12.4613C7.11446 12.4613 6.47927 12.3331 5.88686 12.0766C5.29435 11.8202 4.77776 11.4716 4.33709 11.031C3.89642 10.5903 3.54786 10.0737 3.29141 9.48118C3.03496 8.88877 2.90674 8.25358 2.90674 7.57562C2.90674 6.89766 3.03496 6.26248 3.29141 5.67006C3.54786 5.07756 3.89642 4.56097 4.33709 4.1203C4.77776 3.67963 5.29435 3.33107 5.88686 3.07462C6.47927 2.81817 7.11446 2.68994 7.79242 2.68994C8.47038 2.68994 9.10557 2.81817 9.69798 3.07462C10.2905 3.33107 10.8071 3.67963 11.2478 4.1203C11.6884 4.56097 12.037 5.07756 12.2934 5.67006C12.5499 6.26248 12.6781 6.89766 12.6781 7.57562C12.6781 8.25358 12.5499 8.88877 12.2934 9.48118C12.037 10.0737 11.6884 10.5903 11.2478 11.031C10.8071 11.4716 10.2905 11.8202 9.69798 12.0766C9.10557 12.3331 8.47038 12.4613 7.79242 12.4613ZM9.50126 9.89029L10.1071 9.28446L8.22351 7.40103V4.70169H7.36133V7.75022L9.50126 9.89029ZM4.20216 1.76367L4.80799 2.36935L2.58615 4.59119L1.98047 3.98537L4.20216 1.76367ZM11.3827 1.76367L13.6044 3.98537L12.9987 4.59119L10.7769 2.36935L11.3827 1.76367ZM7.79242 11.5991C8.90961 11.5991 9.8595 11.2078 10.6421 10.4253C11.4246 9.6427 11.8159 8.69282 11.8159 7.57562C11.8159 6.45843 11.4246 5.50855 10.6421 4.72598C9.8595 3.94341 8.90961 3.55212 7.79242 3.55212C6.67523 3.55212 5.72535 3.94341 4.94277 4.72598C4.1602 5.50855 3.76892 6.45843 3.76892 7.57562C3.76892 8.69282 4.1602 9.6427 4.94277 10.4253C5.72535 11.2078 6.67523 11.5991 7.79242 11.5991Z" fill="#738BAC"/>
</g>
</svg>
