<?xml version="1.0" standalone="no"?>
<svg xmlns="http://www.w3.org/2000/svg" version="1.1" xmlns:xlink="http://www.w3.org/1999/xlink" width="512" height="512" x="0" y="0" viewBox="0 0 73 73" style="enable-background:new 0 0 512 512" xml:space="preserve" class=""><g><path d="M67.55 57.074 41.581 14.9c-3.411-5.54-7.643-6.143-11.905-.622-8.293 10.744-15.179 22.49-22.04 34.2-1.182 2.017-2.376 4.061-3.022 6.308s-.695 4.757.366 6.84c1.67 3.279 5.506 3.86 9.17 3.807 52.766-.614 50.06-.402 51.802-1.02 2.815-.997 4.013-3.413 1.598-7.34zM65.451 63c-1.494.529.996.324-51.318.933-2.725.045-6.035-.216-7.3-2.433-1.186-2.076-.04-4.774 1.238-7.138C18.286 35.448 26.51 24.94 30.484 18.689c1.331-2.094 2.708-4.258 4.26-5.893.44-.465.958-.774 1.594-.708 1.378.143 2.952 1.954 3.966 3.6l25.969 42.173c1.43 2.322 1.77 4.222-.822 5.14zM47.463 7.606a.75.75 0 0 0-.958.456L44.642 13.3a.75.75 0 0 0 1.413.501l1.863-5.236a.75.75 0 0 0-.455-.958zM51.886 11.816a20.17 20.17 0 0 1-4.32 4.278.75.75 0 0 0 .884 1.213 21.687 21.687 0 0 0 4.64-4.596.75.75 0 1 0-1.204-.895zM49.628 19.608a.75.75 0 0 0 .75.73c.571-.064 1.973.007 4.08-.826a.75.75 0 1 0-.55-1.394c-1.135.447-2.328.69-3.55.72a.751.751 0 0 0-.73.77z" fill="#e35959" opacity="1" data-original="#000000"/><path d="M37.106 23.664h-.796a1.93 1.93 0 0 0-1.931 1.931V46.52a1.93 1.93 0 0 0 1.931 1.931c1.036 0 1.89-.817 1.934-1.852.29-6.973.497-13.952.787-20.925a1.926 1.926 0 0 0-1.925-2.009zM35.469 51.484l-.262.087c-1.194.47-1.868 1.963-1.432 3.17.436 1.205 1.91 1.921 3.128 1.518 1.218-.403 1.975-1.856 1.605-3.085s-1.801-2.025-3.04-1.69z" fill="#e35959" opacity="1" data-original="#000000"/></g></svg>