<svg width="24" height="24" viewBox="0 0 24 24" fill="none" xmlns="http://www.w3.org/2000/svg">
<mask id="mask0_5657_4572" style="mask-type:alpha" maskUnits="userSpaceOnUse" x="0" y="0" width="24" height="24">
<rect width="24" height="24" fill="#D9D9D9"/>
</mask>
<g mask="url(#mask0_5657_4572)">
<path d="M18 20.6443L16.9462 19.6L18.7712 17.75H14.25V16.25H18.7712L16.9462 14.4L18 13.3558L21.6443 17L18 20.6443ZM3.25 20.3943V6.05775C3.25 5.55908 3.42658 5.13308 3.77975 4.77975C4.13308 4.42658 4.55908 4.25 5.05775 4.25H16.9423C17.4409 4.25 17.8669 4.42658 18.2203 4.77975C18.5734 5.13308 18.75 5.55908 18.75 6.05775V11.0462C18.6218 11.0257 18.4968 11.0129 18.375 11.0078C18.2532 11.0026 18.1282 11 18 11C17.8718 11 17.7468 11.0026 17.625 11.0078C17.5032 11.0129 17.3782 11.0257 17.25 11.0462V6.05775C17.25 5.96792 17.2212 5.89417 17.1635 5.8365C17.1058 5.77883 17.0321 5.75 16.9423 5.75H5.05775C4.96792 5.75 4.89417 5.77883 4.8365 5.8365C4.77883 5.89417 4.75 5.96792 4.75 6.05775V16.25H12.0463C12.0258 16.3782 12.0129 16.5032 12.0078 16.625C12.0026 16.7468 12 16.8718 12 17C12 17.1282 12.0026 17.2532 12.0078 17.375C12.0129 17.4968 12.0258 17.6218 12.0463 17.75H5.89425L3.25 20.3943ZM7.05775 9.75H14.9423V8.25H7.05775V9.75ZM7.05775 13.75H11.9423V12.25H7.05775V13.75Z" fill="#848386"/>
</g>
</svg>
