<svg width="16" height="17" viewBox="0 0 16 17" fill="none" xmlns="http://www.w3.org/2000/svg">
<mask id="mask0_40002175_6710" style="mask-type:alpha" maskUnits="userSpaceOnUse" x="0" y="0" width="16" height="17">
<rect y="0.5" width="16" height="16" fill="#D9D9D9"/>
</mask>
<g mask="url(#mask0_40002175_6710)">
<path d="M6.19902 11.1021L8.00152 10.0086L9.80402 11.1021L9.32585 9.05207L10.9245 7.6739L8.82069 7.49707L8.00152 5.56373L7.18235 7.49707L5.07852 7.6739L6.67719 9.05207L6.19902 11.1021ZM8.00152 15.5714L5.90919 13.4996H3.00152V10.5919L0.929688 8.49957L3.00152 6.40723V3.49957H5.90919L8.00152 1.42773L10.0939 3.49957H13.0015V6.40723L15.0734 8.49957L13.0015 10.5919V13.4996H10.0939L8.00152 15.5714ZM8.00152 14.1662L9.66819 12.4996H12.0015V10.1662L13.6682 8.49957L12.0015 6.8329V4.49957H9.66819L8.00152 2.8329L6.33485 4.49957H4.00152V6.8329L2.33485 8.49957L4.00152 10.1662V12.4996H6.33485L8.00152 14.1662Z" fill="#FF6025"/>
</g>
</svg>
