<svg width="36" height="36" viewBox="0 0 36 36" fill="none" xmlns="http://www.w3.org/2000/svg">
<path d="M32.1012 27.9473V28.8777H3.8999V27.9492C3.8999 27.7104 3.99466 27.4813 4.16339 27.3122C4.33212 27.1431 4.56103 27.0478 4.7999 27.0473H5.70559C5.7022 27.0171 5.7003 26.9868 5.6999 26.9564V26.117C5.7004 25.8785 5.79539 25.6499 5.96406 25.4812C6.13273 25.3125 6.36136 25.2175 6.5999 25.217H7.95085V13.5739H5.6999C5.45803 13.5744 5.22338 13.4914 5.03563 13.3389C4.84789 13.1864 4.71857 12.9738 4.66955 12.7369C4.62053 12.5001 4.65482 12.2535 4.76661 12.0391C4.87839 11.8246 5.06083 11.6553 5.28306 11.5598L17.5837 6.22987C17.7153 6.17293 17.8572 6.14355 18.0005 6.14355C18.1439 6.14355 18.2858 6.17293 18.4174 6.22987L30.718 11.5579C30.9402 11.6534 31.1227 11.8227 31.2345 12.0372C31.3463 12.2517 31.3805 12.4982 31.3315 12.735C31.2825 12.9719 31.1532 13.1845 30.9654 13.337C30.7777 13.4896 30.543 13.5725 30.3012 13.572H28.0502V25.2151H29.4012C29.6397 25.2156 29.8683 25.3106 30.037 25.4793C30.2057 25.648 30.3007 25.8766 30.3012 26.1151V26.9545C30.3009 26.9849 30.299 27.0153 30.2955 27.0454H31.2012C31.4397 27.0459 31.6683 27.1409 31.837 27.3096C32.0057 27.4783 32.1007 27.7069 32.1012 27.9454V27.9473ZM10.0502 25.2189H13.9496V15.6581H10.0502V25.2189ZM10.7645 11.4745H25.2384L18.0005 8.33682L10.7645 11.4745ZM16.0508 15.6619V25.217H19.9502V15.66L16.0508 15.6619ZM25.9509 25.217V15.66H22.0496V25.217H25.9509Z" fill="black"/>
</svg>
