<svg width="14" height="14" viewBox="0 0 14 14" fill="none" xmlns="http://www.w3.org/2000/svg">
<mask id="mask0_40002175_6650" style="mask-type:alpha" maskUnits="userSpaceOnUse" x="0" y="0" width="14" height="14">
<rect y="0.103516" width="13.7949" height="13.7949" fill="#D9D9D9"/>
</mask>
<g mask="url(#mask0_40002175_6650)">
<path d="M3.05079 12.4618C2.76043 12.4618 2.51466 12.3612 2.31348 12.16C2.11231 11.9589 2.01172 11.7131 2.01172 11.4227V3.7295C2.01172 3.43913 2.11231 3.19336 2.31348 2.99219C2.51466 2.79101 2.76043 2.69043 3.05079 2.69043H3.84658V1.47461H4.73089V2.69043H9.08604V1.47461H9.94822V2.69043H10.744C11.0344 2.69043 11.2801 2.79101 11.4813 2.99219C11.6825 3.19336 11.7831 3.43913 11.7831 3.7295V11.4227C11.7831 11.7131 11.6825 11.9589 11.4813 12.16C11.2801 12.3612 11.0344 12.4618 10.744 12.4618H3.05079ZM3.05079 11.5996H10.744C10.7883 11.5996 10.8288 11.5812 10.8656 11.5443C10.9025 11.5075 10.9209 11.467 10.9209 11.4227V6.02864H2.8739V11.4227C2.8739 11.467 2.89234 11.5075 2.92922 11.5443C2.96601 11.5812 3.00653 11.5996 3.05079 11.5996ZM2.8739 5.16646H10.9209V3.7295C10.9209 3.68524 10.9025 3.64471 10.8656 3.60793C10.8288 3.57105 10.7883 3.55261 10.744 3.55261H3.05079C3.00653 3.55261 2.96601 3.57105 2.92922 3.60793C2.89234 3.64471 2.8739 3.68524 2.8739 3.7295V5.16646Z" fill="#738BAC"/>
</g>
</svg>
