<svg width="27" height="26" viewBox="0 0 27 26" fill="none" xmlns="http://www.w3.org/2000/svg">
<g clip-path="url(#clip0_40000854_4411)">
<path d="M25.4447 20.5833C25.4447 21.158 25.2164 21.7091 24.8101 22.1154C24.4037 22.5217 23.8526 22.75 23.278 22.75H3.77799C3.20336 22.75 2.65226 22.5217 2.24593 22.1154C1.8396 21.7091 1.61133 21.158 1.61133 20.5833V8.66667C1.61133 8.09203 1.8396 7.54093 2.24593 7.1346C2.65226 6.72827 3.20336 6.5 3.77799 6.5H8.11133L10.278 3.25H16.778L18.9447 6.5H23.278C23.8526 6.5 24.4037 6.72827 24.8101 7.1346C25.2164 7.54093 25.4447 8.09203 25.4447 8.66667V20.5833Z" stroke="#626262" stroke-width="2.16667" stroke-linecap="round" stroke-linejoin="round"/>
<path d="M13.528 18.4167C15.9212 18.4167 17.8613 16.4766 17.8613 14.0833C17.8613 11.6901 15.9212 9.75 13.528 9.75C11.1348 9.75 9.19466 11.6901 9.19466 14.0833C9.19466 16.4766 11.1348 18.4167 13.528 18.4167Z" stroke="#626262" stroke-width="2.16667" stroke-linecap="round" stroke-linejoin="round"/>
</g>
<defs>
<clipPath id="clip0_40000854_4411">
<rect width="26" height="26" fill="white" transform="translate(0.527344)"/>
</clipPath>
</defs>
</svg>
