<svg width="20" height="20" viewBox="0 0 20 20" fill="none" xmlns="http://www.w3.org/2000/svg">
<mask id="mask0_1046_45246" style="mask-type:alpha" maskUnits="userSpaceOnUse" x="0" y="0" width="20" height="20">
<rect width="20" height="20" fill="#D9D9D9"/>
</mask>
<g mask="url(#mask0_1046_45246)">
<path d="M15.0003 10.8335V9.16683H18.3337V10.8335H15.0003ZM16.0003 16.6668L13.3337 14.6668L14.3337 13.3335L17.0003 15.3335L16.0003 16.6668ZM14.3337 6.66683L13.3337 5.3335L16.0003 3.3335L17.0003 4.66683L14.3337 6.66683ZM4.16699 15.8335V12.5002H3.33366C2.87533 12.5002 2.48296 12.337 2.15658 12.0106C1.83019 11.6842 1.66699 11.2918 1.66699 10.8335V9.16683C1.66699 8.7085 1.83019 8.31614 2.15658 7.98975C2.48296 7.66336 2.87533 7.50016 3.33366 7.50016H6.66699L10.8337 5.00016V15.0002L6.66699 12.5002H5.83366V15.8335H4.16699ZM11.667 12.7918V7.2085C12.042 7.54183 12.3441 7.94808 12.5732 8.42725C12.8024 8.90641 12.917 9.43072 12.917 10.0002C12.917 10.5696 12.8024 11.0939 12.5732 11.5731C12.3441 12.0522 12.042 12.4585 11.667 12.7918Z" fill="#4B5768"/>
</g>
</svg>
