<svg width="37" height="36" viewBox="0 0 37 36" fill="none" xmlns="http://www.w3.org/2000/svg">
<g clip-path="url(#clip0_8700_45993)">
<path d="M3.66406 5.34375H5.91406C6.49498 5.34375 6.96875 5.81653 6.96875 6.39844L10.9653 22.4931C9.85627 22.9853 9.07812 24.0931 9.07812 25.3828C9.07812 27.1275 10.4975 28.5469 12.2422 28.5469H13.4911C13.373 28.8784 13.2969 29.23 13.2969 29.6016C13.2969 31.3463 14.7162 32.7656 16.4609 32.7656C18.2057 32.7656 19.625 31.3463 19.625 29.6016C19.625 29.23 19.5489 28.8784 19.4307 28.5469H26.1474C26.0292 28.8784 25.9531 29.23 25.9531 29.6016C25.9531 31.3463 27.3725 32.7656 29.1172 32.7656C30.8619 32.7656 32.2812 31.3463 32.2812 29.6016C32.2812 27.8568 30.8619 26.4375 29.1172 26.4375H12.2422C11.6613 26.4375 11.1875 25.9647 11.1875 25.3828C11.1875 24.8009 11.6613 24.3281 12.2422 24.3281H31.6777L36.5 7.45312H9.43862L8.98334 5.63527L8.97512 5.6373C8.63213 4.26115 7.39505 3.23438 5.91406 3.23438H3.66406C1.91933 3.23438 0.5 4.6537 0.5 6.39844H2.60938C2.60938 5.81653 3.08314 5.34375 3.66406 5.34375ZM17.5156 29.6016C17.5156 30.1835 17.0419 30.6562 16.4609 30.6562C15.88 30.6562 15.4062 30.1835 15.4062 29.6016C15.4062 29.0197 15.88 28.5469 16.4609 28.5469C17.0419 28.5469 17.5156 29.0197 17.5156 29.6016ZM30.1719 29.6016C30.1719 30.1835 29.6981 30.6562 29.1172 30.6562C28.5363 30.6562 28.0625 30.1835 28.0625 29.6016C28.0625 29.0197 28.5363 28.5469 29.1172 28.5469C29.6981 28.5469 30.1719 29.0197 30.1719 29.6016ZM18.5703 15.4539L20.6797 17.5633L25.9531 12.2899L27.4445 13.7812L20.6797 20.5461L17.0789 16.9453L18.5703 15.4539Z" fill="#4CA528"/>
</g>
<defs>
<clipPath id="clip0_8700_45993">
<rect width="36" height="36" fill="white" transform="translate(0.5)"/>
</clipPath>
</defs>
</svg>
