<?xml version="1.0" standalone="no"?>
<svg xmlns="http://www.w3.org/2000/svg" version="1.1" xmlns:xlink="http://www.w3.org/1999/xlink" width="512" height="512" x="0" y="0" viewBox="0 0 24 24" style="enable-background:new 0 0 512 512" xml:space="preserve" class=""><g><path d="M20.484 9.386a.746.746 0 0 1-.53-.22l-2.121-2.122a.75.75 0 1 1 1.061-1.06l2.121 2.121a.751.751 0 0 1-.531 1.281z" fill="#0033e6" opacity="1" data-original="#000000" class=""/><path d="M17.656 10.093a.75.75 0 0 1-.53-1.28l1.768-1.768a.75.75 0 0 1 1.06 1.06l-1.767 1.768a.746.746 0 0 1-.531.22zM7 15.25H3a.75.75 0 0 1 0-1.5h4a.75.75 0 0 1 0 1.5zM8 12.25H2a.75.75 0 0 1 0-1.5h6a.75.75 0 0 1 0 1.5zM8 18.25H2a.75.75 0 0 1 0-1.5h6a.75.75 0 0 1 0 1.5z" fill="#0033e6" opacity="1" data-original="#000000" class=""/><rect width="7.5" height="3.75" x="8.25" y="1.25" rx="1.75" fill="#0033e6" opacity="1" data-original="#000000" class=""/><path d="M12 7.75c-.552 0-1-.336-1-.75V5c0-.414.448-.75 1-.75s1 .336 1 .75v2c0 .414-.448.75-1 .75zM12 8.75a5.75 5.75 0 1 0 5.75 5.75A5.709 5.709 0 0 0 12 8.75zm2.491 4.581-1.257 1.091c0 .027.016.05.016.078A1.25 1.25 0 1 1 12 13.25a1.136 1.136 0 0 1 .24.049l1.269-1.1a.75.75 0 1 1 .982 1.133z" fill="#0033e6" opacity="1" data-original="#000000" class=""/><path d="M12 22.75a8.206 8.206 0 0 1-4.715-1.479.75.75 0 0 1 .858-1.231 6.75 6.75 0 1 0 0-11.08.75.75 0 0 1-.858-1.231A8.25 8.25 0 1 1 12 22.75z" fill="#0033e6" opacity="1" data-original="#000000" class=""/></g></svg>