<svg width="11" height="11" viewBox="0 0 11 11" fill="none" xmlns="http://www.w3.org/2000/svg">
<g clip-path="url(#clip0_40000532_65901)">
<path d="M5.48455 0.5C4.63243 0.500476 3.79458 0.718968 3.0506 1.13472C2.30662 1.55047 1.68121 2.14967 1.23379 2.87541C0.786363 3.60114 0.531781 4.4293 0.494229 5.28121C0.456677 6.13312 0.637402 6.9805 1.01923 7.74284L0.495527 9.83757C0.475744 9.91818 0.47744 10.0026 0.500446 10.0823C0.523454 10.1621 0.566966 10.2344 0.626637 10.292C0.686309 10.3497 0.760053 10.3907 0.840503 10.4109C0.920952 10.4311 1.00529 10.4298 1.0851 10.4072L3.03029 9.85872C3.69592 10.2326 4.4383 10.4488 5.20043 10.4908C5.96256 10.5328 6.72418 10.3995 7.42681 10.1011C8.12943 9.80265 8.75439 9.34708 9.25368 8.76932C9.75297 8.19157 10.1133 7.507 10.3071 6.76817C10.5008 6.02934 10.5228 5.2559 10.3714 4.50724C10.2199 3.75858 9.89906 3.05461 9.43341 2.44937C8.96776 1.84414 8.36971 1.35373 7.68518 1.01581C7.00064 0.677885 6.24784 0.501433 5.48455 0.5ZM2.62288 2.63623C3.16083 2.09774 3.83955 1.72188 4.5812 1.55174C5.32285 1.38161 6.09739 1.42409 6.81602 1.67431C7.53465 1.92454 8.16825 2.37238 8.64418 2.96648C9.12011 3.56058 9.41909 4.27688 9.50684 5.03324C9.59459 5.7896 9.46755 6.55539 9.1403 7.24281C8.81304 7.93022 8.29882 8.51143 7.65659 8.91976C7.01437 9.3281 6.27015 9.54703 5.50928 9.55147C4.74841 9.5559 4.00169 9.34565 3.35476 8.94482C3.29834 8.90724 3.23452 8.8822 3.1676 8.87139C3.10069 8.86058 3.03224 8.86425 2.96686 8.88216L1.61694 9.27034L1.98288 7.8055C2.01508 7.68682 2.00022 7.56029 1.94141 7.45231C1.77664 7.15545 1.65038 6.83877 1.56571 6.50993C1.3918 5.82765 1.39779 5.11188 1.58309 4.43261C1.76839 3.75334 2.12666 3.13381 2.62288 2.6346V2.63623Z" fill="#383838"/>
</g>
<defs>
<clipPath id="clip0_40000532_65901">
<rect width="10" height="10" fill="white" transform="matrix(-1 0 0 1 10.4805 0.5)"/>
</clipPath>
</defs>
</svg>
