<svg width="32" height="32" viewBox="0 0 32 32" fill="none" xmlns="http://www.w3.org/2000/svg">
<circle cx="16" cy="16" r="16" fill="#DAE9FB"/>
<mask id="mask0_7633_154429" style="mask-type:alpha" maskUnits="userSpaceOnUse" x="6" y="6" width="20" height="20">
<rect x="6" y="6" width="20" height="20" fill="#D9D9D9"/>
</mask>
<g mask="url(#mask0_7633_154429)">
<path d="M13.5481 20.583C13.1272 20.583 12.7708 20.4372 12.4792 20.1455C12.1875 19.8538 12.0417 19.4975 12.0417 19.0766V9.58947C12.0417 9.16849 12.1875 8.81217 12.4792 8.52051C12.7708 8.22884 13.1272 8.08301 13.5481 8.08301H20.5352C20.9562 8.08301 21.3125 8.22884 21.6042 8.52051C21.8958 8.81217 22.0417 9.16849 22.0417 9.58947V19.0766C22.0417 19.4975 21.8958 19.8538 21.6042 20.1455C21.3125 20.4372 20.9562 20.583 20.5352 20.583H13.5481ZM13.5481 19.333H20.5352C20.5994 19.333 20.6581 19.3063 20.7115 19.2528C20.7649 19.1995 20.7917 19.1407 20.7917 19.0766V9.58947C20.7917 9.5253 20.7649 9.46655 20.7115 9.41322C20.6581 9.35974 20.5994 9.33301 20.5352 9.33301H13.5481C13.484 9.33301 13.4252 9.35974 13.3719 9.41322C13.3184 9.46655 13.2917 9.5253 13.2917 9.58947V19.0766C13.2917 19.1407 13.3184 19.1995 13.3719 19.2528C13.4252 19.3063 13.484 19.333 13.5481 19.333ZM10.6315 23.4997C10.2105 23.4997 9.85417 23.3538 9.5625 23.0622C9.27083 22.7705 9.125 22.4142 9.125 21.9932V11.2561H10.375V21.9932C10.375 22.0574 10.4017 22.1161 10.4552 22.1695C10.5085 22.2229 10.5673 22.2497 10.6315 22.2497H18.8685V23.4997H10.6315Z" fill="#406AFF"/>
</g>
</svg>
