<svg width="30" height="30" viewBox="0 0 30 30" fill="none" xmlns="http://www.w3.org/2000/svg">
<g id="discount_10683242 1" clipPath="url(#clip0_1454_30360)">
<path id="Vector" d="M15 30C23.2843 30 30 23.2843 30 15C30 6.71573 23.2843 0 15 0C6.71573 0 0 6.71573 0 15C0 23.2843 6.71573 30 15 30Z" fill="#415EB3"/>
<g id="Group">
<path id="Vector_2" d="M13.9034 10.4297L13.0069 13.0371C12.9777 13.1133 12.9659 13.1895 12.9659 13.2715V23.1035L7.65148 20.0332C7.52843 19.9629 7.48742 19.8105 7.55773 19.6875L11.8761 12.2051C11.8937 12.1758 11.9054 12.1582 11.9288 12.1406L13.9034 10.4297Z" fill="#FFFFFE"/>
<path id="Vector_3" d="M19.956 20.6777C19.8681 20.6309 19.7802 20.5898 19.6923 20.5664C19.5985 20.543 19.5107 20.5312 19.4169 20.5312C19.0419 20.5312 18.6728 20.7246 18.4735 21.0762C18.1747 21.5977 18.3505 22.2656 18.872 22.5645C19.1239 22.7109 19.4169 22.7461 19.6982 22.6758C19.9794 22.5996 20.2138 22.418 20.3603 22.166C20.5067 21.9141 20.5419 21.6211 20.4716 21.3398C20.3896 21.0586 20.2079 20.8242 19.956 20.6777Z" fill="#FFFFFE"/>
<path id="Vector_4" d="M17.3709 16.041C17.6697 15.5195 17.4939 14.8516 16.9724 14.5527C16.8846 14.5059 16.7967 14.4648 16.7088 14.4414C16.615 14.418 16.5271 14.4062 16.4334 14.4062C16.0584 14.4062 15.6892 14.5996 15.49 14.9512C15.3435 15.2031 15.3084 15.4961 15.3787 15.7773C15.4549 16.0586 15.6365 16.293 15.8885 16.4395C16.4041 16.7383 17.0721 16.5625 17.3709 16.041Z" fill="#FFFFFE"/>
<path id="Vector_5" d="M22.457 13.1641L21.2148 9.56641C21.168 9.43164 21.0508 9.34375 20.9043 9.34375H14.9395C14.793 9.34375 14.6758 9.42578 14.6289 9.56641L14.5293 9.86523C14.5293 9.87109 14.5293 9.87109 14.5234 9.87695L13.4219 13.0703H17.0195C17.1309 13.0703 17.2187 13.1582 17.2187 13.2695C17.2187 13.3809 17.1309 13.4687 17.0195 13.4687H13.375V23.3125C13.375 23.3418 13.3809 23.3652 13.3867 23.3945C13.4219 23.5352 13.5508 23.6406 13.7031 23.6406H22.1523C22.334 23.6406 22.4805 23.4941 22.4805 23.3125V13.2695C22.4746 13.2285 22.4688 13.1992 22.457 13.1641ZM16.9727 11.2012C16.9727 10.7441 17.2949 10.3633 17.7227 10.2695V11.2012C17.7227 11.3125 17.8105 11.4004 17.9219 11.4004C18.0332 11.4004 18.1211 11.3125 18.1211 11.2012V10.2695C18.5488 10.3633 18.8711 10.7441 18.8711 11.2012C18.8711 11.7285 18.4434 12.1562 17.916 12.1562C17.4004 12.1562 16.9727 11.7285 16.9727 11.2012ZM14.9922 15.877C14.8867 15.4902 14.9395 15.0918 15.1387 14.7461C15.5488 14.0371 16.4629 13.791 17.1719 14.2012C17.6465 14.4766 17.916 14.9805 17.916 15.4961C17.916 15.748 17.8516 16.0059 17.7168 16.2402C17.4414 16.7207 16.9375 16.9844 16.4219 16.9844C16.1699 16.9844 15.9121 16.9199 15.6777 16.7852C15.3438 16.5801 15.0977 16.2578 14.9922 15.877ZM15.7422 22.5332C15.707 22.5332 15.6719 22.5215 15.6426 22.5039C15.5488 22.4512 15.5137 22.3281 15.5723 22.2285L19.9375 14.6699C19.9902 14.5762 20.1133 14.541 20.2129 14.5996C20.3066 14.6523 20.3418 14.7754 20.2832 14.875L15.918 22.4336C15.877 22.498 15.8125 22.5332 15.7422 22.5332ZM20.7051 22.3633C20.5059 22.709 20.1836 22.9551 19.8027 23.0547C19.6738 23.0898 19.5449 23.1074 19.416 23.1074C19.1582 23.1074 18.9004 23.0371 18.6719 22.9082C18.3262 22.709 18.0801 22.3867 17.9805 22.0059C17.875 21.6191 17.9277 21.2207 18.127 20.875C18.5371 20.166 19.4512 19.9199 20.1602 20.3301C20.5059 20.5293 20.752 20.8516 20.8516 21.2324C20.957 21.6133 20.9043 22.0176 20.7051 22.3633Z" fill="#FFFFFE"/>
<path id="Vector_6" d="M18.1172 6.56667V8.95143H17.7188V6.56667C17.7188 6.45534 17.8066 6.36745 17.918 6.36745C18.0293 6.36159 18.1172 6.45534 18.1172 6.56667Z" fill="#FFFFFE"/>
</g>
</g>
<defs>
<clipPath id="clip0_1454_30360">
<rect width="30" height="30" fill="white"/>
</clipPath>
</defs>
</svg>
