<svg width="16" height="16" viewBox="0 0 16 16" fill="none" xmlns="http://www.w3.org/2000/svg">
<mask id="mask0_40002175_6670" style="mask-type:alpha" maskUnits="userSpaceOnUse" x="0" y="0" width="16" height="16">
<rect width="16" height="16" fill="#D9D9D9"/>
</mask>
<g mask="url(#mask0_40002175_6670)">
<path d="M8.0013 14.3327C6.87486 14.3327 5.95436 14.171 5.2398 13.8477C4.52525 13.5244 4.16797 13.107 4.16797 12.5955C4.16797 12.3587 4.25708 12.1361 4.4353 11.9275C4.61352 11.719 4.85991 11.5399 5.17447 11.3903L5.96164 12.1045C5.81886 12.1617 5.6688 12.2331 5.51147 12.3185C5.35425 12.4041 5.24658 12.4942 5.18847 12.589C5.29869 12.7882 5.62669 12.962 6.17247 13.1102C6.71814 13.2585 7.32669 13.3327 7.99814 13.3327C8.66947 13.3327 9.2808 13.2585 9.83214 13.1102C10.3834 12.962 10.7141 12.7882 10.8245 12.589C10.768 12.4873 10.6541 12.3938 10.4828 12.3083C10.3114 12.2229 10.1487 12.1515 9.99497 12.0942L10.7718 11.3698C11.1128 11.5263 11.3752 11.7088 11.559 11.9173C11.7427 12.1259 11.8346 12.351 11.8346 12.5927C11.8346 13.105 11.4774 13.5231 10.7628 13.8468C10.0482 14.1707 9.12775 14.3327 8.0013 14.3327ZM8.01797 11.0827C9.12219 10.2459 9.95102 9.41707 10.5045 8.59618C11.0579 7.77518 11.3346 6.96002 11.3346 6.15068C11.3346 5.00035 10.9746 4.13202 10.2545 3.54568C9.53436 2.95924 8.78436 2.66602 8.00447 2.66602C7.22458 2.66602 6.47352 2.9594 5.7513 3.54618C5.02908 4.13285 4.66797 5.00163 4.66797 6.15252C4.66797 6.90852 4.94125 7.69252 5.4878 8.50452C6.03436 9.31652 6.87775 10.1759 8.01797 11.0827ZM8.0013 12.3327C6.54652 11.245 5.46064 10.1887 4.74364 9.16368C4.02652 8.13879 3.66797 7.13479 3.66797 6.15168C3.66797 5.40913 3.79897 4.75879 4.06097 4.20068C4.32297 3.64257 4.66119 3.17524 5.07564 2.79868C5.49019 2.42224 5.9553 2.13935 6.47097 1.95002C6.98652 1.76068 7.49697 1.66602 8.0023 1.66602C8.50764 1.66602 9.01775 1.76068 9.53264 1.95002C10.0476 2.13935 10.5124 2.42224 10.927 2.79868C11.3414 3.17524 11.6796 3.64274 11.9416 4.20118C12.2036 4.75963 12.3346 5.40946 12.3346 6.15068C12.3346 7.13391 11.9761 8.13807 11.259 9.16318C10.542 10.1883 9.45608 11.2448 8.0013 12.3327ZM8.00447 7.26218C8.3348 7.26218 8.61769 7.14552 8.85314 6.91218C9.08869 6.67885 9.20647 6.39485 9.20647 6.06018C9.20647 5.72563 9.08847 5.44063 8.85247 5.20518C8.61647 4.96963 8.33275 4.85185 8.0013 4.85185C7.67308 4.85185 7.39019 4.96985 7.15264 5.20585C6.91497 5.44196 6.79614 5.72568 6.79614 6.05702C6.79614 6.39379 6.91497 6.67885 7.15264 6.91218C7.39019 7.14552 7.67414 7.26218 8.00447 7.26218Z" fill="white"/>
</g>
</svg>
