<?xml version="1.0" standalone="no"?>
<svg xmlns="http://www.w3.org/2000/svg" version="1.1" xmlns:xlink="http://www.w3.org/1999/xlink" width="512" height="512" x="0" y="0" viewBox="0 0 512 512" style="enable-background:new 0 0 512 512" xml:space="preserve" class=""><g><path d="m485.618 454.748-30.112 30.112c-17.704 17.705-46.303 17.629-63.932 0l-86.63-86.554-35.862 35.862c-25.346 25.346-68.547 12.634-76.113-22.319l-46-211.922c-6.961-31.928 21.411-60.679 53.718-53.719l211.922 46.001c34.955 7.642 47.665 50.843 22.32 76.114l-35.938 35.938 86.629 86.554c17.703 17.705 17.627 46.305-.002 63.933zM105.794 105.061a7.564 7.564 0 0 0 0-10.699l-18.18-18.183a7.564 7.564 0 0 0-10.699 0 7.564 7.564 0 0 0 0 10.699l18.18 18.183a7.564 7.564 0 0 0 10.699 0zM18.741 196.967l24.837 6.657c3.952 1.071 8.169-1.25 9.265-5.349 1.082-4.034-1.311-8.187-5.349-9.265l-24.837-6.657c-4.034-1.079-8.183 1.315-9.265 5.349s1.311 8.187 5.349 9.265zM23.293 321.827l24.837-6.657a7.561 7.561 0 0 0 5.349-9.265c-1.079-4.042-5.231-6.45-9.265-5.349l-24.837 6.657a7.561 7.561 0 0 0-5.349 9.265c1.096 4.1 5.313 6.421 9.265 5.349zM89.347 428.001l18.18-18.183a7.564 7.564 0 0 0 0-10.699 7.564 7.564 0 0 0-10.699 0l-18.18 18.183c-2.955 2.955-2.955 7.743 0 10.699s7.743 2.956 10.699 0zM418.039 77.907 399.856 96.09a7.564 7.564 0 0 0 0 10.699 7.564 7.564 0 0 0 10.699 0l18.183-18.183a7.564 7.564 0 0 0 0-10.699 7.564 7.564 0 0 0-10.699 0zM308.814 19.508l-6.653 24.833c-1.082 4.034 1.311 8.187 5.349 9.265 3.981 1.073 8.173-1.275 9.265-5.349l6.653-24.833c1.082-4.034-1.311-8.187-5.349-9.265-4.064-1.109-8.186 1.322-9.265 5.349zM189.939 14.159a7.561 7.561 0 0 0-5.349 9.265l6.653 24.833c1.102 4.119 5.33 6.417 9.265 5.349a7.561 7.561 0 0 0 5.349-9.265l-6.653-24.833c-1.079-4.042-5.224-6.458-9.265-5.349z" fill="#ffffff" opacity="1" data-original="#000000" class=""/></g></svg>