<svg width="40" height="41" viewBox="0 0 40 41" fill="none" xmlns="http://www.w3.org/2000/svg">
<mask id="mask0_40002646_1401" style="mask-type:alpha" maskUnits="userSpaceOnUse" x="0" y="0" width="40" height="41">
<rect y="0.587891" width="40" height="40" fill="#D9D9D9"/>
</mask>
<g mask="url(#mask0_40002646_1401)">
<path d="M20.0007 28.9209C20.4729 28.9209 20.8687 28.7612 21.1882 28.4417C21.5076 28.1223 21.6673 27.7265 21.6673 27.2542C21.6673 26.782 21.5076 26.3862 21.1882 26.0667C20.8687 25.7473 20.4729 25.5876 20.0007 25.5876C19.5284 25.5876 19.1326 25.7473 18.8132 26.0667C18.4937 26.3862 18.334 26.782 18.334 27.2542C18.334 27.7265 18.4937 28.1223 18.8132 28.4417C19.1326 28.7612 19.5284 28.9209 20.0007 28.9209ZM18.334 22.2542H21.6673V12.2542H18.334V22.2542ZM20.0007 37.2542C17.6951 37.2542 15.5284 36.8167 13.5007 35.9417C11.4729 35.0667 9.70898 33.8792 8.20898 32.3792C6.70898 30.8792 5.52148 29.1153 4.64648 27.0876C3.77148 25.0598 3.33398 22.8931 3.33398 20.5876C3.33398 18.282 3.77148 16.1153 4.64648 14.0876C5.52148 12.0598 6.70898 10.2959 8.20898 8.7959C9.70898 7.2959 11.4729 6.1084 13.5007 5.2334C15.5284 4.3584 17.6951 3.9209 20.0007 3.9209C22.3062 3.9209 24.4729 4.3584 26.5007 5.2334C28.5284 6.1084 30.2923 7.2959 31.7923 8.7959C33.2923 10.2959 34.4798 12.0598 35.3548 14.0876C36.2298 16.1153 36.6673 18.282 36.6673 20.5876C36.6673 22.8931 36.2298 25.0598 35.3548 27.0876C34.4798 29.1153 33.2923 30.8792 31.7923 32.3792C30.2923 33.8792 28.5284 35.0667 26.5007 35.9417C24.4729 36.8167 22.3062 37.2542 20.0007 37.2542ZM20.0007 33.9209C23.7229 33.9209 26.8757 32.6292 29.459 30.0459C32.0423 27.4626 33.334 24.3098 33.334 20.5876C33.334 16.8653 32.0423 13.7126 29.459 11.1292C26.8757 8.5459 23.7229 7.25423 20.0007 7.25423C16.2784 7.25423 13.1257 8.5459 10.5423 11.1292C7.95898 13.7126 6.66732 16.8653 6.66732 20.5876C6.66732 24.3098 7.95898 27.4626 10.5423 30.0459C13.1257 32.6292 16.2784 33.9209 20.0007 33.9209Z" fill="#CE181B"/>
</g>
</svg>
