<svg width="30" height="39" viewBox="0 0 30 39" fill="none" xmlns="http://www.w3.org/2000/svg">
<path d="M22.8202 9.80274C22.8187 9.80178 22.8172 9.80081 22.8158 9.79984C22.3006 9.46225 21.6092 9.60621 21.2715 10.1214C20.9339 10.6367 21.0779 11.3281 21.5931 11.6657C22.2258 12.0804 22.6036 12.7786 22.6036 13.5336C22.6036 14.7636 21.6029 15.7643 20.3728 15.7643C19.1428 15.7643 18.1421 14.7636 18.1421 13.5336C18.1421 13.2684 18.198 12.8555 18.2629 12.3774C18.6954 9.18839 19.1607 4.23742 13.1863 0.189242C12.4001 -0.312607 11.4497 0.25624 11.4497 1.11561C11.4497 1.11739 11.4497 1.11918 11.4497 1.12096C11.4477 6.26281 8.87596 8.84195 6.15323 11.5717C3.23449 14.4979 0.295898 17.506 0.295898 23.3333V23.572C0.295898 31.5673 6.8006 38.072 14.7959 38.072C22.7912 38.072 29.2959 31.5673 29.2959 23.572C29.2959 16.5522 25.9515 11.8572 22.8202 9.80274ZM14.7959 35.8413C8.03064 35.8413 2.52667 30.3373 2.52667 23.572V23.3333C2.52667 18.3664 5.05539 15.8311 7.73269 13.147C10.7649 10.107 12.9407 7.61808 13.5352 3.28674C16.8296 6.34312 16.37 9.73619 16.0524 12.0776C15.9767 12.6357 15.9114 13.1178 15.9114 13.5336C15.9114 15.9937 17.9128 17.9952 20.3729 17.9952C22.3876 17.9952 24.0948 16.6528 24.6468 14.8154C26.0402 16.9437 27.0652 19.8776 27.0652 23.5721C27.0651 30.3373 21.5612 35.8413 14.7959 35.8413Z" fill="#011839"/>
<path d="M5.87271 6.76696C6.4887 6.76696 6.98809 6.26756 6.98809 5.65157V3.4208C6.98809 2.80481 6.4887 2.30542 5.87271 2.30542C5.25672 2.30542 4.75732 2.80481 4.75732 3.4208V5.65157C4.75732 6.26764 5.25672 6.76696 5.87271 6.76696Z" fill="#011839"/>
<path d="M21.4889 6.76696C22.1049 6.76696 22.6043 6.26756 22.6043 5.65157V3.4208C22.6043 2.80481 22.1049 2.30542 21.4889 2.30542C20.8729 2.30542 20.3735 2.80481 20.3735 3.4208V5.65157C20.3735 6.26764 20.8729 6.76696 21.4889 6.76696Z" fill="#011839"/>
<path d="M19.7655 21.0045C18.4536 19.6926 16.7341 19.0366 15.0147 19.0366C13.2952 19.0366 11.5757 19.6926 10.2638 21.0045C7.63994 23.6283 7.63994 27.8824 10.2638 30.5063C11.5757 31.8181 13.2952 32.4741 15.0147 32.4741C16.7342 32.4741 18.4536 31.8181 19.7655 30.5063C22.3894 27.8824 22.3894 23.6283 19.7655 21.0045ZM16.4132 27.5964L12.7494 29.0357C12.4595 29.1496 12.1296 29.0808 11.9094 28.8605C11.6891 28.6403 11.6203 28.3104 11.7342 28.0205L13.1734 24.3567C13.253 24.1541 13.4133 23.9938 13.616 23.9142L17.2798 22.475C17.5697 22.3611 17.8996 22.4298 18.1198 22.6501C18.3401 22.8704 18.4089 23.2002 18.295 23.4901L16.8557 27.154C16.7762 27.3566 16.6159 27.5169 16.4132 27.5964Z" fill="#1A47E8"/>
<path d="M14.2785 25.019L13.4644 27.0916L15.5369 26.2775L16.3511 24.2048L14.2785 25.019Z" fill="#1A47E8"/>
</svg>
