<svg width="41" height="38" viewBox="0 0 41 38" fill="none" xmlns="http://www.w3.org/2000/svg">
<path d="M20.4902 1.60889C21.3194 1.60889 22.3029 1.97618 22.8496 2.88623L22.9531 3.07471V3.07568L27.085 11.4429L36.3174 12.7847L36.5078 12.8198C37.4486 13.0256 38.2328 13.7175 38.5322 14.6558H38.5332C38.8516 15.6412 38.5974 16.7306 37.8398 17.4683L37.8408 17.4692L31.1582 23.9829L32.7363 33.1763L32.7373 33.1831L32.7627 33.3745C32.8545 34.3345 32.4388 35.2826 31.6465 35.8638L31.6309 35.8755C31.1528 36.2158 30.5935 36.3882 30.0283 36.3882C29.6056 36.3881 29.1622 36.2941 28.7432 36.0728V36.0718L20.4912 31.7349L12.2314 36.0747L12.2305 36.0737C11.2978 36.5683 10.1816 36.4746 9.34473 35.8706C8.48699 35.2514 8.07581 34.2008 8.24512 33.1831L8.24707 33.1763L9.82324 23.9829L3.1416 17.4692L3.14258 17.4683C2.38559 16.7365 2.12714 15.6419 2.44434 14.6567L2.44531 14.6548L2.5127 14.4692C2.8807 13.5615 3.70676 12.9242 4.66602 12.7847L13.8965 11.4429L18.0244 3.07666L18.0273 3.06885L18.1318 2.88135C18.681 1.97621 19.661 1.60903 20.4902 1.60889Z" fill="#FFD029" stroke="white" stroke-width="2.7839"/>
</svg>
