<svg
    xmlns="http://www.w3.org/2000/svg"
    width="16"
    height="17"
    viewBox="0 0 16 17"
    fill="none"
  >
    <g clip-path="url(#clip0_9759_2168)">
      <path
        d="M15.9999 1.35448C16.0017 1.04901 15.7375 0.781883 15.4405 0.788196H13.0094C12.7004 0.788196 12.4499 1.04563 12.4499 1.3632C12.4499 1.68076 12.7004 1.9382 13.0094 1.9382H14.0899L8.69601 7.49773L7.82838 4.4881C7.74082 4.06735 7.18288 3.90138 6.88973 4.21982L0.163852 11.1637C-0.0546172 11.3883 -0.0546172 11.7524 0.163852 11.9769C0.273102 12.0892 0.416289 12.1453 0.559445 12.1453C0.702602 12.1453 0.84582 12.0892 0.955039 11.9769L6.98054 5.75279L7.84816 8.76241C7.93573 9.18316 8.49366 9.34916 8.78682 9.0307L14.8811 2.75132V3.86176C14.8811 4.17932 15.1315 4.43676 15.4405 4.43676C15.7495 4.43676 16 4.17932 16 3.86176V1.36316C16 1.36026 15.9999 1.35738 15.9999 1.35448Z"
        fill="#BBF49B"
      />
      <path
        d="M13.7742 7.45312H7.38208C6.89167 7.45312 6.49414 7.85275 6.49414 8.34572V14.3637C6.49414 14.8566 6.8917 15.2563 7.38208 15.2563H9.36333L10.5606 16.7875L11.758 15.2563H13.7742C14.2646 15.2563 14.6621 14.8566 14.6621 14.3637V8.34572C14.6621 7.85275 14.2646 7.45312 13.7742 7.45312Z"
        fill="#FE93D3"
      />
      <path
        d="M13.774 7.45312H12.4863C12.9767 7.45312 13.3743 7.85275 13.3743 8.34572V14.3637C13.3743 14.8566 12.9767 15.2563 12.4863 15.2563H13.774C14.2645 15.2563 14.662 14.8566 14.662 14.3637V8.34572C14.662 7.85275 14.2644 7.45312 13.774 7.45312Z"
        fill="#FE73C5"
      />
      <path
        d="M11.2173 11.3312C11.4846 11.1336 11.6582 10.8152 11.6582 10.4561C11.6582 9.8563 11.1746 9.37012 10.5779 9.37012C9.9813 9.37012 9.49764 9.8563 9.49764 10.4561C9.49764 10.8152 9.67124 11.1336 9.93858 11.3312C9.17877 11.5971 8.6333 12.323 8.6333 13.1774H12.5226C12.5226 12.323 11.9771 11.5971 11.2173 11.3312Z"
        fill="white"
      />
      <path
        d="M4.97863 11.8383H4.44131V11.301C4.44131 11.1677 4.33322 11.0596 4.19988 11.0596C4.06653 11.0596 3.95844 11.1677 3.95844 11.301V11.8383H3.42112C3.28778 11.8383 3.17969 11.9464 3.17969 12.0798C3.17969 12.2131 3.28778 12.3212 3.42112 12.3212H3.95844V12.8585C3.95844 12.9919 4.06653 13.0999 4.19988 13.0999C4.33322 13.0999 4.44131 12.9919 4.44131 12.8585V12.3212H4.97863C5.11197 12.3212 5.22006 12.2131 5.22006 12.0798C5.22009 11.9464 5.112 11.8383 4.97863 11.8383Z"
        fill="#C8EFFE"
      />
      <path
        d="M2.34777 5.24945H1.81048V4.71214C1.81048 4.5788 1.70239 4.4707 1.56905 4.4707C1.4357 4.4707 1.32761 4.5788 1.32761 4.71214V5.24945H0.790266C0.656922 5.24945 0.548828 5.35755 0.548828 5.49089C0.548828 5.62423 0.656922 5.73233 0.790266 5.73233H1.32758V6.26964C1.32758 6.40298 1.43567 6.51108 1.56902 6.51108C1.70236 6.51108 1.81045 6.40298 1.81045 6.26964V5.73233H2.34777C2.48111 5.73233 2.5892 5.62423 2.5892 5.49089C2.58923 5.35755 2.48111 5.24945 2.34777 5.24945Z"
        fill="#C8EFFE"
      />
      <path
        d="M5.54747 2.2905H5.01016V1.75316C5.01016 1.61981 4.90207 1.51172 4.76872 1.51172C4.63538 1.51172 4.52729 1.61981 4.52729 1.75316V2.2905H3.98997C3.85663 2.2905 3.74854 2.39859 3.74854 2.53194C3.74854 2.66528 3.85663 2.77337 3.98997 2.77337H4.52729V3.31069C4.52729 3.44403 4.63538 3.55212 4.76872 3.55212C4.90207 3.55212 5.01016 3.44403 5.01016 3.31069V2.77337H5.54747C5.68082 2.77337 5.78891 2.66528 5.78891 2.53194C5.78891 2.39859 5.68082 2.2905 5.54747 2.2905Z"
        fill="#C8EFFE"
      />
    </g>
    <defs>
      <clipPath id="clip0_9759_2168">
        <rect
          width="16"
          height="16"
          fill="white"
          transform="translate(0 0.788086)"
        />
      </clipPath>
    </defs>
  </svg>