<svg width="40" height="40" viewBox="0 0 40 40" fill="none" xmlns="http://www.w3.org/2000/svg">
<path fill-rule="evenodd" clip-rule="evenodd" d="M0.295898 36.518C0.295898 36.9548 0.474306 37.3643 0.799025 37.6715L2.42802 39.2142C3.09979 39.8502 4.19269 39.8502 4.86417 39.2142L29.7498 15.647C30.0741 15.3399 30.2529 14.9299 30.2529 14.4936C30.2529 14.0566 30.0742 13.647 29.7498 13.3398L28.1208 11.7972C27.7965 11.4901 27.364 11.3207 26.9029 11.3207C26.4418 11.3207 26.0093 11.4897 25.6849 11.7972L0.799068 35.3648C0.474739 35.672 0.295898 36.0814 0.295898 36.518ZM29.271 14.4936C29.271 14.6816 29.1947 14.8576 29.0558 14.9891L4.17016 38.5569C3.88161 38.8301 3.41165 38.8301 3.123 38.5569L1.49439 37.0142C1.21677 36.7512 1.21677 36.2856 1.49439 36.0226L26.38 12.4552C26.5189 12.3237 26.705 12.2511 26.9036 12.2511C27.102 12.2511 27.2883 12.3237 27.427 12.4552L29.056 13.9979C29.1943 14.1292 29.271 14.3052 29.271 14.4936Z" fill="black"/>
<path fill-rule="evenodd" clip-rule="evenodd" d="M19.193 18.1376C19.193 18.2565 19.2411 18.3756 19.337 18.4667L22.7074 21.6586C22.7994 21.7457 22.9243 21.7949 23.0545 21.7949C23.1847 21.7949 23.3097 21.7458 23.4016 21.6586L25.7891 19.3975C25.8812 19.3101 25.9331 19.1918 25.9331 19.0684C25.9331 18.945 25.8813 18.8268 25.7891 18.7393L22.4184 15.5475C22.2267 15.3656 21.9156 15.3656 21.724 15.5475L19.3365 17.8085C19.2407 17.8995 19.193 18.0188 19.193 18.1376ZM23.0545 20.6718L20.3788 18.1376L22.0715 16.5342L24.7474 19.0684L23.0545 20.6718Z" fill="black"/>
<path fill-rule="evenodd" clip-rule="evenodd" d="M30.3158 5.31699C30.3158 5.37505 30.3274 5.43357 30.3509 5.4898L31.4352 8.05644L30.3509 10.6231C30.278 10.7963 30.3207 10.9933 30.4598 11.1252C30.5986 11.2567 30.807 11.2971 30.9894 11.2278L33.6995 10.2007L36.4099 11.2278C36.5925 11.297 36.8008 11.2565 36.9396 11.1252C37.0784 10.9939 37.1213 10.7964 37.0484 10.6231L35.9641 8.05644L37.0484 5.4898C37.1213 5.31671 37.0784 5.11973 36.9396 4.98786C36.8008 4.85599 36.5925 4.81597 36.4099 4.88521L33.6995 5.91197L30.9892 4.88521C30.8067 4.81606 30.5984 4.85654 30.4595 4.98786C30.3656 5.07669 30.3158 5.19583 30.3158 5.31699ZM35.7108 9.96105L33.882 9.26791C33.7649 9.22331 33.6344 9.22331 33.5171 9.26791L31.6887 9.96105L32.4202 8.22915C32.4672 8.11807 32.4672 7.99426 32.4202 7.88354L31.6887 6.152L33.5175 6.84478C33.6345 6.88938 33.7651 6.88938 33.882 6.84478L35.7108 6.152L34.9793 7.88354C34.9322 7.99462 34.9322 8.11843 34.9793 8.22915L35.7108 9.96105Z" fill="black"/>
<path fill-rule="evenodd" clip-rule="evenodd" d="M16.6992 7.15237C16.6992 7.21043 16.7108 7.26895 16.7347 7.32518L17.8189 9.89173L16.7347 12.4584C16.6613 12.6314 16.7043 12.8285 16.8431 12.9603C16.9818 13.0922 17.1906 13.1322 17.3731 13.063L20.0832 12.0362L22.7936 13.063C22.9762 13.1321 23.1845 13.0917 23.3233 12.9603C23.4626 12.8289 23.505 12.6315 23.4321 12.4584L22.3479 9.89173L23.4321 7.32518C23.505 7.15173 23.4624 6.95502 23.3233 6.82324C23.1845 6.69174 22.9762 6.65135 22.7936 6.72059L20.0832 7.74735L17.3731 6.72059C17.1906 6.65145 16.9823 6.69183 16.8431 6.82324C16.7492 6.91244 16.6992 7.03121 16.6992 7.15237ZM18.8389 9.892C18.8389 9.83321 18.8269 9.77478 18.8035 9.71919L18.072 7.98756L19.9004 8.68044C20.0177 8.72494 20.1484 8.72494 20.2653 8.68044L22.0941 7.98756L21.3626 9.71919C21.3155 9.83028 21.3155 9.954 21.3626 10.0647L22.0941 11.7963L20.2653 11.1035C20.1482 11.059 20.0177 11.059 19.9004 11.1035L18.072 11.7963L18.8035 10.0647C18.8267 10.0093 18.8389 9.95052 18.8389 9.892Z" fill="black"/>
<path fill-rule="evenodd" clip-rule="evenodd" d="M25.8501 28.3788C25.8501 28.4999 25.8998 28.6192 25.9941 28.7079C26.133 28.8397 26.3413 28.88 26.5237 28.811L29.2341 27.7841L31.9445 28.811C32.1271 28.88 32.3354 28.8396 32.4742 28.7079C32.6134 28.5764 32.6559 28.3793 32.583 28.2063L31.4987 25.6395L32.583 23.0727C32.6559 22.8999 32.6133 22.7026 32.4742 22.5711C32.3354 22.4392 32.1271 22.3989 31.9445 22.4681L29.2341 23.4948L26.5237 22.4681C26.3413 22.3989 26.133 22.4393 25.9941 22.5711C25.8553 22.7026 25.8119 22.8999 25.8853 23.0727L26.9695 25.6395L25.8853 28.2063C25.8614 28.2624 25.8501 28.3209 25.8501 28.3788ZM27.9893 25.6394C27.9893 25.5807 27.9777 25.5223 27.9541 25.4666L27.2226 23.7347L29.0514 24.4275C29.1684 24.4717 29.299 24.4717 29.4159 24.4275L31.2447 23.7347L30.5132 25.4666C30.4661 25.5775 30.4661 25.7014 30.5132 25.8119L31.2447 27.5438L29.4159 26.851C29.2988 26.8068 29.1683 26.8068 29.0514 26.851L27.2226 27.5438L27.9541 25.8119C27.9777 25.7567 27.9893 25.6981 27.9893 25.6394Z" fill="black"/>
<path fill-rule="evenodd" clip-rule="evenodd" d="M21.548 28.388V29.9043C21.548 30.161 21.7681 30.3694 22.0391 30.3694C22.3103 30.3694 22.5303 30.161 22.5303 29.9043V28.388C22.5303 28.1313 22.3103 27.9229 22.0391 27.9229C21.7681 27.9229 21.548 28.131 21.548 28.388Z" fill="black"/>
<path fill-rule="evenodd" clip-rule="evenodd" d="M21.548 32.2453V33.7614C21.548 34.0182 21.7681 34.2266 22.0391 34.2266C22.3103 34.2266 22.5303 34.0182 22.5303 33.7614V32.2453C22.5303 31.9885 22.3103 31.7802 22.0391 31.7802C21.7681 31.7802 21.548 31.9885 21.548 32.2453Z" fill="black"/>
<path fill-rule="evenodd" clip-rule="evenodd" d="M22.7835 31.1819C22.7835 31.4385 23.0036 31.647 23.2746 31.647H24.8757C25.1467 31.647 25.3667 31.4385 25.3667 31.1819C25.3667 30.9251 25.1467 30.7167 24.8757 30.7167H23.2746C23.0034 30.7167 22.7835 30.9247 22.7835 31.1819Z" fill="black"/>
<path fill-rule="evenodd" clip-rule="evenodd" d="M18.711 31.1819C18.711 31.4385 18.9314 31.647 19.2021 31.647H20.8028C21.0739 31.647 21.2939 31.4385 21.2939 31.1819C21.2939 30.9251 21.0739 30.7167 20.8028 30.7167H19.2021C18.9311 30.7167 18.711 30.9247 18.711 31.1819Z" fill="black"/>
<path fill-rule="evenodd" clip-rule="evenodd" d="M10.0993 15.8749V17.3912C10.0993 17.6479 10.3196 17.8562 10.5904 17.8562C10.8613 17.8562 11.0815 17.6476 11.0815 17.3912V15.8749C11.0815 15.6182 10.8613 15.4098 10.5904 15.4098C10.3196 15.4098 10.0993 15.6182 10.0993 15.8749Z" fill="black"/>
<path fill-rule="evenodd" clip-rule="evenodd" d="M10.0993 19.7327V21.2487C10.0993 21.5054 10.3196 21.7139 10.5904 21.7139C10.8613 21.7139 11.0815 21.5054 11.0815 21.2487V19.7327C11.0815 19.4759 10.8613 19.2676 10.5904 19.2676C10.3196 19.2676 10.0993 19.4758 10.0993 19.7327Z" fill="black"/>
<path fill-rule="evenodd" clip-rule="evenodd" d="M11.3356 18.6687C11.3356 18.9254 11.5559 19.1338 11.8268 19.1338H13.4278C13.6989 19.1338 13.9189 18.9251 13.9189 18.6687C13.9189 18.4122 13.6986 18.2035 13.4278 18.2035H11.8268C11.5555 18.2035 11.3356 18.4122 11.3356 18.6687Z" fill="black"/>
<path fill-rule="evenodd" clip-rule="evenodd" d="M7.26247 18.6687C7.26247 18.9254 7.48275 19.1338 7.75361 19.1338H9.35456C9.62571 19.1338 9.8457 18.9251 9.8457 18.6687C9.8457 18.4122 9.62542 18.2035 9.35456 18.2035H7.75361C7.48275 18.2035 7.26247 18.4122 7.26247 18.6687Z" fill="black"/>
<path fill-rule="evenodd" clip-rule="evenodd" d="M11.3356 4.29607V5.81222C11.3356 6.06891 11.5559 6.27734 11.8267 6.27734C12.0976 6.27734 12.3179 6.06864 12.3179 5.81222V4.29607C12.3179 4.03938 12.0976 3.83105 11.8267 3.83105C11.5559 3.83105 11.3356 4.03929 11.3356 4.29607Z" fill="black"/>
<path fill-rule="evenodd" clip-rule="evenodd" d="M11.3356 8.15301V9.66916C11.3356 9.92594 11.5559 10.1343 11.8267 10.1343C12.0976 10.1343 12.3179 9.92567 12.3179 9.66916V8.15301C12.3179 7.89622 12.0976 7.68789 11.8267 7.68789C11.5559 7.68789 11.3356 7.89622 11.3356 8.15301Z" fill="black"/>
<path fill-rule="evenodd" clip-rule="evenodd" d="M12.5711 7.08908C12.5711 7.34577 12.7913 7.5542 13.0621 7.5542H14.6632C14.9342 7.5542 15.1543 7.34559 15.1543 7.08908C15.1543 6.83257 14.934 6.62396 14.6632 6.62396H13.0621C12.7911 6.62368 12.5711 6.8323 12.5711 7.08908Z" fill="black"/>
<path fill-rule="evenodd" clip-rule="evenodd" d="M8.49822 7.09006C8.49822 7.34675 8.7185 7.55518 8.98936 7.55518H10.5904C10.8615 7.55518 11.0815 7.34656 11.0815 7.09006C11.0815 6.83355 10.8613 6.62493 10.5904 6.62493H8.98936C8.7185 6.62457 8.49822 6.83327 8.49822 7.09006Z" fill="black"/>
<path fill-rule="evenodd" clip-rule="evenodd" d="M26.2335 0.522148V2.0383C26.2335 2.29499 26.4536 2.50342 26.7247 2.50342C26.9958 2.50342 27.2158 2.29472 27.2158 2.0383V0.522148C27.2158 0.265458 26.9958 0.0570285 26.7247 0.0570285C26.4536 0.0570285 26.2335 0.265365 26.2335 0.522148Z" fill="black"/>
<path fill-rule="evenodd" clip-rule="evenodd" d="M26.2335 4.37868V5.89474C26.2335 6.15152 26.4536 6.35986 26.7247 6.35986C26.9958 6.35986 27.2158 6.15125 27.2158 5.89474V4.37868C27.2158 4.12199 26.9958 3.91356 26.7247 3.91356C26.4536 3.91356 26.2335 4.12181 26.2335 4.37868Z" fill="black"/>
<path fill-rule="evenodd" clip-rule="evenodd" d="M27.4695 3.31564C27.4695 3.57233 27.6895 3.78076 27.9606 3.78076L29.5616 3.78076C29.8327 3.78076 30.0527 3.57215 30.0527 3.31564C30.0527 3.05913 29.8327 2.85052 29.5616 2.85052H27.9606C27.6891 2.85052 27.4695 3.05877 27.4695 3.31564Z" fill="black"/>
<path fill-rule="evenodd" clip-rule="evenodd" d="M23.3967 3.31564C23.3967 3.57233 23.6167 3.78076 23.8878 3.78076L25.4888 3.78076C25.7599 3.78076 25.98 3.57215 25.98 3.31564C25.98 3.05913 25.7599 2.85052 25.4888 2.85052H23.8878C23.6166 2.85052 23.3967 3.05877 23.3967 3.31564Z" fill="black"/>
<path fill-rule="evenodd" clip-rule="evenodd" d="M33.6608 14.7605V16.2763C33.6608 16.5331 33.8809 16.7415 34.1519 16.7415C34.4231 16.7415 34.6431 16.5328 34.6431 16.2763V14.7605C34.6431 14.5038 34.4231 14.2954 34.1519 14.2954C33.8809 14.2954 33.6608 14.5038 33.6608 14.7605Z" fill="black"/>
<path fill-rule="evenodd" clip-rule="evenodd" d="M33.6608 18.6175V20.1338C33.6608 20.3904 33.8809 20.5989 34.1519 20.5989C34.4231 20.5989 34.6431 20.3904 34.6431 20.1338V18.6175C34.6431 18.3608 34.4231 18.1524 34.1519 18.1524C33.8809 18.1524 33.6608 18.3608 33.6608 18.6175Z" fill="black"/>
<path fill-rule="evenodd" clip-rule="evenodd" d="M34.8967 17.5537C34.8967 17.8104 35.1167 18.0188 35.3878 18.0188H36.9888C37.2599 18.0188 37.48 17.8102 37.48 17.5537C37.48 17.2972 37.2599 17.0886 36.9888 17.0886H35.3878C35.1167 17.0886 34.8967 17.2968 34.8967 17.5537Z" fill="black"/>
<path fill-rule="evenodd" clip-rule="evenodd" d="M30.8239 17.5537C30.8239 17.8104 31.044 18.0188 31.315 18.0188H32.9161C33.1871 18.0188 33.4072 17.8102 33.4072 17.5537C33.4072 17.2972 33.1871 17.0886 32.9161 17.0886H31.315C31.0436 17.0886 30.8239 17.2968 30.8239 17.5537Z" fill="black"/>
<path fill-rule="evenodd" clip-rule="evenodd" d="M34.5275 23.2349C34.5275 23.3958 34.6155 23.5521 34.773 23.6384L37.1666 24.9472C37.4016 25.0754 37.702 24.9996 37.8374 24.777C37.9732 24.5541 37.8923 24.2699 37.6578 24.1417L35.2641 22.833C35.0292 22.7047 34.7287 22.7806 34.5933 23.0031C34.5489 23.076 34.5275 23.1562 34.5275 23.2349Z" fill="black"/>
<path fill-rule="evenodd" clip-rule="evenodd" d="M17.0668 3.04711C17.0668 3.20765 17.1551 3.36397 17.3127 3.45014L19.7067 4.75896C19.9413 4.88717 20.2417 4.81134 20.3775 4.58881C20.5129 4.36756 20.433 4.0823 20.1978 3.95354L17.8038 2.64472C17.5693 2.51652 17.2688 2.59234 17.133 2.81487C17.0882 2.88813 17.0668 2.96799 17.0668 3.04711Z" fill="black"/>
<path fill-rule="evenodd" clip-rule="evenodd" d="M36.2396 13.5424C36.2396 13.7991 36.4596 14.0076 36.7308 14.0076H39.4947C39.7658 14.0076 39.9858 13.799 39.9858 13.5424C39.9858 13.2859 39.7658 13.0773 39.4947 13.0773H36.7308C36.4592 13.0773 36.2396 13.2856 36.2396 13.5424Z" fill="black"/>
<path fill-rule="evenodd" clip-rule="evenodd" d="M31.1446 2.73255C31.1446 2.89308 31.2326 3.0495 31.3901 3.13567C31.6251 3.26388 31.9256 3.18805 32.061 2.96552L33.4429 0.698805C33.5783 0.477189 33.4985 0.192291 33.2632 0.0634418C33.0283 -0.0646744 32.7277 0.0110614 32.5924 0.233685L31.2104 2.5004C31.1656 2.57329 31.1446 2.65315 31.1446 2.73255Z" fill="black"/>
<path fill-rule="evenodd" clip-rule="evenodd" d="M13.2157 14.6212C13.2157 14.8267 13.3607 15.0147 13.5796 15.0702L16.2492 15.7475C16.5114 15.8139 16.7809 15.6668 16.8507 15.4187C16.9227 15.1697 16.7652 14.9151 16.5036 14.849L13.8341 14.1717C13.5717 14.1051 13.3023 14.2524 13.2324 14.5005C13.2211 14.5407 13.2157 14.5815 13.2157 14.6212Z" fill="black"/>
<path fill-rule="evenodd" clip-rule="evenodd" d="M2.4058 34.0357C2.4058 34.1548 2.45386 34.2738 2.54979 34.3645L5.92053 37.5566C6.11258 37.7386 6.42366 37.7386 6.61532 37.5566C6.80707 37.3748 6.80746 37.0805 6.61532 36.899L3.24457 33.7068C3.05253 33.525 2.74144 33.525 2.54979 33.7068C2.45386 33.7977 2.4058 33.9166 2.4058 34.0357Z" fill="black"/>
<path fill-rule="evenodd" clip-rule="evenodd" d="M31.6888 9.96094L32.4204 8.22903C32.4673 8.11795 32.4673 7.99414 32.4204 7.88342L31.6888 6.15188L33.5176 6.84466C33.6346 6.88926 33.7652 6.88926 33.8822 6.84466L35.7109 6.15188L34.9794 7.88342C34.9323 7.9945 34.9323 8.11831 34.9794 8.22903L35.7109 9.96094L33.8822 9.26779C33.7651 9.22319 33.6345 9.22319 33.5172 9.26779L31.6888 9.96094Z" fill="#1946E7"/>
<path fill-rule="evenodd" clip-rule="evenodd" d="M22.0942 7.98761L21.3627 9.71924C21.3156 9.83032 21.3156 9.95404 21.3627 10.0648L22.0942 11.7964L20.2655 11.1035C20.1484 11.059 20.0178 11.059 19.9005 11.1035L18.0721 11.7964L18.8037 10.0648C18.8269 10.0094 18.839 9.95056 18.839 9.89204C18.839 9.83325 18.8271 9.77482 18.8037 9.71924L18.0721 7.98761L19.9005 8.68048C20.0178 8.72498 20.1485 8.72498 20.2655 8.68048L22.0942 7.98761Z" fill="#1946E7"/>
<path fill-rule="evenodd" clip-rule="evenodd" d="M27.223 23.7344L29.0518 24.4272C29.1688 24.4713 29.2994 24.4713 29.4163 24.4272L31.2451 23.7344L30.5136 25.4663C30.4665 25.5771 30.4665 25.7011 30.5136 25.8116L31.2451 27.5435L29.4163 26.8507C29.2992 26.8064 29.1687 26.8064 29.0518 26.8507L27.223 27.5435L27.9545 25.8116C27.9781 25.7563 27.9897 25.6978 27.9897 25.6391C27.9897 25.5803 27.9781 25.522 27.9545 25.4663L27.223 23.7344Z" fill="#1946E7"/>
<path fill-rule="evenodd" clip-rule="evenodd" d="M29.0557 14.9891L25.4427 18.4109L22.7668 15.877L26.3801 12.4552C26.5189 12.3237 26.7051 12.2511 26.9036 12.2511C27.102 12.2511 27.2884 12.3237 27.427 12.4552L29.056 13.9979C29.1943 14.1292 29.271 14.3052 29.271 14.4936C29.271 14.6816 29.1946 14.8576 29.0557 14.9891Z" fill="#1946E7"/>
<path fill-rule="evenodd" clip-rule="evenodd" d="M22.0717 16.5343L24.7476 19.0685L23.0546 20.6719L20.3793 18.1379L22.0717 16.5343Z" fill="white"/>
<path fill-rule="evenodd" clip-rule="evenodd" d="M19.6845 18.7958L22.3604 21.3298L6.26792 36.5701L3.59193 34.0359L19.6845 18.7958Z" fill="#1946E7"/>
<path fill-rule="evenodd" clip-rule="evenodd" d="M2.89728 34.6936L5.57324 37.2278L4.16984 38.5568C3.88129 38.83 3.41133 38.83 3.12269 38.5568L1.49407 37.0141C1.21645 36.7511 1.21645 36.2855 1.49407 36.0224L2.89728 34.6936Z" fill="white"/>
</svg>
