<svg width="36" height="36" viewBox="0 0 36 36" fill="none" xmlns="http://www.w3.org/2000/svg">
<rect width="36" height="36" rx="18" fill="#F4F6FF"/>
<path d="M21.3333 25.5V23.8333C21.3333 22.9493 20.9821 22.1014 20.357 21.4763C19.7319 20.8512 18.884 20.5 18 20.5H13C12.1159 20.5 11.2681 20.8512 10.6429 21.4763C10.0178 22.1014 9.66663 22.9493 9.66663 23.8333V25.5M26.3333 25.5V23.8333C26.3327 23.0948 26.0869 22.3773 25.6344 21.7936C25.1819 21.2099 24.5484 20.793 23.8333 20.6083M21.3333 10.6083C22.0503 10.7919 22.6858 11.2089 23.1397 11.7936C23.5935 12.3783 23.8398 13.0974 23.8398 13.8375C23.8398 14.5776 23.5935 15.2967 23.1397 15.8814C22.6858 16.4661 22.0503 16.8831 21.3333 17.0667M18.8333 13.8333C18.8333 15.6743 17.3409 17.1667 15.5 17.1667C13.659 17.1667 12.1666 15.6743 12.1666 13.8333C12.1666 11.9924 13.659 10.5 15.5 10.5C17.3409 10.5 18.8333 11.9924 18.8333 13.8333Z" stroke="#406AFF" strokeWidth="2" strokeLinecap="round" strokeLinejoin="round"/>
</svg>
