<svg width="40" height="40" viewBox="0 0 40 40" fill="none" xmlns="http://www.w3.org/2000/svg">
<g clip-path="url(#clip0_4462_3086)">
<path d="M37.5582 35.4264H33.9923V34.4574C33.9915 33.8922 33.7666 33.3505 33.367 32.9509C32.9674 32.5513 32.4257 32.3264 31.8605 32.3256H25.8528V30.5814C25.8528 30.4272 25.7915 30.2793 25.6825 30.1703C25.5734 30.0613 25.4256 30 25.2714 30C25.1172 30 24.9693 30.0613 24.8603 30.1703C24.7512 30.2793 24.69 30.4272 24.69 30.5814V32.3256H15V30.5814C15 30.4272 14.9388 30.2793 14.8297 30.1703C14.7207 30.0613 14.5728 30 14.4186 30C14.2644 30 14.1166 30.0613 14.0075 30.1703C13.8985 30.2793 13.8372 30.4272 13.8372 30.5814V32.3256H7.82947C7.26434 32.3264 6.72259 32.5513 6.32298 32.9509C5.92337 33.3505 5.69851 33.8922 5.69769 34.4574V35.4264H2.13179C1.5664 35.4264 1.02417 35.651 0.624386 36.0508C0.224598 36.4505 0 36.9928 0 37.5582C0 38.1235 0.224598 38.6658 0.624386 39.0656C1.02417 39.4653 1.5664 39.6899 2.13179 39.6899H37.5582C38.1236 39.6899 38.6658 39.4653 39.0656 39.0656C39.4654 38.6658 39.69 38.1235 39.69 37.5582C39.69 36.9928 39.4654 36.4505 39.0656 36.0508C38.6658 35.651 38.1236 35.4264 37.5582 35.4264ZM6.86048 34.4574C6.86089 34.2005 6.96311 33.9543 7.14474 33.7726C7.32638 33.591 7.57261 33.4888 7.82947 33.4884H31.8605C32.1174 33.4888 32.3636 33.591 32.5453 33.7726C32.7269 33.9543 32.8291 34.2005 32.8295 34.4574V35.4264H6.86048V34.4574ZM37.5582 38.5271H2.13179C1.87479 38.5271 1.62833 38.4251 1.4466 38.2433C1.26488 38.0616 1.16279 37.8151 1.16279 37.5582C1.16279 37.3012 1.26488 37.0547 1.4466 36.873C1.62833 36.6912 1.87479 36.5892 2.13179 36.5892H37.5582C37.8152 36.5892 38.0617 36.6912 38.2434 36.873C38.4251 37.0547 38.5272 37.3012 38.5272 37.5582C38.5272 37.8151 38.4251 38.0616 38.2434 38.2433C38.0617 38.4251 37.8152 38.5271 37.5582 38.5271Z" fill="#011839"/>
<path d="M14.8062 5.81396H16.938V6.68528C16.938 6.83948 16.9992 6.98736 17.1083 7.09639C17.2173 7.20543 17.3652 7.26668 17.5194 7.26668C17.6736 7.26668 17.8215 7.20543 17.9305 7.09639C18.0395 6.98736 18.1008 6.83948 18.1008 6.68528V5.81396H21.5892V6.76901C21.5892 6.9232 21.6504 7.07108 21.7594 7.18011C21.8685 7.28915 22.0164 7.3504 22.1706 7.3504C22.3248 7.3504 22.4726 7.28915 22.5817 7.18011C22.6907 7.07108 22.752 6.9232 22.752 6.76901V5.81396H24.8837C25.3462 5.81355 25.7896 5.62966 26.1166 5.30265C26.4436 4.97564 26.6275 4.53224 26.6279 4.06978V1.74419C26.6275 1.28173 26.4436 0.838325 26.1166 0.511315C25.7896 0.184305 25.3462 0.00041053 24.8837 0L14.8062 0C14.3437 0.00041053 13.9003 0.184305 13.5733 0.511315C13.2463 0.838325 13.0624 1.28173 13.062 1.74419V4.06978C13.0624 4.53224 13.2463 4.97564 13.5733 5.30265C13.9003 5.62966 14.3437 5.81355 14.8062 5.81396ZM14.2248 1.74419C14.2248 1.58999 14.2861 1.44211 14.3951 1.33308C14.5041 1.22405 14.652 1.16279 14.8062 1.16279H24.8837C25.0379 1.16279 25.1858 1.22405 25.2949 1.33308C25.4039 1.44211 25.4651 1.58999 25.4651 1.74419V4.06978C25.4651 4.22397 25.4039 4.37185 25.2949 4.48088C25.1858 4.58992 25.0379 4.65117 24.8837 4.65117H14.8062C14.652 4.65117 14.5041 4.58992 14.3951 4.48088C14.2861 4.37185 14.2248 4.22397 14.2248 4.06978V1.74419Z" fill="#011839"/>
<path d="M35.6535 24.3801C35.6534 23.6671 35.606 22.955 35.5117 22.2483H3.624C3.52989 22.955 3.48276 23.6671 3.48291 24.3801V25.3491H35.6535V24.3801Z" fill="#0033E6"/>
<path d="M19.568 8.29468C11.8269 8.29468 5.34863 13.7908 3.82227 21.0854H35.313C33.789 13.7908 27.3084 8.29468 19.568 8.29468ZM15.8006 13.1738C14.1489 13.7339 12.6405 14.6501 11.382 15.8575C11.3269 15.9104 11.2619 15.9519 11.1908 15.9797C11.1197 16.0075 11.0438 16.021 10.9675 16.0194C10.8911 16.0179 10.8158 16.0013 10.7459 15.9707C10.676 15.94 10.6128 15.8959 10.5599 15.8408C10.507 15.7857 10.4655 15.7208 10.4377 15.6497C10.4099 15.5786 10.3964 15.5027 10.3979 15.4263C10.3995 15.35 10.4161 15.2747 10.4467 15.2048C10.4773 15.1348 10.5215 15.0716 10.5765 15.0187C11.9587 13.6939 13.6147 12.6883 15.4277 12.073C15.5739 12.0237 15.7336 12.0346 15.8718 12.1031C16.01 12.1717 16.1153 12.2923 16.1645 12.4385C16.2138 12.5847 16.2029 12.7444 16.1344 12.8826C16.0658 13.0208 15.9452 13.1261 15.799 13.1753L15.8006 13.1738Z" fill="#0033E6"/>
<path d="M37.0931 26.5117H2.59687C2.28848 26.5117 1.99272 26.6342 1.77466 26.8523C1.55659 27.0704 1.43408 27.3661 1.43408 27.6745C1.43408 27.9829 1.55659 28.2787 1.77466 28.4967C1.99272 28.7148 2.28848 28.8373 2.59687 28.8373H37.0931C37.4015 28.8373 37.6972 28.7148 37.9153 28.4967C38.1334 28.2787 38.2559 27.9829 38.2559 27.6745C38.2559 27.3661 38.1334 27.0704 37.9153 26.8523C37.6972 26.6342 37.4015 26.5117 37.0931 26.5117Z" fill="#0033E6"/>
</g>
<defs>
<clipPath id="clip0_4462_3086">
<rect width="39.69" height="39.69" fill="white"/>
</clipPath>
</defs>
</svg>
