<svg xmlns="http://www.w3.org/2000/svg" width="39" height="38" viewBox="0 0 39 38" fill="none">
  <path d="M11.4327 0H27.5673C30.5696 0 33.3012 1.22461 35.283 3.19141C37.268 5.1613 38.5 7.87956 38.5 10.8669V27.1362C38.5 30.1174 37.268 32.8325 35.2893 34.8024L35.283 34.8086C33.2981 36.7785 30.5665 38 27.5704 38H11.4327C8.4273 38 5.69257 36.7754 3.71074 34.8086L3.63607 34.7251C1.70092 32.7645 0.5 30.0802 0.5 27.1331V10.8669C0.5 7.87647 1.72892 5.1613 3.71074 3.19141C5.69257 1.22152 8.42419 0 11.4327 0ZM28.9704 9.59277L28.9922 9.62679H35.7124C35.4417 7.87028 34.5986 6.29313 33.3852 5.08398C31.8918 3.59961 29.8322 2.67806 27.5673 2.67806H24.8077L28.9704 9.59277ZM25.8624 9.62679L21.6778 2.67806H12.4998L16.7342 9.62679H25.8624ZM13.6012 9.62679L9.50688 2.90381C8.0104 3.26253 6.66948 4.03255 5.61479 5.08398C4.40142 6.29004 3.5614 7.87028 3.28762 9.62679H13.6012ZM35.8057 12.3049H3.19429V27.1362C3.19429 29.3535 4.09342 31.3729 5.54634 32.8511L5.61479 32.916C7.10815 34.4004 9.17087 35.325 11.4327 35.325H27.5673C29.8322 35.325 31.8918 34.4035 33.3821 32.9222L33.3883 32.916C34.8786 31.4347 35.8057 29.3875 35.8057 27.1362V12.3049ZM16.3515 16.993L24.6988 22.3893C24.8326 22.4759 24.9539 22.5872 25.0504 22.7233C25.4299 23.2707 25.2899 24.0221 24.7392 24.3994L16.4262 29.2762C16.2177 29.4463 15.9501 29.5483 15.6546 29.5483C14.9826 29.5483 14.4381 29.0072 14.4381 28.3392V17.9826H14.4443C14.4443 17.7445 14.5159 17.5033 14.6621 17.293C15.0479 16.7456 15.8039 16.6126 16.3515 16.993Z" fill="url(#paint0_linear_807_6287)"/>
  <defs>
    <linearGradient id="paint0_linear_807_6287" x1="19.5" y1="0" x2="19.5" y2="38" gradientUnits="userSpaceOnUse">
      <stop stopColor="#F23131"/>
      <stop offset="1" stopColor="#F2BC31"/>
    </linearGradient>
  </defs>
</svg>