<svg width="36" height="37" viewBox="0 0 36 37" fill="none" xmlns="http://www.w3.org/2000/svg">
<rect y="0.391113" width="36" height="36" rx="18" fill="#FAE5E2"/>
<path d="M10.5001 17.5579L24.8335 13.3912L24.1668 11.2246C23.9168 10.3912 23.0001 9.89124 22.0835 10.1412L10.8335 13.4746C10.0001 13.7246 9.50012 14.6412 9.75012 15.5579L10.5001 17.5579ZM10.5001 17.5579H25.5001V24.2246C25.5001 24.6666 25.3245 25.0905 25.012 25.4031C24.6994 25.7156 24.2755 25.8912 23.8335 25.8912H12.1668C11.7248 25.8912 11.3008 25.7156 10.9883 25.4031C10.6757 25.0905 10.5001 24.6666 10.5001 24.2246V17.5579ZM13.1668 12.8079L15.7501 16.0579M18.3335 11.2246L20.9168 14.5579" stroke="#DF5D4C" stroke-width="1.5" stroke-linecap="round" stroke-linejoin="round"/>
</svg>
