<svg width="36" height="37" viewBox="0 0 36 37" fill="none" xmlns="http://www.w3.org/2000/svg">
<rect y="0.391113" width="36" height="36" rx="18" fill="#FAE5E2"/>
<path d="M18.0003 10.0576C19.6171 10.0573 21.1991 10.5274 22.5534 11.4104C23.9077 12.2935 24.9759 13.5514 25.6278 15.031C26.2797 16.5105 26.4871 18.1477 26.2247 19.7431C25.9624 21.3385 25.2417 22.8231 24.1503 24.016M18.0003 15.0576V21.7243M21.3337 18.391H14.667M10.0837 15.7868C9.81812 16.594 9.6776 17.4371 9.66699 18.2868M10.3587 21.7243C10.8266 22.8008 11.5166 23.7663 12.3837 24.5576M11.8637 12.7535C12.0962 12.5003 12.3442 12.2618 12.6062 12.0393M15.2037 26.241C17.2817 26.9813 19.5686 26.8674 21.5628 25.9243" stroke="#DF5D4C" stroke-width="1.5" stroke-linecap="round" stroke-linejoin="round"/>
</svg>
