<svg width="10" height="11" viewBox="0 0 10 11" fill="none" xmlns="http://www.w3.org/2000/svg">
<g clip-path="url(#clip0_10539_174656)">
<path d="M0.621151 1.49785C-0.155511 2.30457 0.0034453 3.16154 0.0034453 5.76496C0.0034453 7.92693 -0.373767 10.0943 1.60042 10.6045C2.21689 10.763 7.67905 10.763 8.2947 10.6037C9.11666 10.3916 9.78543 9.72486 9.87685 8.56234C9.88962 8.40009 9.88962 3.13271 9.87644 2.96716C9.77925 1.72887 9.017 1.01522 8.01262 0.870672C7.78242 0.837316 7.7363 0.827433 6.55524 0.825374C2.36596 0.827433 1.44764 0.640886 0.621151 1.49785Z" fill="url(#paint0_linear_10539_174656)"/>
<path d="M4.94556 2.11973C3.4503 2.11973 2.0304 1.98672 1.48806 3.37862C1.26404 3.95349 1.29657 4.7001 1.29657 5.76914C1.29657 6.70723 1.26651 7.5889 1.48806 8.15925C2.02917 9.55197 3.4606 9.41854 4.94474 9.41854C6.37658 9.41854 7.8529 9.56762 8.40183 8.15925C8.62627 7.5786 8.59332 6.84312 8.59332 5.76914C8.59332 4.34347 8.67197 3.42309 7.98056 2.73208C7.28049 2.03202 6.33375 2.11973 4.94392 2.11973H4.94556ZM4.61859 2.77738C7.73759 2.77244 8.13457 2.4257 7.91549 7.24257C7.83766 8.9462 6.54048 8.75924 4.94597 8.75924C2.03864 8.75924 1.95504 8.67606 1.95504 5.76749C1.95504 2.82515 2.18565 2.77903 4.61859 2.77656V2.77738ZM6.89339 3.38315C6.65167 3.38315 6.45565 3.57917 6.45565 3.82089C6.45565 4.06262 6.65167 4.25864 6.89339 4.25864C7.13512 4.25864 7.33114 4.06262 7.33114 3.82089C7.33114 3.57917 7.13512 3.38315 6.89339 3.38315ZM4.94556 3.89502C3.9107 3.89502 3.07186 4.73427 3.07186 5.76914C3.07186 6.804 3.9107 7.64284 4.94556 7.64284C5.98043 7.64284 6.81886 6.804 6.81886 5.76914C6.81886 4.73427 5.98043 3.89502 4.94556 3.89502ZM4.94556 4.55267C6.55366 4.55267 6.55572 6.98561 4.94556 6.98561C3.33788 6.98561 3.33541 4.55267 4.94556 4.55267Z" fill="white"/>
</g>
<defs>
<linearGradient id="paint0_linear_10539_174656" x1="0.640102" y1="10.0774" x2="9.82557" y2="2.12749" gradientUnits="userSpaceOnUse">
<stop stop-color="#FFDD55"/>
<stop offset="0.5" stop-color="#FF543E"/>
<stop offset="1" stop-color="#C837AB"/>
</linearGradient>
<clipPath id="clip0_10539_174656">
<rect width="9.88329" height="9.88329" fill="white" transform="translate(0.00390625 0.827148)"/>
</clipPath>
</defs>
</svg>
