<svg width="28" height="22" viewBox="0 0 28 22" fill="none" xmlns="http://www.w3.org/2000/svg">
<g clip-path="url(#clip0_6771_9225)">
<path d="M18.0644 17.5716H8.72962C6.45879 17.5716 4.61133 15.7241 4.61133 13.4533V9.33726C4.61133 8.80367 4.82212 8.30982 5.20488 7.94669C5.58973 7.5816 6.1121 7.38797 6.63794 7.41577C7.01284 7.4355 7.37339 7.56684 7.68069 7.79551C7.68199 7.79733 11.7302 10.8295 11.732 10.8316C12.7124 11.5794 14.0816 11.5794 15.062 10.8316C15.0711 10.8276 19.1034 7.80086 19.1116 7.79685C20.3584 6.85016 22.1962 7.76661 22.1827 9.33722V13.4532C22.1827 15.7241 20.3352 17.5716 18.0644 17.5716ZM6.53879 8.78592C6.24718 8.79612 5.99294 8.98823 5.98409 9.33726V13.4533C5.98409 14.9672 7.21573 16.1988 8.72962 16.1988H18.0644C19.5783 16.1988 20.8099 14.9672 20.8099 13.4533V9.33726C20.8031 8.97876 20.5271 8.7817 20.2283 8.78661C20.1231 8.79217 20.0237 8.82923 19.933 8.89677L15.8921 11.925C14.4226 13.0441 12.3714 13.0441 10.9019 11.925L6.85923 8.8954C6.76276 8.82368 6.65403 8.78606 6.53879 8.78592ZM20.5354 5.38834V4.11853C20.5354 1.84771 18.6879 0.000244141 16.4171 0.000244141H10.4456C8.17475 0.000244141 6.32728 1.84771 6.32728 4.11853V5.38834C6.36009 6.29748 7.66799 6.29676 7.70004 5.38834V4.11853C7.70004 2.60465 8.93169 1.37301 10.4456 1.37301H16.4171C17.931 1.37301 19.1626 2.60465 19.1626 4.11853V5.38834C19.1941 6.29536 20.5019 6.29937 20.5354 5.38834ZM14.5351 8.71749C14.3471 8.71749 14.1581 8.6725 13.9832 8.58131L13.4656 8.31153L12.9481 8.58131C12.5434 8.79217 12.0633 8.7561 11.6949 8.48707C11.3289 8.21976 11.1495 7.77691 11.2266 7.33128L11.324 6.76772L10.9099 6.36749C10.5831 6.05159 10.4666 5.58698 10.6062 5.155C10.7464 4.72131 11.1146 4.41141 11.5671 4.3462L12.1442 4.26305L12.4013 3.74668C12.8206 2.87529 14.1108 2.87553 14.5299 3.74672C14.5299 3.74668 14.787 4.26305 14.787 4.26305L15.3641 4.3462C15.8166 4.41141 16.1848 4.72131 16.325 5.155C16.4645 5.58698 16.3482 6.05159 16.0212 6.36756L15.6072 6.76776L15.7046 7.33138C15.8447 8.03688 15.246 8.73167 14.5351 8.71749ZM12.1431 5.65019L12.3505 5.85065C12.6323 6.12304 12.7608 6.51586 12.6941 6.90146L12.6439 7.19187L12.9149 7.05058C13.2598 6.87085 13.6715 6.87089 14.0164 7.05058L14.2874 7.19187L14.2372 6.90143C14.1705 6.51589 14.2989 6.12307 14.5808 5.85065L14.7882 5.65023L14.4961 5.60812C14.1095 5.55242 13.7752 5.31108 13.6017 4.96251L13.4656 4.68912L13.3295 4.96254C13.1561 5.31108 12.8217 5.55242 12.4352 5.60812L12.1431 5.65019Z" fill="#24242E"/>
</g>
<rect x="0.111328" y="15" width="27" height="7" rx="2" fill="#24242E"/>
<path d="M3.41317 16.6364V21H2.49059V16.6364H3.41317ZM7.82209 16.6364V21H7.02521L5.12678 18.2536H5.09482V21H4.17223V16.6364H4.98189L6.86541 19.3807H6.90376V16.6364H7.82209ZM9.37269 16.6364L10.4274 19.9517H10.4679L11.5247 16.6364H12.5474L11.0431 21H9.85423L8.34783 16.6364H9.37269ZM13.9952 16.6364V21H13.0726V16.6364H13.9952ZM14.5881 17.397V16.6364H18.1719V17.397H16.8359V21H15.924V17.397H14.5881ZM18.7621 21V16.6364H21.7024V17.397H19.6847V18.4368H21.5511V19.1974H19.6847V20.2393H21.7109V21H18.7621ZM24.8031 17.8913C24.786 17.7195 24.7129 17.5859 24.5836 17.4908C24.4544 17.3956 24.2789 17.348 24.0574 17.348C23.9068 17.348 23.7797 17.3693 23.676 17.4119C23.5723 17.4531 23.4927 17.5107 23.4373 17.5845C23.3833 17.6584 23.3564 17.7422 23.3564 17.8359C23.3535 17.9141 23.3699 17.9822 23.4054 18.0405C23.4423 18.0987 23.4927 18.1491 23.5566 18.1918C23.6206 18.233 23.6944 18.2692 23.7782 18.3004C23.862 18.3303 23.9515 18.3558 24.0467 18.3771L24.4387 18.4709C24.6291 18.5135 24.8038 18.5703 24.9629 18.6413C25.122 18.7124 25.2598 18.7997 25.3762 18.9034C25.4927 19.0071 25.5829 19.1293 25.6468 19.2699C25.7122 19.4105 25.7456 19.5717 25.747 19.7536C25.7456 20.0206 25.6774 20.2521 25.5424 20.4482C25.4089 20.6428 25.2157 20.794 24.9629 20.902C24.7115 21.0085 24.4082 21.0618 24.0531 21.0618C23.7008 21.0618 23.394 21.0078 23.1326 20.8999C22.8727 20.7919 22.6696 20.6321 22.5233 20.4205C22.3784 20.2074 22.3024 19.9439 22.2953 19.63H23.188C23.198 19.7763 23.2399 19.8984 23.3137 19.9964C23.389 20.093 23.4892 20.1662 23.6142 20.2159C23.7406 20.2642 23.8833 20.2884 24.0424 20.2884C24.1987 20.2884 24.3343 20.2656 24.4494 20.2202C24.5659 20.1747 24.6561 20.1115 24.72 20.0305C24.7839 19.9496 24.8159 19.8565 24.8159 19.7514C24.8159 19.6534 24.7868 19.571 24.7285 19.5043C24.6717 19.4375 24.5879 19.3807 24.4771 19.3338C24.3677 19.2869 24.2335 19.2443 24.0744 19.206L23.5993 19.0866C23.2314 18.9972 22.9409 18.8572 22.7278 18.6669C22.5147 18.4766 22.4089 18.2202 22.4103 17.8977C22.4089 17.6335 22.4792 17.4027 22.6213 17.2053C22.7647 17.0078 22.9615 16.8537 23.2115 16.7429C23.4615 16.6321 23.7456 16.5767 24.0637 16.5767C24.3876 16.5767 24.6703 16.6321 24.9118 16.7429C25.1547 16.8537 25.3436 17.0078 25.4785 17.2053C25.6135 17.4027 25.6831 17.6314 25.6873 17.8913H24.8031Z" fill="white"/>
<defs>
<clipPath id="clip0_6771_9225">
<rect width="17.5714" height="17.5714" fill="white" transform="translate(4.61133)"/>
</clipPath>
</defs>
</svg>
