<svg width="24" height="24" viewBox="0 0 24 24" fill="none" xmlns="http://www.w3.org/2000/svg">
<path d="M12 1.82812C14.3476 1.82859 16.6228 2.64082 18.4399 4.12713C20.257 5.61345 21.5043 7.68239 21.9702 9.98325C22.4362 12.2841 22.0922 14.6753 20.9965 16.7515C19.9009 18.8277 18.121 20.4612 15.9586 21.375C13.4722 22.4249 10.6706 22.444 8.17002 21.4283C5.66949 20.4125 3.67488 18.445 2.625 15.9586C1.57512 13.4722 1.55595 10.6706 2.57173 8.17002C3.5875 5.66949 5.555 3.67488 8.04141 2.625C9.29385 2.09563 10.6403 1.82459 12 1.82812ZM12 0C5.37281 0 0 5.37281 0 12C0 18.6272 5.37281 24 12 24C18.6272 24 24 18.6272 24 12C24 5.37281 18.6272 0 12 0Z" fill="#A2A2A2"/>
<path d="M14.1792 11.2566H9.82034C9.40975 11.2566 9.0769 11.5894 9.0769 12C9.0769 12.4106 9.40975 12.7435 9.82034 12.7435H14.1792C14.5898 12.7435 14.9227 12.4106 14.9227 12C14.9227 11.5894 14.5898 11.2566 14.1792 11.2566Z" fill="#A2A2A2"/>
<path d="M14.2597 7.69739H14.2227C14.0255 7.69739 13.8364 7.77571 13.697 7.91514C13.5576 8.05456 13.4792 8.24365 13.4792 8.44083C13.4794 8.63796 13.5577 8.82698 13.6971 8.96638C13.8365 9.10577 14.0256 9.18414 14.2227 9.18426H14.2288C15.7827 9.18426 17.0666 10.4297 17.0755 11.9836C17.0772 12.3547 17.0057 12.7224 16.865 13.0657C16.7243 13.409 16.5172 13.7212 16.2556 13.9843C15.994 14.2475 15.6831 14.4564 15.3406 14.599C14.9981 14.7417 14.6308 14.8154 14.2597 14.8158H14.2227C14.0256 14.8159 13.8365 14.8943 13.6971 15.0337C13.5577 15.1731 13.4794 15.3621 13.4792 15.5593C13.4792 15.7564 13.5576 15.9455 13.697 16.085C13.8364 16.2244 14.0255 16.3027 14.2227 16.3027H14.2597C15.4009 16.3027 16.4952 15.8494 17.3022 15.0425C18.1091 14.2356 18.5624 13.1412 18.5624 12C18.5624 10.8589 18.1091 9.76451 17.3022 8.95761C16.4952 8.1507 15.4009 7.69739 14.2597 7.69739Z" fill="#A2A2A2"/>
<path d="M9.77719 14.8158H9.77109C8.21719 14.8158 6.93328 13.5704 6.92438 12.0164C6.92259 11.6454 6.99408 11.2777 7.13475 10.9343C7.27542 10.5909 7.4825 10.2787 7.74411 10.0156C8.00572 9.75247 8.31671 9.54358 8.65924 9.40092C9.00177 9.25825 9.3691 9.18463 9.74016 9.18426H9.77719C9.97432 9.18414 10.1633 9.10577 10.3027 8.96638C10.4421 8.82698 10.5205 8.63796 10.5206 8.44083C10.5206 8.3432 10.5014 8.24652 10.464 8.15632C10.4267 8.06613 10.3719 7.98417 10.3029 7.91514C10.2338 7.8461 10.1519 7.79134 10.0617 7.75398C9.97149 7.71662 9.87482 7.69739 9.77719 7.69739H9.74016C8.59902 7.69739 7.50462 8.1507 6.69772 8.95761C5.89081 9.76451 5.4375 10.8589 5.4375 12C5.4375 13.1412 5.89081 14.2356 6.69772 15.0425C7.50462 15.8494 8.59902 16.3027 9.74016 16.3027H9.77719C9.97436 16.3027 10.1635 16.2244 10.3029 16.085C10.4423 15.9455 10.5206 15.7564 10.5206 15.5593C10.5205 15.3621 10.4421 15.1731 10.3027 15.0337C10.1633 14.8943 9.97432 14.8159 9.77719 14.8158Z" fill="#A2A2A2"/>
</svg>
