<svg width="16" height="16" viewBox="0 0 16 16" fill="none" xmlns="http://www.w3.org/2000/svg">
<g clip-path="url(#clip0_10539_191526)">
<path fill-rule="evenodd" clip-rule="evenodd" d="M14.4672 1.74995C15.8161 3.09886 15.8161 5.30619 14.4672 6.65512L11.5815 9.54089C9.87874 11.2436 6.98402 10.744 6.05674 8.62038C7.07476 7.73559 7.57116 8.02178 8.5411 8.43208C9.11207 8.67354 9.78187 8.54427 10.2454 8.0807L13.0643 5.26186C13.6739 4.65217 13.674 3.65453 13.0643 3.04484C12.4548 2.4353 11.4566 2.43575 10.8474 3.04484L8.82551 5.06684C8.15653 4.74524 7.40382 4.64993 6.68515 4.78118C6.83292 4.53074 7.01179 4.30002 7.21751 4.0945L9.56205 1.74998C10.911 0.401109 13.1183 0.400996 14.4672 1.74995ZM1.96675 14.2504L1.96678 14.2504C3.31574 15.5993 5.52299 15.5993 6.87189 14.2504L9.30241 11.8199C9.51554 11.607 9.69984 11.3671 9.8506 11.1063C9.05985 11.3034 8.21202 11.2201 7.46972 10.8565L5.47859 12.8476C4.8695 13.4566 3.87139 13.4572 3.26175 12.8476C2.65209 12.2379 2.65207 11.2403 3.26175 10.6307L6.08071 7.81173C6.65834 7.23409 7.81114 7.06185 8.68243 7.85961C9.52574 7.77074 9.85327 7.60964 10.3771 7.10809C9.25952 5.13727 6.47364 4.83837 4.85248 6.45954L1.96675 9.34527C0.617853 10.6942 0.617853 12.9015 1.96675 14.2504Z" fill="#FCF2FD"/>
</g>
<defs>
<clipPath id="clip0_10539_191526">
<rect width="14.5238" height="14.5238" fill="white" transform="translate(0.955078 0.738281)"/>
</clipPath>
</defs>
</svg>
