<svg width="24" height="24" viewBox="0 0 24 24" fill="none" xmlns="http://www.w3.org/2000/svg">
<path d="M12 0C5.37281 0 0 5.37281 0 12C0 18.6272 5.37281 24 12 24C18.6272 24 24 18.6272 24 12C24 5.37281 18.6272 0 12 0ZM9.77719 16.3027H9.74016C8.59902 16.3027 7.50462 15.8493 6.69772 15.0424C5.89081 14.2355 5.4375 13.1411 5.4375 12C5.4375 10.8589 5.89081 9.76447 6.69772 8.95756C7.50462 8.15066 8.59902 7.69734 9.74016 7.69734H9.77719C9.97436 7.69734 10.1635 7.77567 10.3029 7.91509C10.4423 8.05451 10.5206 8.24361 10.5206 8.44078C10.5206 8.63795 10.4423 8.82705 10.3029 8.96647C10.1635 9.10589 9.97436 9.18422 9.77719 9.18422H9.74016C9.3691 9.18458 9.00177 9.25821 8.65924 9.40087C8.31671 9.54354 8.00572 9.75243 7.74411 10.0156C7.4825 10.2787 7.27542 10.5909 7.13475 10.9343C6.99408 11.2776 6.92259 11.6454 6.92438 12.0164C6.93328 13.5703 8.21719 14.8158 9.77109 14.8158H9.77719C9.97436 14.8158 10.1635 14.8941 10.3029 15.0335C10.4423 15.173 10.5206 15.362 10.5206 15.5592C10.5206 15.7564 10.4423 15.9455 10.3029 16.0849C10.1635 16.2243 9.97436 16.3027 9.77719 16.3027ZM9.82031 12.7434C9.62318 12.7433 9.43415 12.6649 9.29476 12.5256C9.15536 12.3862 9.077 12.1971 9.07687 12C9.077 11.8029 9.15536 11.6138 9.29476 11.4744C9.43415 11.3351 9.62318 11.2567 9.82031 11.2566H14.1797C14.3768 11.2567 14.5658 11.3351 14.7052 11.4744C14.8446 11.6138 14.923 11.8029 14.9231 12C14.923 12.1971 14.8446 12.3862 14.7052 12.5256C14.5658 12.6649 14.3768 12.7433 14.1797 12.7434H9.82031ZM18.5625 12C18.5625 13.1411 18.1092 14.2355 17.3023 15.0424C16.4954 15.8493 15.401 16.3027 14.2598 16.3027H14.2228C14.0256 16.3027 13.8365 16.2243 13.6971 16.0849C13.5577 15.9455 13.4794 15.7564 13.4794 15.5592C13.4794 15.362 13.5577 15.173 13.6971 15.0335C13.8365 14.8941 14.0256 14.8158 14.2228 14.8158H14.2598C14.6309 14.8154 14.9982 14.7417 15.3407 14.599C15.6832 14.4563 15.9942 14.2474 16.2558 13.9843C16.5174 13.7212 16.7244 13.409 16.8651 13.0657C17.0058 12.7223 17.0774 12.3546 17.0756 11.9836C17.0667 10.4297 15.7828 9.18422 14.2289 9.18422H14.2228C14.0256 9.18422 13.8365 9.10589 13.6971 8.96647C13.5577 8.82705 13.4794 8.63795 13.4794 8.44078C13.4794 8.24361 13.5577 8.05451 13.6971 7.91509C13.8365 7.77567 14.0256 7.69734 14.2228 7.69734H14.2598C15.401 7.69734 16.4954 8.15066 17.3023 8.95756C18.1092 9.76447 18.5625 10.8589 18.5625 12Z" fill="#1A47E8"/>
</svg>
