<svg width="11" height="11" viewBox="0 0 11 11" fill="none" xmlns="http://www.w3.org/2000/svg">
<g clip-path="url(#clip0_40001265_28342)">
<path d="M4.85988 6.25089C4.90173 6.25089 4.94009 6.24391 4.97497 6.22996C5.00984 6.21601 5.04472 6.1916 5.0796 6.15672L6.64904 4.58728C6.70484 4.53147 6.73275 4.45823 6.73275 4.36756C6.73275 4.27688 6.70484 4.20015 6.64904 4.13737C6.58626 4.08157 6.50954 4.05367 6.41886 4.05367C6.32818 4.05367 6.25494 4.08157 6.19913 4.13737L4.85988 5.47663L4.39951 5.01626C4.3437 4.96046 4.27046 4.93255 4.17978 4.93255C4.0891 4.93255 4.01586 4.96046 3.96006 5.01626C3.89728 5.07904 3.86589 5.15576 3.86589 5.24644C3.86589 5.33712 3.89728 5.41036 3.96006 5.46617L4.64015 6.15672C4.67503 6.1916 4.70991 6.21601 4.74478 6.22996C4.77966 6.24391 4.81802 6.25089 4.85988 6.25089ZM5.29932 9.327C6.22704 8.48299 6.91236 7.71745 7.35529 7.03038C7.79822 6.34331 8.01969 5.7382 8.01969 5.21505C8.01969 4.39197 7.75637 3.71885 7.22974 3.1957C6.7031 2.67255 6.05963 2.41098 5.29932 2.41098C4.53901 2.41098 3.89554 2.67255 3.3689 3.1957C2.84227 3.71885 2.57895 4.39197 2.57895 5.21505C2.57895 5.7382 2.80565 6.34331 3.25904 7.03038C3.71244 7.71745 4.39253 8.48299 5.29932 9.327ZM5.29932 10.028C5.25747 10.028 5.21562 10.021 5.17376 10.0071C5.13191 9.99314 5.09355 9.97222 5.05867 9.94431C4.01935 9.03055 3.2416 8.18305 2.72543 7.40181C2.20926 6.62058 1.95117 5.89166 1.95117 5.21505C1.95117 4.16876 2.28773 3.33521 2.96085 2.71441C3.63397 2.0936 4.41346 1.7832 5.29932 1.7832C6.18518 1.7832 6.96467 2.0936 7.63779 2.71441C8.31091 3.33521 8.64747 4.16876 8.64747 5.21505C8.64747 5.89166 8.38938 6.62058 7.87321 7.40181C7.35704 8.18305 6.57929 9.03055 5.53997 9.94431C5.50509 9.97222 5.46847 9.99314 5.43011 10.0071C5.39174 10.021 5.34815 10.028 5.29932 10.028Z" fill="#1E75E5"/>
</g>
<defs>
<clipPath id="clip0_40001265_28342">
<rect width="10.0444" height="10.0444" fill="white" transform="translate(0.277344 0.945312)"/>
</clipPath>
</defs>
</svg>
