<svg width="14" height="14" viewBox="0 0 14 14" fill="none" xmlns="http://www.w3.org/2000/svg">
<g clip-path="url(#clip0_40001265_28198)">
<path d="M9.15612 1.10122C11.066 1.95792 12.401 3.9179 12.401 6.19886C12.401 7.05062 12.2111 7.85574 11.8822 8.57895C11.2651 9.93577 9.80868 11.3638 9.80868 11.3638C8.80918 12.4254 7.64413 13.511 7.19242 13.926C7.0835 14.026 6.91627 14.0257 6.80783 13.9251C5.99823 13.1741 2.86999 10.211 2.11748 8.57895C1.78481 7.85742 1.59863 7.0506 1.59863 6.19886C1.59863 3.12907 4.01683 0.640625 6.99983 0.640625C7.22071 0.640625 7.43846 0.654272 7.65239 0.680772" fill="#FF8086"/>
<path d="M9.15541 1.10122L7.65168 0.680772C7.43775 0.654272 7.22 0.640625 6.99912 0.640625C6.80678 0.640625 6.61683 0.651151 6.42969 0.671352C6.45874 0.674473 6.48788 0.677197 6.51679 0.6808L8.02052 1.10125C9.93037 1.95795 11.2654 3.91793 11.2654 6.19889C11.2654 7.05065 11.0755 7.85577 10.7466 8.57898C10.1295 9.93577 8.67308 11.3638 8.67308 11.3638C7.88663 12.1991 6.99793 13.049 6.43462 13.5757C6.58545 13.7186 6.71233 13.8372 6.80712 13.9251C6.91556 14.0257 7.08279 14.026 7.19171 13.926C7.64342 13.511 8.80847 12.4254 9.80797 11.3638C9.80797 11.3638 11.2644 9.93577 11.8815 8.57895C12.2104 7.85574 12.4003 7.05065 12.4003 6.19886C12.4003 3.9179 11.0653 1.95792 9.15541 1.10122Z" fill="#E5646E"/>
<path d="M6.9998 10.1879C9.12038 10.1879 10.8394 8.42187 10.8394 6.24336C10.8394 4.06486 9.12038 2.29883 6.9998 2.29883C4.87922 2.29883 3.16016 4.06486 3.16016 6.24336C3.16016 8.42187 4.87922 10.1879 6.9998 10.1879Z" fill="#C3DDFF"/>
<path d="M5.10928 5.99211C4.99176 5.99211 4.89648 5.89686 4.89648 5.77931V4.66006C4.89648 4.54251 4.99176 4.44727 5.10928 4.44727C5.22679 4.44727 5.32207 4.54251 5.32207 4.66006V5.77931C5.32207 5.89683 5.22679 5.99211 5.10928 5.99211Z" fill="#857E87"/>
<path d="M5.98135 5.99114C5.86383 5.99114 5.76855 5.89589 5.76855 5.77835V3.7499C5.76855 3.63235 5.86383 3.53711 5.98135 3.53711C6.09886 3.53711 6.19414 3.63235 6.19414 3.7499V5.77835C6.19414 5.89586 6.09886 5.99114 5.98135 5.99114Z" fill="#857E87"/>
<path d="M9.15768 1.62468H7.67969V0.141861C7.67969 0.0635255 7.74321 0 7.82155 0H9.01582C9.09416 0 9.15768 0.0635255 9.15768 0.141861V1.62468Z" fill="#DFDDE0"/>
<path d="M9.01523 0H8.16406C8.2424 0 8.30592 0.0635255 8.30592 0.141861V1.62468H9.15709V0.141861C9.15709 0.0635255 9.09359 0 9.01523 0Z" fill="#C8C5C9"/>
<path d="M7.05988 10.1875V5.92897C7.05988 5.85063 6.99635 5.78711 6.91802 5.78711H4.28737C4.20903 5.78711 4.14551 5.85063 4.14551 5.92897V8.87478C4.14551 8.87478 5.21917 10.2221 7.05988 10.1875Z" fill="#857E87"/>
<path d="M6.91757 5.78711H6.06641C6.14474 5.78711 6.20827 5.85063 6.20827 5.92897V10.1029C6.47 10.1608 6.75409 10.1932 7.05943 10.1875V5.92897C7.05943 5.85063 6.99594 5.78711 6.91757 5.78711Z" fill="#5D5360"/>
<path d="M7.01177 10.1876L6.9834 1.71022C6.9834 1.63188 7.04692 1.56836 7.12526 1.56836H9.71193C9.79026 1.56836 9.85379 1.63188 9.85379 1.71022V8.88275C9.85379 8.88275 8.82081 10.1843 7.01177 10.1876Z" fill="white"/>
<path d="M9.71222 1.56836H8.86105C8.93939 1.56836 9.00291 1.63188 9.00291 1.71022V8.70242C9.00291 8.82553 8.95428 8.9433 8.86817 9.03128C8.60561 9.29957 7.96633 9.85825 7.01172 10.0868L7.01206 10.1875C8.8211 10.1843 9.85408 8.88272 9.85408 8.88272V1.71022C9.85408 1.63186 9.79055 1.56836 9.71222 1.56836Z" fill="#F0EEF0"/>
<path d="M8.83667 3.34746H8.00088C7.88336 3.34746 7.78809 3.25221 7.78809 3.13467C7.78809 3.01712 7.88336 2.92188 8.00088 2.92188H8.83667C8.95419 2.92188 9.04946 3.01712 9.04946 3.13467C9.04946 3.25221 8.95419 3.34746 8.83667 3.34746Z" fill="#C3DDFF"/>
<path d="M8.83667 5.00371H8.00088C7.88336 5.00371 7.78809 4.90846 7.78809 4.79092C7.78809 4.67337 7.88336 4.57812 8.00088 4.57812H8.83667C8.95419 4.57812 9.04946 4.67337 9.04946 4.79092C9.04946 4.90846 8.95419 5.00371 8.83667 5.00371Z" fill="#C3DDFF"/>
<path d="M8.83667 6.65801H8.00088C7.88336 6.65801 7.78809 6.56276 7.78809 6.44521C7.78809 6.32767 7.88336 6.23242 8.00088 6.23242H8.83667C8.95419 6.23242 9.04946 6.32767 9.04946 6.44521C9.04946 6.56276 8.95419 6.65801 8.83667 6.65801Z" fill="#C3DDFF"/>
<path d="M8.83667 8.3123H8.00088C7.88336 8.3123 7.78809 8.21706 7.78809 8.09951C7.78809 7.98196 7.88336 7.88672 8.00088 7.88672H8.83667C8.95419 7.88672 9.04946 7.98196 9.04946 8.09951C9.04946 8.21706 8.95419 8.3123 8.83667 8.3123Z" fill="#C3DDFF"/>
<path d="M5.07803 7.51817C4.96051 7.51817 4.86523 7.42292 4.86523 7.30538V6.86904C4.86523 6.7515 4.96051 6.65625 5.07803 6.65625C5.19554 6.65625 5.29082 6.7515 5.29082 6.86904V7.30538C5.29082 7.42292 5.19554 7.51817 5.07803 7.51817Z" fill="white"/>
<path d="M5.07803 9.05335C4.96051 9.05335 4.86523 8.95811 4.86523 8.84056V8.4042C4.86523 8.28665 4.96051 8.19141 5.07803 8.19141C5.19554 8.19141 5.29082 8.28665 5.29082 8.4042V8.84056C5.29082 8.95808 5.19554 9.05335 5.07803 9.05335Z" fill="white"/>
<path d="M6.01455 7.51817C5.89703 7.51817 5.80176 7.42292 5.80176 7.30538V6.86904C5.80176 6.7515 5.89703 6.65625 6.01455 6.65625C6.13207 6.65625 6.22734 6.7515 6.22734 6.86904V7.30538C6.22734 7.42292 6.13207 7.51817 6.01455 7.51817Z" fill="white"/>
<path d="M6.01455 9.05335C5.89703 9.05335 5.80176 8.95811 5.80176 8.84056V8.4042C5.80176 8.28665 5.89703 8.19141 6.01455 8.19141C6.13207 8.19141 6.22734 8.28665 6.22734 8.4042V8.84056C6.22734 8.95808 6.13207 9.05335 6.01455 9.05335Z" fill="white"/>
</g>
<defs>
<clipPath id="clip0_40001265_28198">
<rect width="14" height="14" fill="white"/>
</clipPath>
</defs>
</svg>
