<svg width="25" height="24" viewBox="0 0 25 24" fill="none" xmlns="http://www.w3.org/2000/svg">
<mask id="mask0_1680_30442" style="mask-type:alpha" maskUnits="userSpaceOnUse" x="0" y="0" width="25" height="24">
<rect x="0.5" width="24" height="24" fill="#D9D9D9"/>
</mask>
<g mask="url(#mask0_1680_30442)">
<path d="M12.5 13.9992C11.6667 13.9992 10.9583 13.7075 10.375 13.1242C9.79167 12.5409 9.5 11.8325 9.5 10.9992V4.99921C9.5 4.16587 9.79167 3.45754 10.375 2.87421C10.9583 2.29087 11.6667 1.99921 12.5 1.99921C13.3333 1.99921 14.0417 2.29087 14.625 2.87421C15.2083 3.45754 15.5 4.16587 15.5 4.99921V10.9992C15.5 11.8325 15.2083 12.5409 14.625 13.1242C14.0417 13.7075 13.3333 13.9992 12.5 13.9992ZM11.5 20.9992V17.9242C9.76667 17.6909 8.33333 16.9159 7.2 15.5992C6.06667 14.2825 5.5 12.7492 5.5 10.9992H7.5C7.5 12.3825 7.9875 13.5617 8.9625 14.5367C9.9375 15.5117 11.1167 15.9992 12.5 15.9992C13.8833 15.9992 15.0625 15.5117 16.0375 14.5367C17.0125 13.5617 17.5 12.3825 17.5 10.9992H19.5C19.5 12.7492 18.9333 14.2825 17.8 15.5992C16.6667 16.9159 15.2333 17.6909 13.5 17.9242V20.9992H11.5ZM12.5 11.9992C12.7833 11.9992 13.0208 11.9034 13.2125 11.7117C13.4042 11.52 13.5 11.2825 13.5 10.9992V4.99921C13.5 4.71587 13.4042 4.47837 13.2125 4.28671C13.0208 4.09504 12.7833 3.99921 12.5 3.99921C12.2167 3.99921 11.9792 4.09504 11.7875 4.28671C11.5958 4.47837 11.5 4.71587 11.5 4.99921V10.9992C11.5 11.2825 11.5958 11.52 11.7875 11.7117C11.9792 11.9034 12.2167 11.9992 12.5 11.9992Z" fill="#B5B5C5"/>
</g>
</svg>
