<svg
    xmlns="http://www.w3.org/2000/svg"
    width="15"
    height="14"
    viewBox="0 0 15 14"
    fill="none"
  >
    <g clipPath="url(#clip0_5524_68932)">
      <path
        d="M7.99922 0.648804H0.90542C0.405381 0.648804 0 1.02716 0 1.49389V8.93202C0 9.39875 0.405381 9.77708 0.90542 9.77708H1.388C1.47135 9.77708 1.53891 9.84013 1.53891 9.91792V11.2725C1.53891 11.4509 1.78611 11.5218 1.89343 11.3741L3.0094 9.83885C3.0375 9.80021 3.08426 9.77708 3.1343 9.77708H7.99922C8.49929 9.77708 8.90464 9.39872 8.90464 8.93202V1.49389C8.90464 1.02716 8.49926 0.648804 7.99922 0.648804Z"
        fill="#FFF3BE"
      />
      <path
        d="M7.99916 0.648804H7.99907V8.08685C7.99907 8.55358 7.59369 8.93191 7.09365 8.93191H2.45253C2.26251 8.93191 2.08482 9.01979 1.97815 9.16657L1.5 9.82438C1.52388 9.84929 1.53885 9.88186 1.53885 9.91792V11.2725C1.53885 11.4509 1.78605 11.5218 1.89337 11.3741L3.00935 9.83885C3.03744 9.80021 3.0842 9.77708 3.13421 9.77708H7.99916C8.49923 9.77708 8.90458 9.39872 8.90458 8.93202V1.49389C8.90458 1.02716 8.4992 0.648804 7.99916 0.648804Z"
        fill="#FFE791"
      />
      <path
        d="M4.45255 8.16345C6.19915 8.16345 7.61506 6.84194 7.61506 5.21178C7.61506 3.58161 6.19915 2.2601 4.45255 2.2601C2.70594 2.2601 1.29004 3.58161 1.29004 5.21178C1.29004 6.84194 2.70594 8.16345 4.45255 8.16345Z"
        fill="#FFE177"
      />
      <path
        d="M4.85193 4.95609C4.78622 4.9344 4.71898 4.91165 4.65192 4.88797V3.88897C4.82058 3.92668 4.92107 4.00627 4.92977 4.01338C5.02173 4.09107 5.16379 4.0853 5.24808 3.99998C5.33284 3.91421 5.32707 3.78055 5.23516 3.70145C5.22227 3.69037 5.00597 3.50856 4.65195 3.45893V3.25487C4.65195 3.13816 4.55061 3.04361 4.4256 3.04361C4.30059 3.04361 4.19925 3.13819 4.19925 3.25487V3.47512C4.16565 3.48201 4.13158 3.48997 4.09674 3.49976C3.77295 3.59081 3.53099 3.84946 3.46531 4.17474C3.40542 4.47134 3.50723 4.75738 3.731 4.9212C3.84959 5.00801 3.99716 5.0875 4.19925 5.17147V6.43828C4.02458 6.42625 3.90321 6.3863 3.70478 6.26517C3.60013 6.20132 3.45986 6.22864 3.39145 6.32631C3.32301 6.42393 3.35234 6.55488 3.45696 6.61875C3.74635 6.79542 3.94399 6.84808 4.19925 6.86151V7.08999C4.19925 7.2067 4.30059 7.30125 4.4256 7.30125C4.55061 7.30125 4.65195 7.20667 4.65195 7.08999V6.84475C5.15981 6.75175 5.45644 6.36087 5.52221 5.99578C5.6067 5.52642 5.34362 5.11832 4.85193 4.95609ZM4.01032 4.58872C3.92005 4.52266 3.88165 4.39398 3.91009 4.253C3.93561 4.12664 4.02497 3.97483 4.19917 3.91344V4.70138C4.12812 4.66539 4.06381 4.62788 4.01032 4.58872ZM5.07573 5.92578C5.04089 6.11918 4.89658 6.3242 4.65192 6.40588V5.33805C4.66824 5.34352 4.68423 5.34893 4.70105 5.35448C5.11932 5.49246 5.09357 5.82663 5.07573 5.92578Z"
        fill="#FEB237"
      />
      <path
        d="M14.0948 2.55164H7.30288C6.80281 2.55164 6.39746 2.92999 6.39746 3.39669V10.8348C6.39746 11.3016 6.80284 11.6799 7.30288 11.6799H11.87C11.92 11.6799 11.9668 11.703 11.9949 11.7417L13.1068 13.2715C13.2141 13.4191 13.4613 13.3482 13.4613 13.1698V11.8208C13.4613 11.743 13.5289 11.6799 13.6123 11.6799H14.0948C14.5949 11.6799 15.0003 11.3016 15.0003 10.8349V3.39669C15.0003 2.92996 14.5949 2.55164 14.0948 2.55164Z"
        fill="#9BE69D"
      />
      <path
        d="M14.0951 2.55164H14.095V9.98968C14.095 10.4564 13.6896 10.8347 13.1896 10.8347H13.001C12.7553 10.8347 12.5561 11.0207 12.5561 11.25V12.3247C12.5561 12.3742 12.5367 12.415 12.5068 12.4456L13.1071 13.2715C13.2144 13.4191 13.4617 13.3482 13.4617 13.1698V11.8208C13.4617 11.743 13.5292 11.6799 13.6126 11.6799H14.0951C14.5952 11.6799 15.0006 11.3016 15.0006 10.8349V3.39669C15.0005 2.92996 14.5951 2.55164 14.0951 2.55164Z"
        fill="#6FD7A3"
      />
      <path
        d="M10.699 9.64057C12.1912 9.64057 13.4009 8.51153 13.4009 7.11879C13.4009 5.72605 12.1912 4.59702 10.699 4.59702C9.20675 4.59702 7.99707 5.72605 7.99707 7.11879C7.99707 8.51153 9.20675 9.64057 10.699 9.64057Z"
        fill="#F2FDEC"
      />
      <path
        d="M9.6161 7.04327C9.53002 6.95866 9.38679 6.95522 9.29609 7.0355C9.20541 7.11586 9.20172 7.24957 9.2878 7.3342L10.1139 8.14631C10.1567 8.18834 10.2161 8.2121 10.2781 8.2121C10.2791 8.2121 10.2801 8.2121 10.2811 8.21207C10.3442 8.21131 10.4041 8.18596 10.4463 8.14221L12.1011 6.42677C12.1847 6.34004 12.1772 6.20646 12.0843 6.1284C11.9914 6.05036 11.8483 6.05736 11.7647 6.14404L10.2737 7.68967L9.6161 7.04327Z"
        fill="#6FD7A3"
      />
    </g>
    <defs>
      <clipPath id="clip0_5524_68932">
        <rect width="15" height="14" fill="white" />
      </clipPath>
    </defs>
  </svg>