<svg
    xmlns="http://www.w3.org/2000/svg"
    width="20"
    height="20"
    viewBox="0 0 20 20"
    fill="none"
  >
    <path
      fillRule="evenodd"
      clipRule="evenodd"
      d="M17.9078 4.7002C18.2272 4.7002 18.485 4.95848 18.485 5.2759V6.38863C18.485 6.70605 18.2271 6.96434 17.9078 6.96434L14.4115 7.72207L10.1932 6.96434H9.16313C8.84488 6.96434 8.58594 6.70605 8.58594 6.38863V5.2759C8.58594 4.95848 8.84488 4.7002 9.16313 4.7002H17.9078Z"
      fill="#FEB237"
    />
    <path
      fillRule="evenodd"
      clipRule="evenodd"
      d="M18.938 9.22736L15.6688 10.2309L9.6607 8.87467C9.63219 8.80639 9.61621 8.73131 9.61621 8.65166V7.53893C9.61621 7.2215 9.87402 6.96436 10.1934 6.96436H17.908H18.938C19.2563 6.96436 19.5141 7.2215 19.5141 7.53893V8.65166C19.5141 8.97022 19.2563 9.22736 18.938 9.22736Z"
      fill="#FFD15B"
    />
    <path
      fillRule="evenodd"
      clipRule="evenodd"
      d="M18.2627 7.72213C18.581 7.72213 18.8399 7.80404 18.8399 8.12147V9.22736H18.938C19.2563 9.22736 19.5141 8.97022 19.5141 8.65166V7.53893C19.5141 7.2215 19.2563 6.96436 18.938 6.96436H17.908H10.1934C9.87399 6.96436 9.61621 7.2215 9.61621 7.53893V7.72209H17.2338L18.2627 7.72213Z"
      fill="#FFC344"
    />
    <path
      fillRule="evenodd"
      clipRule="evenodd"
      d="M16.9668 4.7002C17.285 4.7002 17.544 4.95848 17.544 5.2759V6.38863C17.544 6.70605 17.285 6.96434 16.9668 6.96434H17.9079C18.2273 6.96434 18.4851 6.70605 18.4851 6.38863V5.2759C18.4851 4.95848 18.2273 4.7002 17.9079 4.7002H16.9668Z"
      fill="#ECA026"
    />
    <path
      fillRule="evenodd"
      clipRule="evenodd"
      d="M15.6689 9.22754H18.9382H19.423C19.7413 9.22754 20.0002 9.48582 20.0002 9.80324V10.916C20.0002 11.2334 19.7413 11.4917 19.423 11.4917H17.4827L16.4389 11.973L15.7887 11.4917V9.63602C15.7887 9.48582 15.7454 9.34586 15.6689 9.22754Z"
      fill="#FEB237"
    />
    <path
      fillRule="evenodd"
      clipRule="evenodd"
      d="M15.3857 11.4917H17.4823C17.8006 11.4917 18.0584 11.7488 18.0584 12.0663V13.1801C18.0584 13.4976 17.8006 13.7547 17.4823 13.7547L16.555 14.1552L15.3857 13.7547V11.4917Z"
      fill="#FFD15B"
    />
    <path
      fillRule="evenodd"
      clipRule="evenodd"
      d="M15.7884 13.7544H17.4823H18.9378C19.2561 13.7544 19.5139 14.0115 19.5139 14.3301V15.4428C19.5139 15.7603 19.2561 16.0174 18.9378 16.0174H15.2614C15.1404 15.3916 15.1803 14.1845 15.7884 13.7544Z"
      fill="#FEB237"
    />
    <path
      fillRule="evenodd"
      clipRule="evenodd"
      d="M15.3857 13.7544V14.4371H16.677H18.1326C18.4508 14.4371 18.7086 14.6942 18.7086 15.0116V16.0174H18.9379C19.2562 16.0174 19.514 15.7603 19.514 15.4428V14.3301C19.514 14.0115 19.2562 13.7544 18.9379 13.7544H17.4824H15.3857Z"
      fill="#ECA026"
    />
    <path
      fillRule="evenodd"
      clipRule="evenodd"
      d="M16.9542 12.2085C17.2736 12.2085 17.5314 12.4668 17.5314 12.7842V13.666C17.5314 13.6955 17.5291 13.7251 17.5245 13.7536C17.8234 13.7308 18.0584 13.4828 18.0584 13.1801V12.0663C18.0584 11.7488 17.8006 11.4917 17.4823 11.4917H15.3857V12.2085H16.9542Z"
      fill="#FFC344"
    />
    <path
      fillRule="evenodd"
      clipRule="evenodd"
      d="M15.7887 9.88973H18.3063H18.7922C19.1104 9.88973 19.3682 10.148 19.3682 10.4654V11.4917H19.423C19.7413 11.4917 20.0002 11.2334 20.0002 10.916V9.80324C20.0002 9.48582 19.7413 9.22754 19.423 9.22754H18.9382H15.6689C15.7454 9.34586 15.7887 9.48582 15.7887 9.63598V9.88973Z"
      fill="#ECA026"
    />
    <path
      fillRule="evenodd"
      clipRule="evenodd"
      d="M15.7884 13.7548V15.2954C15.7884 15.6321 15.566 15.9188 15.2614 16.0178C15.1873 16.0429 15.1086 16.0554 15.0264 16.0554H14.4846H2.0657C1.64707 16.0554 1.30371 15.7129 1.30371 15.2953V10.51V9.63617C1.30371 9.21746 1.64707 8.87613 2.0657 8.87613L9.66051 8.875L15.0264 8.87613C15.2956 8.87613 15.5329 9.01609 15.6686 9.2277C15.7451 9.34602 15.7884 9.48598 15.7884 9.63613V11.4918V13.7548Z"
      fill="#3EC3A4"
    />
    <path
      fillRule="evenodd"
      clipRule="evenodd"
      d="M2.06582 16.0552H14.4847V16.929C14.4847 17.3477 14.1413 17.6891 13.7227 17.6891H0.761992C0.342227 17.6891 0 17.3477 0 16.929V11.2698C0 10.8511 0.342227 10.5098 0.761992 10.5098H1.30383V15.2952C1.30383 15.7128 1.64719 16.0552 2.06582 16.0552Z"
      fill="#0BB494"
    />
    <path
      fillRule="evenodd"
      clipRule="evenodd"
      d="M14.9387 15.2952C14.9387 15.6035 14.7517 15.872 14.4848 15.9904C14.4608 16.0006 14.4369 16.0097 14.4118 16.0177C14.3376 16.0427 14.2589 16.0552 14.1768 16.0552H14.4848H15.0266C15.1087 16.0552 15.1874 16.0427 15.2616 16.0177C15.5662 15.9187 15.7886 15.632 15.7886 15.2952C15.7886 13.493 15.7886 11.6919 15.7886 9.88969V9.63598C15.7886 9.48578 15.7452 9.34586 15.6688 9.22754C15.5331 9.0159 15.2958 8.87598 15.0266 8.87598H14.1813C14.4482 8.87711 14.6844 9.01707 14.819 9.22754C14.8954 9.34586 14.9387 9.48582 14.9387 9.63598V15.2952Z"
      fill="#0BB494"
    />
    <path
      fillRule="evenodd"
      clipRule="evenodd"
      d="M14.2498 13.6226C13.6144 13.6226 13.1 14.1357 13.1 14.7671H3.99145C3.99145 14.1357 3.47812 13.6226 2.84391 13.6226L2.84277 11.3083C3.35609 11.3083 3.79184 10.9727 3.93898 10.5096C3.9732 10.4004 3.99145 10.2832 3.99145 10.1626H13.1034C13.1023 10.2832 13.1205 10.4004 13.1547 10.5096C13.3007 10.9727 13.7365 11.3083 14.2487 11.3083L14.2498 13.6226Z"
      fill="#9BE69D"
    />
    <path
      fillRule="evenodd"
      clipRule="evenodd"
      d="M9.62895 12.4655C9.62895 13.0616 9.14414 13.5452 8.54641 13.5452C7.94867 13.5452 7.46387 13.0616 7.46387 12.4655C7.46387 11.8693 7.94867 11.3857 8.54641 11.3857C9.14414 11.3857 9.62895 11.8693 9.62895 12.4655Z"
      fill="#FED2A4"
    />
    <path
      fillRule="evenodd"
      clipRule="evenodd"
      d="M14.0821 6.38355C14.0821 4.13422 12.2547 2.31152 9.99957 2.31152C7.74441 2.31152 5.91699 4.13422 5.91699 6.38355C5.91699 8.63289 7.74441 10.4556 9.99957 10.4556C12.2547 10.4556 14.0821 8.63289 14.0821 6.38355Z"
      fill="#EB5569"
    />
    <path
      fillRule="evenodd"
      clipRule="evenodd"
      d="M9.40049 2.35428C11.3294 2.67967 12.7975 4.3533 12.7975 6.36943C12.7975 8.41514 11.2849 10.1092 9.31494 10.3982C9.53736 10.4358 9.76666 10.4551 9.99936 10.4551C12.2545 10.4551 14.0819 8.6324 14.0819 6.38307C14.0819 4.13373 12.2545 2.31104 9.99936 2.31104C9.79631 2.31104 9.59557 2.32584 9.40049 2.35428Z"
      fill="#E53950"
    />
    <path
      d="M10.4268 6.38305L11.7582 5.05508C11.8762 4.93738 11.8765 4.74629 11.7587 4.62824C11.641 4.51023 11.4499 4.51 11.3319 4.6277L9.99936 5.95676L8.66682 4.6277C8.54881 4.50996 8.35772 4.5102 8.23999 4.62824C8.12225 4.74625 8.12252 4.93734 8.24053 5.05508L9.57194 6.38305L8.24053 7.71102C8.12252 7.82871 8.12225 8.01981 8.23999 8.13785C8.29893 8.19695 8.37627 8.22652 8.45366 8.22652C8.53077 8.22652 8.60788 8.19715 8.66678 8.1384L9.99932 6.80934L11.3319 8.1384C11.3908 8.19719 11.4679 8.22652 11.545 8.22652C11.6223 8.22652 11.6997 8.19695 11.7587 8.13785C11.8764 8.01984 11.8761 7.82875 11.7581 7.71102L10.4268 6.38305Z"
      fill="#F3F0F3"
    />
  </svg>