<svg width="37" height="36" viewBox="0 0 37 36" fill="none" xmlns="http://www.w3.org/2000/svg">
<g clip-path="url(#clip0_8700_46253)">
<path d="M27.1983 19.8105C22.7338 19.8105 19.1016 23.4427 19.1016 27.9072C19.1016 32.3717 22.7338 36.0039 27.1983 36.0039C31.6628 36.0039 35.295 32.3717 35.295 27.9072C35.295 23.4427 31.6628 19.8105 27.1983 19.8105ZM26.2525 31.3L23.2058 28.2841L24.6917 26.7831L26.2407 28.3165L29.6989 24.8392L31.1964 26.3285L26.2525 31.3Z" fill="#4CA528"/>
<path d="M17.2738 0L1.70605 8.98805V26.9641L17.2738 35.9522L19.5405 34.6435C19.0733 34.1132 18.6602 33.5342 18.3099 32.9151L17.2738 33.5133L16.2177 32.9035V18.5858L3.81824 11.427V10.2075L4.87434 9.59773L17.2738 16.7566L22.4174 13.7869L10.018 6.62808L12.1302 5.40865L24.5296 12.5674L29.6733 9.59773L30.7294 10.2075V11.427L18.3299 18.5858V22.8558C20.0895 19.7754 23.4067 17.6944 27.2011 17.6944C29.2849 17.6944 31.2245 18.3225 32.8416 19.3985V8.98805L17.2738 0Z" fill="#4CA528"/>
</g>
<defs>
<clipPath id="clip0_8700_46253">
<rect width="36" height="36" fill="white" transform="translate(0.5)"/>
</clipPath>
</defs>
</svg>
