<svg width="37" height="36" viewBox="0 0 37 36" fill="none" xmlns="http://www.w3.org/2000/svg">
<g clip-path="url(#clip0_8700_46123)">
<path d="M36.0371 25.891H34.9124V19.6009C34.9124 18.8649 34.6902 18.1428 34.2782 17.5319L31.4594 13.3569C30.7697 12.3386 29.6219 11.7276 28.3907 11.7276H24.0213C23.5075 11.7276 23.0956 12.1442 23.0956 12.6533V25.8912H15.9397C16.6201 26.4789 17.0876 27.2982 17.2218 28.224H24.7664C25.0348 26.3865 26.6179 24.9654 28.5295 24.9654C30.4411 24.9654 32.0195 26.3865 32.288 28.224H36.0371C36.2917 28.224 36.5 28.0157 36.5 27.7611V26.354C36.4999 26.0995 36.2917 25.891 36.0371 25.891ZM31.427 18.365H25.6597C25.4052 18.365 25.1969 18.1613 25.1969 17.9021V14.7037C25.1969 14.4492 25.4052 14.2409 25.6597 14.2409H29.1729C29.3257 14.2409 29.4645 14.3149 29.5524 14.4353L31.8065 17.6383C32.0194 17.9438 31.8019 18.365 31.427 18.365ZM28.5295 25.891C26.9373 25.891 25.6505 27.1824 25.6505 28.7746C25.6505 30.3623 26.9373 31.6536 28.5295 31.6536C30.1171 31.6536 31.4085 30.3623 31.4085 28.7746C31.4085 27.1825 30.1171 25.891 28.5295 25.891ZM28.5295 30.2143C27.7333 30.2143 27.09 29.5663 27.09 28.7748C27.09 27.9786 27.7333 27.3352 28.5295 27.3352C29.3255 27.3352 29.969 27.9786 29.969 28.7748C29.969 29.5663 29.3256 30.2143 28.5295 30.2143ZM4.52552 25.891C4.27094 25.891 4.06264 26.0995 4.06264 26.3539V27.7611C4.06264 28.0157 4.27094 28.224 4.52552 28.224H9.70028C9.83451 27.2982 10.302 26.4789 10.9778 25.8912H4.52552V25.891ZM13.4587 25.891C11.8711 25.891 10.5797 27.1824 10.5797 28.7746C10.5797 30.3623 11.8711 31.6536 13.4587 31.6536C15.0509 31.6536 16.3377 30.3623 16.3377 28.7746C16.3377 27.1825 15.051 25.891 13.4587 25.891ZM13.4587 30.2143C12.6626 30.2143 12.0192 29.5663 12.0192 28.7748C12.0192 27.9786 12.6626 27.3352 13.4587 27.3352C14.2548 27.3352 14.8982 27.9786 14.8982 28.7748C14.8982 29.5663 14.2548 30.2143 13.4587 30.2143ZM20.3831 8.85781H15.0186C15.2824 9.64004 15.4213 10.4778 15.4213 11.3434C15.4213 15.7128 11.8665 19.2676 7.49711 19.2676C6.70093 19.2676 5.92799 19.1473 5.20129 18.9297V24.0443C5.20129 24.2989 5.40958 24.5072 5.66417 24.5072H21.3088C21.5635 24.5072 21.7717 24.2989 21.7717 24.0443V10.2464C21.7717 9.47804 21.1514 8.85781 20.3831 8.85781ZM7.49817 4.34375C3.63317 4.34375 0.5 7.47687 0.5 11.3419C0.5 15.2069 3.63317 18.34 7.49817 18.34C11.3632 18.34 14.4964 15.2069 14.4964 11.3419C14.4964 7.47687 11.3632 4.34375 7.49817 4.34375ZM7.49817 16.7475C4.51276 16.7475 2.09253 14.3273 2.09253 11.3419C2.09253 8.3564 4.51276 5.93622 7.49817 5.93622C10.4836 5.93622 12.9038 8.35646 12.9038 11.3419C12.9038 14.3273 10.4836 16.7475 7.49817 16.7475ZM9.56269 12.4835C9.50304 12.4835 9.44199 12.4758 9.3814 12.4596L7.12593 11.8516C6.82311 11.7698 6.61246 11.495 6.61246 11.1813V7.70981C6.61246 7.32652 6.92346 7.01552 7.30675 7.01552C7.69005 7.01552 8.00105 7.32652 8.00105 7.70981V10.6493L9.74304 11.1189C10.1133 11.2188 10.3325 11.5999 10.2326 11.97C10.149 12.2796 9.86875 12.4835 9.56269 12.4835Z" fill="#4CA528"/>
</g>
<defs>
<clipPath id="clip0_8700_46123">
<rect width="36" height="36" fill="white" transform="translate(0.5)"/>
</clipPath>
</defs>
</svg>
