<svg width="16" height="16" viewBox="0 0 16 16" fill="none" xmlns="http://www.w3.org/2000/svg">
<g clip-path="url(#clip0_40000839_4131)">
<path d="M13.7266 4.82378H11.4002V2.4974C11.4002 2.1272 11.2531 1.77216 10.9913 1.51039C10.7296 1.24862 10.3745 1.10156 10.0043 1.10156H2.5599C2.1897 1.10156 1.83466 1.24862 1.57289 1.51039C1.31112 1.77216 1.16406 2.1272 1.16406 2.4974V9.94184C1.16406 10.312 1.31112 10.6671 1.57289 10.9288C1.83466 11.1906 2.1897 11.3377 2.5599 11.3377H4.88628V13.6641C4.88628 14.0343 5.03334 14.3893 5.29511 14.6511C5.55688 14.9128 5.91192 15.0599 6.28212 15.0599H13.7266C14.0968 15.0599 14.4518 14.9128 14.7136 14.6511C14.9753 14.3893 15.1224 14.0343 15.1224 13.6641V6.21962C15.1224 5.84942 14.9753 5.49438 14.7136 5.23261C14.4518 4.97084 14.0968 4.82378 13.7266 4.82378ZM2.09462 9.94184V2.4974C2.09462 2.374 2.14364 2.25565 2.23089 2.16839C2.31815 2.08114 2.4365 2.03212 2.5599 2.03212H10.0043C10.1277 2.03212 10.2461 2.08114 10.3333 2.16839C10.4206 2.25565 10.4696 2.374 10.4696 2.4974V9.94184C10.4696 10.0652 10.4206 10.1836 10.3333 10.2708C10.2461 10.3581 10.1277 10.4071 10.0043 10.4071H2.5599C2.4365 10.4071 2.31815 10.3581 2.23089 10.2708C2.14364 10.1836 2.09462 10.0652 2.09462 9.94184ZM14.1918 13.6641C14.1918 13.7875 14.1428 13.9058 14.0556 13.9931C13.9683 14.0803 13.85 14.1293 13.7266 14.1293H6.28212C6.15872 14.1293 6.04037 14.0803 5.95312 13.9931C5.86586 13.9058 5.81684 13.7875 5.81684 13.6641V11.3377H10.0043C10.3745 11.3377 10.7296 11.1906 10.9913 10.9288C11.2531 10.6671 11.4002 10.312 11.4002 9.94184V5.75434H13.7266C13.85 5.75434 13.9683 5.80336 14.0556 5.89062C14.1428 5.97787 14.1918 6.09622 14.1918 6.21962V13.6641Z" fill="#A2A2A2"/>
</g>
<defs>
<clipPath id="clip0_40000839_4131">
<rect width="14.8889" height="14.8889" fill="white" transform="translate(0.699219 0.634766)"/>
</clipPath>
</defs>
</svg>
