<svg width="16" height="16" viewBox="0 0 16 16" fill="none" xmlns="http://www.w3.org/2000/svg">
<g id="marker (1) 1" clipPath="url(#clip0_359_28047)">
<path id="Vector" d="M7.56915 0.0664062C5.90009 0.0682425 4.29992 0.732042 3.11966 1.91218C1.9394 3.09232 1.27544 4.69243 1.27344 6.36148C1.27344 7.98256 2.52867 10.5195 5.00444 13.9017C5.29917 14.3055 5.68507 14.634 6.13074 14.8604C6.57641 15.0869 7.06924 15.2049 7.56915 15.2049C8.06905 15.2049 8.56188 15.0869 9.00755 14.8604C9.45322 14.634 9.83912 14.3055 10.1339 13.9017C12.6096 10.5195 13.8649 7.98256 13.8649 6.36148C13.8629 4.69243 13.1989 3.09232 12.0186 1.91218C10.8384 0.732042 9.2382 0.0682425 7.56915 0.0664062ZM7.56915 8.87068C7.07013 8.87068 6.58232 8.72271 6.1674 8.44547C5.75248 8.16823 5.42909 7.77418 5.23813 7.31315C5.04716 6.85212 4.99719 6.34481 5.09455 5.85538C5.1919 5.36595 5.4322 4.91638 5.78506 4.56352C6.13792 4.21066 6.58749 3.97036 7.07692 3.87301C7.56635 3.77566 8.07365 3.82562 8.53469 4.01659C8.99572 4.20755 9.38977 4.53094 9.66701 4.94586C9.94425 5.36078 10.0922 5.84859 10.0922 6.34761C10.0922 7.01677 9.8264 7.65852 9.35323 8.13169C8.88006 8.60486 8.23831 8.87068 7.56915 8.87068Z" fill="#1A47E8"/>
</g>
<defs>
<clipPath id="clip0_359_28047">
<rect width="15.1385" height="15.1385" fill="white" transform="translate(0 0.0390625)"/>
</clipPath>
</defs>
</svg>
