<?xml version="1.0" standalone="no"?>
<svg xmlns="http://www.w3.org/2000/svg" version="1.1" xmlns:xlink="http://www.w3.org/1999/xlink" width="512" height="512" x="0" y="0" viewBox="0 0 512 512" style="enable-background:new 0 0 512 512" xml:space="preserve" class=""><g><path d="M511.9 126.269a15.996 15.996 0 0 0-9.135-12.768l-240-112a16.002 16.002 0 0 0-13.532 0l-240 112a15.999 15.999 0 0 0-9.135 12.768A89.234 89.234 0 0 0 0 128v272a15.998 15.998 0 0 0 10.058 14.855l240 96a15.996 15.996 0 0 0 11.884 0l240-96A15.998 15.998 0 0 0 512 400V128c0-.084-.087-1.617-.1-1.731zM256 33.656l199.744 93.214-76.914 30.766-203.503-86.332zM136.31 89.512l200.346 84.993L256 206.767 56.256 126.87zM32 151.632l208 83.2v237.535l-208-83.2zm240 320.736V234.832l208-83.2v237.535z" fill="#1f6a00" opacity="1" data-original="#000000"/></g></svg>