<svg
    xmlns="http://www.w3.org/2000/svg"
    width="15"
    height="16"
    viewBox="0 0 15 16"
    fill="none"
  >
    <g clipPath="url(#clip0_4595_104518)">
      <path
        d="M13.5073 2.68458V2.10134C13.5073 1.27812 12.8376 0.608398 12.0144 0.608398H7.86228C7.46346 0.608398 7.08857 0.763701 6.80659 1.04571L0.934385 6.91795C0.652373 7.19993 0.49707 7.57484 0.49707 7.97363C0.49707 8.37242 0.652373 8.74733 0.934385 9.02932L1.53107 9.62601C1.50579 9.73569 1.4924 9.84893 1.4924 9.96424C1.4924 10.363 1.64771 10.7379 1.92972 11.0199L6.08176 15.1719C6.37279 15.4629 6.75512 15.6084 7.13741 15.6084C7.51971 15.6084 7.90203 15.4629 8.19307 15.1718L14.0653 9.29955C14.3473 9.01754 14.5026 8.64266 14.5026 8.24387V4.09191C14.5026 3.44316 14.0865 2.89001 13.5073 2.68458ZM1.63815 8.32552C1.54417 8.23153 1.49237 8.10655 1.49237 7.9736C1.49237 7.84065 1.54417 7.71573 1.63815 7.62169L7.51039 1.74945C7.6044 1.6555 7.72936 1.6037 7.8623 1.6037H12.0144C12.2888 1.6037 12.512 1.82694 12.512 2.10134V2.59897H8.85758C8.45876 2.59897 8.08388 2.75428 7.80189 3.03629L2.07547 8.76277L1.63815 8.32552ZM13.3616 8.59578L7.4893 14.468C7.29521 14.6621 6.97953 14.6621 6.78553 14.468L2.63346 10.3161C2.53947 10.2221 2.48768 10.0971 2.48768 9.96418C2.48768 9.83123 2.53947 9.70631 2.63346 9.61227L8.50569 3.74C8.59971 3.64604 8.72466 3.59425 8.85761 3.59425H13.0097C13.2841 3.59425 13.5073 3.81749 13.5073 4.09188V8.24384C13.5073 8.37679 13.4555 8.50177 13.3616 8.59578Z"
        fill="#5668A7"
      />
      <path
        d="M11.0193 4.58936C10.1961 4.58936 9.52637 5.25908 9.52637 6.08229C9.52637 6.90551 10.1961 7.57523 11.0193 7.57523C11.8425 7.57523 12.5122 6.90551 12.5122 6.08229C12.5122 5.25908 11.8425 4.58936 11.0193 4.58936ZM11.0193 6.57996C10.7449 6.57996 10.5217 6.35672 10.5217 6.08232C10.5217 5.80793 10.7449 5.58469 11.0193 5.58469C11.2937 5.58469 11.5169 5.80793 11.5169 6.08232C11.5169 6.35672 11.2937 6.57996 11.0193 6.57996Z"
        fill="#5668A7"
      />
    </g>
    <defs>
      <clipPath id="clip0_4595_104518">
        <rect
          width="15"
          height="15"
          fill="white"
          transform="translate(0 0.608398)"
        />
      </clipPath>
    </defs>
  </svg>