<svg width="41" height="40" viewBox="0 0 41 40" fill="none" xmlns="http://www.w3.org/2000/svg">
<g clip-path="url(#clip0_10554_21882)">
<path d="M35.8693 34.0928H17.274C17.1197 34.0918 16.9707 34.1485 16.8559 34.2516C16.7412 34.3547 16.669 34.4969 16.6535 34.6504C16.638 34.8038 16.6803 34.9576 16.7721 35.0815C16.864 35.2055 16.9987 35.2908 17.15 35.3207L35.7453 39.0398C35.8355 39.0582 35.9286 39.0563 36.0179 39.0342C36.1071 39.0122 36.1904 38.9705 36.2616 38.9123C36.3328 38.8541 36.3902 38.7808 36.4296 38.6976C36.4689 38.6145 36.4893 38.5237 36.4892 38.4317V34.7126C36.4892 34.5482 36.4239 34.3906 36.3076 34.2743C36.1914 34.1581 36.0337 34.0928 35.8693 34.0928Z" fill="#1946E7"/>
<path d="M28.4316 21.0771V24.1398C29.3578 24.0347 30.2429 23.6993 31.0062 23.1644C31.7695 22.6294 32.3867 21.9119 32.8015 21.0771H28.4316Z" fill="#1946E7"/>
<path d="M22.2324 18.5961C22.2337 19.0134 22.2819 19.4293 22.3762 19.8358H27.1912V17.3564H22.3762C22.2819 17.763 22.2337 18.1788 22.2324 18.5961Z" fill="#1946E7"/>
<path d="M28.4316 19.8358H33.2466C33.4383 19.0205 33.4383 18.1718 33.2466 17.3564H28.4316V19.8358Z" fill="#1946E7"/>
<path d="M28.4316 16.1183H32.8015C32.3866 15.2837 31.7694 14.5662 31.0061 14.0312C30.2428 13.4963 29.3578 13.1609 28.4316 13.0557V16.1183Z" fill="#1946E7"/>
<path d="M27.1922 16.1183V13.0557C26.266 13.1609 25.381 13.4963 24.6177 14.0312C23.8544 14.5662 23.2372 15.2837 22.8223 16.1183H27.1922Z" fill="#1946E7"/>
<path d="M27.1922 21.0771H22.8223C23.2371 21.9119 23.8543 22.6294 24.6176 23.1644C25.3809 23.6993 26.266 24.0347 27.1922 24.1398V21.0771Z" fill="#1946E7"/>
<path d="M37.1091 8.05957H17.2741C17.1097 8.05957 16.9521 8.12488 16.8358 8.24112C16.7196 8.35736 16.6543 8.51502 16.6543 8.67941V32.2335C16.6543 32.3979 16.7196 32.5555 16.8358 32.6718C16.9521 32.788 17.1097 32.8533 17.2741 32.8533H37.1091C37.6023 32.8533 38.0753 32.6574 38.424 32.3087C38.7728 31.9599 38.9687 31.487 38.9687 30.9938V9.9191C38.9687 9.42592 38.7728 8.95294 38.424 8.60421C38.0753 8.25548 37.6023 8.05957 37.1091 8.05957ZM27.8115 11.7786C29.16 11.7786 30.4783 12.1785 31.5995 12.9277C32.7208 13.6769 33.5947 14.7418 34.1108 15.9877C34.6268 17.2335 34.7618 18.6045 34.4988 19.9271C34.2357 21.2497 33.5863 22.4646 32.6327 23.4182C31.6792 24.3717 30.4643 25.0211 29.1417 25.2842C27.819 25.5473 26.4481 25.4122 25.2022 24.8962C23.9564 24.3801 22.8915 23.5062 22.1423 22.3849C21.3931 21.2637 20.9932 19.9454 20.9932 18.5969C20.9953 16.7892 21.7144 15.0562 22.9926 13.778C24.2708 12.4998 26.0038 11.7808 27.8115 11.7786ZM34.6298 29.1343H20.9932C20.8288 29.1343 20.6712 29.069 20.5549 28.9527C20.4387 28.8365 20.3734 28.6788 20.3734 28.5144C20.3734 28.35 20.4387 28.1924 20.5549 28.0761C20.6712 27.9599 20.8288 27.8946 20.9932 27.8946H34.6298C34.7942 27.8946 34.9518 27.9599 35.0681 28.0761C35.1843 28.1924 35.2496 28.35 35.2496 28.5144C35.2496 28.6788 35.1843 28.8365 35.0681 28.9527C34.9518 29.069 34.7942 29.1343 34.6298 29.1343Z" fill="#1946E7"/>
<path d="M19.1323 6.81855H15.4132V4.95902H16.033C16.1974 4.95902 16.3551 4.89372 16.4713 4.77747C16.5876 4.66123 16.6529 4.50357 16.6529 4.33918V2.47965C16.6529 1.98647 16.457 1.51349 16.1082 1.16476C15.7595 0.816032 15.2865 0.620117 14.7934 0.620117H9.21477C8.72159 0.620117 8.24861 0.816032 7.89988 1.16476C7.55115 1.51349 7.35523 1.98647 7.35523 2.47965V4.33918C7.35523 4.50357 7.42054 4.66123 7.53678 4.77747C7.65303 4.89372 7.81069 4.95902 7.97508 4.95902H8.59492V6.81855H4.25602C3.76284 6.81855 3.28986 7.01447 2.94113 7.3632C2.5924 7.71193 2.39648 8.18491 2.39648 8.67809V27.2734C2.39648 27.7666 2.5924 28.2396 2.94113 28.5883C3.28986 28.937 3.76284 29.1329 4.25602 29.1329H5.4957V30.9925C5.4957 31.1569 5.56101 31.3145 5.67725 31.4308C5.79349 31.547 5.95115 31.6123 6.11555 31.6123C6.27994 31.6123 6.4376 31.547 6.55384 31.4308C6.67009 31.3145 6.73539 31.1569 6.73539 30.9925V29.1329H16.6529V30.9925C16.6529 31.1569 16.7182 31.3145 16.8344 31.4308C16.9507 31.547 17.1083 31.6123 17.2727 31.6123C17.4371 31.6123 17.5948 31.547 17.711 31.4308C17.8273 31.3145 17.8926 31.1569 17.8926 30.9925V29.1329H19.1323C19.6254 29.1329 20.0984 28.937 20.4472 28.5883C20.7959 28.2396 20.9918 27.7666 20.9918 27.2734V8.67809C20.9918 8.18491 20.7959 7.71193 20.4472 7.3632C20.0984 7.01447 19.6254 6.81855 19.1323 6.81855ZM8.59492 2.47965C8.59492 2.31526 8.66023 2.1576 8.77647 2.04135C8.89271 1.92511 9.05037 1.8598 9.21477 1.8598H14.7934C14.9578 1.8598 15.1154 1.92511 15.2317 2.04135C15.3479 2.1576 15.4132 2.31526 15.4132 2.47965V3.71934H8.59492V2.47965ZM14.1735 4.95902V6.81855H9.83461V4.95902H14.1735ZM19.7521 27.2734C19.7521 27.4378 19.6868 27.5954 19.5706 27.7117C19.4543 27.8279 19.2967 27.8932 19.1323 27.8932H4.25602C4.09162 27.8932 3.93396 27.8279 3.81772 27.7117C3.70148 27.5954 3.63617 27.4378 3.63617 27.2734V8.67809C3.63617 8.51369 3.70148 8.35603 3.81772 8.23979C3.93396 8.12355 4.09162 8.05824 4.25602 8.05824H19.1323C19.2967 8.05824 19.4543 8.12355 19.5706 8.23979C19.6868 8.35603 19.7521 8.51369 19.7521 8.67809V27.2734Z" fill="#151A6A"/>
<path d="M7.35617 9.91895C7.19178 9.91895 7.03412 9.98425 6.91788 10.1005C6.80163 10.2167 6.73633 10.3744 6.73633 10.5388V25.415C6.73633 25.5794 6.80163 25.7371 6.91788 25.8533C7.03412 25.9696 7.19178 26.0349 7.35617 26.0349C7.52056 26.0349 7.67822 25.9696 7.79447 25.8533C7.91071 25.7371 7.97602 25.5794 7.97602 25.415V10.5388C7.97602 10.3744 7.91071 10.2167 7.79447 10.1005C7.67822 9.98425 7.52056 9.91895 7.35617 9.91895Z" fill="#151A6A"/>
<path d="M11.6941 9.91895C11.5297 9.91895 11.372 9.98425 11.2558 10.1005C11.1395 10.2167 11.0742 10.3744 11.0742 10.5388V25.415C11.0742 25.5794 11.1395 25.7371 11.2558 25.8533C11.372 25.9696 11.5297 26.0349 11.6941 26.0349C11.8585 26.0349 12.0161 25.9696 12.1324 25.8533C12.2486 25.7371 12.3139 25.5794 12.3139 25.415V10.5388C12.3139 10.3744 12.2486 10.2167 12.1324 10.1005C12.0161 9.98425 11.8585 9.91895 11.6941 9.91895Z" fill="#151A6A"/>
<path d="M16.0339 9.91895C15.8695 9.91895 15.7119 9.98425 15.5956 10.1005C15.4794 10.2167 15.4141 10.3744 15.4141 10.5388V25.415C15.4141 25.5794 15.4794 25.7371 15.5956 25.8533C15.7119 25.9696 15.8695 26.0349 16.0339 26.0349C16.1983 26.0349 16.356 25.9696 16.4722 25.8533C16.5884 25.7371 16.6537 25.5794 16.6537 25.415V10.5388C16.6537 10.3744 16.5884 10.2167 16.4722 10.1005C16.356 9.98425 16.1983 9.91895 16.0339 9.91895Z" fill="#151A6A"/>
</g>
<defs>
<clipPath id="clip0_10554_21882">
<rect width="39.67" height="39.67" fill="white" transform="translate(0.847656 0.000976562)"/>
</clipPath>
</defs>
</svg>
