<?xml version="1.0" standalone="no"?>
<svg xmlns="http://www.w3.org/2000/svg" version="1.1" xmlns:xlink="http://www.w3.org/1999/xlink" width="512" height="512" x="0" y="0" viewBox="0 0 512 512" style="enable-background:new 0 0 512 512" xml:space="preserve" class=""><g><g fill-rule="evenodd" clip-rule="evenodd"><path fill="#0133e6" d="m308.11 45.241 30.462 17.582-119.732 69.124-30.462-17.582zm-92.268 142.138v-50.235l-30.46-17.595v50.249zm-81.09 32.119-7.878 4.52-30.468-17.578 38.346-22.123zm-10.873 9.725-30.47-17.578v50.235l30.47 17.578zM262.4 309.202l30.46 17.581v50.236l-30.46-17.581zm7.067-2.839 26.396 15.233 119.727-69.139-26.391-15.227z" opacity="1" data-original="#9bc9ff"/><path fill="#0133e6" d="M348.49 482.14v-126.7l109.731-63.35v126.7zM222.76 292.091l28.636 16.531v52.552a7.996 7.996 0 0 0 4.001 6.929l36.464 21.049a8.024 8.024 0 0 0 7.997 0 8.013 8.013 0 0 0 4.001-6.928V338.91l28.632 16.53v126.7L222.76 418.79zm-43.252 92.49V267.12l27.253 15.73v85.99zm-125.73-190.05 28.632 16.531v52.552a7.971 7.971 0 0 0 4.001 6.914l36.469 21.063a7.975 7.975 0 0 0 4.001 1.068 8.062 8.062 0 0 0 4.001-1.068 8.022 8.022 0 0 0 3.996-6.933V241.35l28.632 16.531v126.7l-109.731-63.35v-126.7zm75.974-20.037v-33.061L61.78 180.669 90.412 197.2zM263.47 25.243l28.641 16.526-109.731 63.35-28.632-16.526zm3.93 292.618v38.691l20.461 11.81v-38.69zm-48.561-191.688 109.731-63.35-20.46-11.809-109.731 63.35zm-28.458 2.038 20.461 11.819v38.691l-20.461-11.81zm73.089 23.732 109.732-63.35-28.632-16.531-109.732 63.35zm117.728 77.207V102.441L271.467 165.8v126.7zm-101.73 77.212 16.394 9.461 109.727-63.364-16.389-9.456zm-149.716-89.76v-23.629l-23.341 13.467 20.47 11.809zm-31.343 3.699v38.691l20.47 11.809V232.11zm47.342 8.849 109.717 63.35V165.8l-28.627-16.54v43.322a8.01 8.01 0 0 1-4.001 6.919c-1.238.72-2.622 1.082-4.001 1.082s-2.758-.362-4.001-1.082l-36.459-21.049a7.984 7.984 0 0 1-3.996-6.919v-52.552l-28.632-16.54zm194.737 112.429 109.732-63.35-28.632-16.526-109.727 63.35zM470.22 271.3l-73.018-42.15V88.593a7.994 7.994 0 0 0-4.001-6.933L267.471 9.07a8.019 8.019 0 0 0-8.002 0L133.753 81.66a7.994 7.994 0 0 0-4.001 6.933v34.36L41.78 173.741a7.992 7.992 0 0 0-4.001 6.928v145.184a7.991 7.991 0 0 0 4.001 6.928l125.73 72.58a7.943 7.943 0 0 0 4.001 1.078 7.939 7.939 0 0 0 3.996-1.078l31.254-18.041v36.092a8.02 8.02 0 0 0 3.996 6.929l125.735 72.589a8.02 8.02 0 0 0 3.996 1.069 8.039 8.039 0 0 0 4.001-1.069l125.73-72.589a7.995 7.995 0 0 0 4.001-6.929V278.229a7.995 7.995 0 0 0-4-6.929z" opacity="1" data-original="#57a4ff" class=""/></g></g></svg>