<svg width="45" height="45" viewBox="0 0 45 45" fill="none" xmlns="http://www.w3.org/2000/svg">
<g clip-path="url(#clip0_4462_3071)">
<path d="M15.1663 9.34976C15.3377 9.34976 15.5021 9.28166 15.6233 9.16046C15.7445 9.03926 15.8126 8.87487 15.8126 8.70347V6.98003C15.8126 6.80862 15.7445 6.64424 15.6233 6.52303C15.5021 6.40183 15.3377 6.33374 15.1663 6.33374C14.9949 6.33374 14.8305 6.40183 14.7093 6.52303C14.5881 6.64424 14.52 6.80862 14.52 6.98003V8.70347C14.52 8.87487 14.5881 9.03926 14.7093 9.16046C14.8305 9.28166 14.9949 9.34976 15.1663 9.34976Z" fill="#011839"/>
<path d="M22.0652 9.34976C22.2366 9.34976 22.401 9.28166 22.5222 9.16046C22.6434 9.03926 22.7115 8.87487 22.7115 8.70347V6.98003C22.7115 6.80862 22.6434 6.64424 22.5222 6.52303C22.401 6.40183 22.2366 6.33374 22.0652 6.33374C21.8938 6.33374 21.7294 6.40183 21.6082 6.52303C21.487 6.64424 21.4189 6.80862 21.4189 6.98003V8.70347C21.4189 8.87487 21.487 9.03926 21.6082 9.16046C21.7294 9.28166 21.8938 9.34976 22.0652 9.34976Z" fill="#011839"/>
<path d="M28.9534 9.34976C29.1248 9.34976 29.2892 9.28166 29.4104 9.16046C29.5316 9.03926 29.5997 8.87487 29.5997 8.70347V6.98003C29.5997 6.80862 29.5316 6.64424 29.4104 6.52303C29.2892 6.40183 29.1248 6.33374 28.9534 6.33374C28.782 6.33374 28.6176 6.40183 28.4964 6.52303C28.3752 6.64424 28.3071 6.80862 28.3071 6.98003V8.70347C28.3071 8.87487 28.3752 9.03926 28.4964 9.16046C28.6176 9.28166 28.782 9.34976 28.9534 9.34976Z" fill="#011839"/>
<path d="M39.2942 14.0892H35.6319V11.2886C35.6319 11.1172 35.5638 10.9528 35.4426 10.8316C35.3214 10.7104 35.1571 10.6423 34.9856 10.6423H9.13408C8.96268 10.6423 8.79829 10.7104 8.67709 10.8316C8.55588 10.9528 8.48779 11.1172 8.48779 11.2886V22.6116C8.48779 22.783 8.55588 22.9474 8.67709 23.0686C8.79829 23.1898 8.96268 23.2579 9.13408 23.2579C9.30549 23.2579 9.46987 23.1898 9.59108 23.0686C9.71228 22.9474 9.78037 22.783 9.78037 22.6116V15.3818H34.3394V26.7996C34.3416 27.7375 34.0502 28.6526 33.5061 29.4166C33.455 29.4857 33.4182 29.5643 33.3979 29.6478C33.3775 29.7312 33.374 29.8179 33.3876 29.9028C33.4011 29.9877 33.4315 30.0689 33.4768 30.1419C33.5222 30.2149 33.5816 30.2781 33.6517 30.3279C33.7218 30.3776 33.8011 30.4128 33.8849 30.4316C33.9688 30.4503 34.0555 30.4521 34.1401 30.4369C34.2247 30.4217 34.3054 30.3898 34.3775 30.343C34.4496 30.2963 34.5116 30.2356 34.56 30.1646C35.2597 29.1823 35.6346 28.0056 35.6319 26.7996V25.7224H39.2942C40.151 25.7215 40.9724 25.3808 41.5782 24.7749C42.184 24.1691 42.5248 23.3477 42.5257 22.491V17.3207C42.5248 16.4639 42.184 15.6425 41.5782 15.0367C40.9724 14.4309 40.151 14.0901 39.2942 14.0892ZM9.78037 14.0892V11.9349H34.3394V14.0892H9.78037ZM35.6319 17.9669H38.648V21.8447H35.6319V17.9669ZM41.2331 22.491C41.2327 23.005 41.0282 23.4979 40.6647 23.8614C40.3012 24.225 39.8083 24.4294 39.2942 24.4298H35.6319V23.1373H39.2942C39.4656 23.1373 39.63 23.0692 39.7512 22.948C39.8724 22.8268 39.9405 22.6624 39.9405 22.491V17.3207C39.9405 17.1492 39.8724 16.9849 39.7512 16.8637C39.63 16.7425 39.4656 16.6744 39.2942 16.6744H35.6319V15.3818H39.2942C39.8083 15.3822 40.3012 15.5867 40.6647 15.9502C41.0282 16.3137 41.2327 16.8066 41.2331 17.3207V22.491Z" fill="#011839"/>
<path d="M5.90283 37.14C5.90283 37.3114 5.97092 37.4758 6.09213 37.597C6.21333 37.7182 6.37771 37.7863 6.54912 37.7863H37.571C37.7424 37.7863 37.9068 37.7182 38.028 37.597C38.1492 37.4758 38.2173 37.3114 38.2173 37.14V35.2012H5.90283V37.14Z" fill="#0033E6"/>
<path d="M42.8274 31.3235H1.29258C0.949765 31.3235 0.620993 31.4597 0.378587 31.7021C0.136182 31.9445 0 32.2733 0 32.6161C0 32.9589 0.136182 33.2876 0.378587 33.5301C0.620993 33.7725 0.949765 33.9086 1.29258 33.9086H42.8274C43.1702 33.9086 43.499 33.7725 43.7414 33.5301C43.9838 33.2876 44.12 32.9589 44.12 32.6161C44.12 32.2733 43.9838 31.9445 43.7414 31.7021C43.499 31.4597 43.1702 31.3235 42.8274 31.3235Z" fill="#0033E6"/>
<path d="M14.3044 30.0309C14.1976 29.1751 13.9187 28.3497 13.4846 27.6044C13.0505 26.8591 12.4701 26.2093 11.7783 25.6941C11.0866 25.1789 10.2978 24.8089 9.45941 24.6064C8.62101 24.404 7.75031 24.3732 6.89969 24.5159C6.78668 24.5353 6.68084 24.5844 6.59302 24.6581C6.5052 24.7319 6.43855 24.8276 6.3999 24.9356C6.10664 25.7633 5.98698 26.6426 6.04836 27.5186C6.10973 28.3947 6.35084 29.2487 6.75665 30.0275L14.3044 30.0309Z" fill="#0033E6"/>
<path d="M13.8522 25.8869C14.8365 27.0629 15.4476 28.5057 15.6076 30.0309H17.7515C18.4664 28.6268 18.7551 27.0442 18.5821 25.4781C18.4091 23.912 17.7819 22.4306 16.7778 21.2164C16.7044 21.1283 16.6089 21.0612 16.5011 21.022C16.3933 20.9828 16.2771 20.9729 16.1642 20.9932C14.2483 21.3474 12.5249 22.3817 11.311 23.9058C12.2884 24.3794 13.1545 25.0546 13.8522 25.8869Z" fill="#0033E6"/>
</g>
<defs>
<clipPath id="clip0_4462_3071">
<rect width="44.12" height="44.12" fill="white"/>
</clipPath>
</defs>
</svg>
