<svg width="40" height="40" viewBox="0 0 40 40" fill="none" xmlns="http://www.w3.org/2000/svg">
<g clip-path="url(#clip0_4462_3081)">
<path d="M33.411 23.0234H32.442V20.504C32.442 20.3498 32.3807 20.2019 32.2717 20.0929C32.1627 19.9839 32.0148 19.9226 31.8606 19.9226H25.659C25.5048 19.9226 25.357 19.9839 25.2479 20.0929C25.1389 20.2019 25.0776 20.3498 25.0776 20.504V23.0234H14.6125V20.504C14.6125 20.3498 14.5512 20.2019 14.4422 20.0929C14.3332 19.9839 14.1853 19.9226 14.0311 19.9226H7.82954C7.67535 19.9226 7.52746 19.9839 7.41843 20.0929C7.3094 20.2019 7.24814 20.3498 7.24814 20.504V23.0234H6.27915C6.12495 23.0234 5.97707 23.0846 5.86804 23.1937C5.75901 23.3027 5.69775 23.4506 5.69775 23.6048V25.1552C5.69857 25.7203 5.92344 26.2621 6.32305 26.6617C6.72266 27.0613 7.26441 27.2861 7.82954 27.287H8.41094V28.256C8.41217 29.2322 8.80051 30.168 9.49078 30.8583C10.1811 31.5486 11.1169 31.9369 12.0931 31.9381H16.9381V33.8761H15.9691C15.8734 33.8761 15.7791 33.8997 15.6947 33.9448C15.6103 33.99 15.5384 34.0554 15.4854 34.135L14.1086 36.2017H10.9303C10.4677 36.2017 10.0241 36.3855 9.69699 36.7126C9.36989 37.0397 9.18613 37.4833 9.18613 37.9459C9.18613 38.4085 9.36989 38.8521 9.69699 39.1792C10.0241 39.5063 10.4677 39.6901 10.9303 39.6901H28.7598C29.2224 39.6901 29.666 39.5063 29.9931 39.1792C30.3202 38.8521 30.504 38.4085 30.504 37.9459C30.504 37.4833 30.3202 37.0397 29.9931 36.7126C29.666 36.3855 29.2224 36.2017 28.7598 36.2017H25.5815L24.204 34.135C24.151 34.0555 24.0792 33.9902 23.995 33.945C23.9107 33.8999 23.8166 33.8762 23.721 33.8761H22.7521V31.9381H27.597C28.5732 31.9369 29.5091 31.5486 30.1994 30.8583C30.8896 30.168 31.278 29.2322 31.2792 28.256V27.287H31.8606C32.4257 27.2861 32.9675 27.0613 33.3671 26.6617C33.7667 26.2621 33.9916 25.7203 33.9924 25.1552V23.6048C33.9924 23.4506 33.9311 23.3027 33.8221 23.1937C33.7131 23.0846 33.5652 23.0234 33.411 23.0234ZM26.2404 21.0854H31.2792V23.0234H26.2404V21.0854ZM8.41094 21.0854H13.4497V23.0234H8.41094V21.0854ZM29.3412 37.9459C29.3412 38.1001 29.28 38.248 29.1709 38.357C29.0619 38.466 28.914 38.5273 28.7598 38.5273H10.9303C10.7761 38.5273 10.6282 38.466 10.5192 38.357C10.4102 38.248 10.3489 38.1001 10.3489 37.9459C10.3489 37.7917 10.4102 37.6438 10.5192 37.5348C10.6282 37.4258 10.7761 37.3645 10.9303 37.3645H28.7598C28.914 37.3645 29.0619 37.4258 29.1709 37.5348C29.28 37.6438 29.3412 37.7917 29.3412 37.9459ZM24.1862 36.2017H15.504L16.2792 35.0389H23.411L24.1862 36.2017ZM21.5893 33.8761H18.1009V31.9381H21.5893V33.8761ZM30.1164 28.256C30.1156 28.9239 29.8499 29.5642 29.3776 30.0365C28.9053 30.5088 28.265 30.7745 27.597 30.7753H12.0931C11.4252 30.7745 10.7848 30.5088 10.3125 30.0365C9.84025 29.5642 9.57455 28.9239 9.57373 28.256V27.287H30.1164V28.256ZM32.8296 25.1552C32.8292 25.412 32.727 25.6583 32.5453 25.8399C32.3637 26.0215 32.1175 26.1238 31.8606 26.1242H7.82954C7.57267 26.1238 7.32644 26.0215 7.14481 25.8399C6.96318 25.6583 6.86096 25.412 6.86055 25.1552V24.1862H32.8296V25.1552Z" fill="#011839"/>
<path d="M19.9154 3.48831C18.9682 3.48012 18.0286 3.65949 17.151 4.01607C16.2734 4.37266 15.475 4.8994 14.8019 5.56596C14.1288 6.23251 13.5943 7.02568 13.2291 7.89977C12.864 8.77386 12.6754 9.71157 12.6743 10.6589V18.7597H14.9999C15.2055 18.7597 15.4027 18.8413 15.548 18.9867C15.6934 19.1321 15.7751 19.3293 15.7751 19.5348V21.8604H23.9146V19.5348C23.9146 19.3293 23.9963 19.1321 24.1417 18.9867C24.2871 18.8413 24.4842 18.7597 24.6898 18.7597H27.0154V10.7503C27.0154 6.80226 23.8635 3.52706 19.9154 3.48831ZM16.7441 13.217C16.6292 13.2169 16.5169 13.1828 16.4214 13.1189C16.3258 13.055 16.2514 12.9642 16.2074 12.858C16.1635 12.7519 16.152 12.635 16.1743 12.5223C16.1967 12.4096 16.252 12.3061 16.3332 12.2248L18.8139 9.74413C18.8671 9.68701 18.9313 9.64119 19.0026 9.60942C19.0739 9.57764 19.1509 9.56055 19.229 9.55918C19.307 9.5578 19.3846 9.57216 19.457 9.6014C19.5294 9.63064 19.5951 9.67416 19.6503 9.72937C19.7055 9.78458 19.7491 9.85034 19.7783 9.92274C19.8075 9.99513 19.8219 10.0727 19.8205 10.1507C19.8191 10.2288 19.8021 10.3058 19.7703 10.3771C19.7385 10.4484 19.6927 10.5126 19.6356 10.5658L17.1549 13.0465C17.1012 13.1007 17.0372 13.1437 16.9666 13.1729C16.8961 13.2022 16.8205 13.2172 16.7441 13.217ZM23.3565 11.8062L18.3953 16.7674C18.285 16.8701 18.1393 16.926 17.9887 16.9234C17.838 16.9207 17.6943 16.8597 17.5878 16.7532C17.4813 16.6466 17.4203 16.5029 17.4176 16.3523C17.4149 16.2017 17.4709 16.0559 17.5736 15.9457L22.5348 10.9844C22.645 10.8817 22.7908 10.8258 22.9414 10.8285C23.092 10.8312 23.2357 10.8922 23.3423 10.9987C23.4488 11.1052 23.5098 11.2489 23.5125 11.3995C23.5151 11.5502 23.4592 11.6959 23.3565 11.8062Z" fill="#0033E6"/>
<path d="M19.845 0C13.9674 0 9.18604 4.7814 9.18604 10.6589V18.7597H11.5116V10.6589C11.5116 8.44879 12.3896 6.32917 13.9524 4.76637C15.5152 3.20356 17.6348 2.32559 19.845 2.32559C22.0551 2.32559 24.1747 3.20356 25.7375 4.76637C27.3003 6.32917 28.1783 8.44879 28.1783 10.6589V18.7597H30.5039V10.6589C30.5039 4.7814 25.7225 0 19.845 0Z" fill="#0033E6"/>
</g>
<defs>
<clipPath id="clip0_4462_3081">
<rect width="39.69" height="39.69" fill="white"/>
</clipPath>
</defs>
</svg>
