<svg width="16" height="16" viewBox="0 0 16 16" fill="none" xmlns="http://www.w3.org/2000/svg">
<g clip-path="url(#clip0_40001265_28336)">
<path d="M13.4232 7.45942C13.1344 4.84158 11.0564 2.76364 8.43861 2.47486V1.18164H7.18305V2.47486C4.56522 2.76364 2.48727 4.84158 2.1985 7.45942H0.905273V8.71497H2.1985C2.48727 11.3328 4.56522 13.4108 7.18305 13.6995V14.9928H8.43861V13.6995C11.0564 13.4108 13.1344 11.3328 13.4232 8.71497H14.7164V7.45942H13.4232ZM7.81083 12.4816C5.38133 12.4816 3.41638 10.5167 3.41638 8.0872C3.41638 5.6577 5.38133 3.69275 7.81083 3.69275C10.2403 3.69275 12.2053 5.6577 12.2053 8.0872C12.2053 10.5167 10.2403 12.4816 7.81083 12.4816Z" fill="#87B5F2"/>
</g>
<defs>
<clipPath id="clip0_40001265_28336">
<rect width="15.0667" height="15.0667" fill="white" transform="translate(0.277344 0.554688)"/>
</clipPath>
</defs>
</svg>
