<svg width="32" height="32" viewBox="0 0 32 32" fill="none" xmlns="http://www.w3.org/2000/svg">
<circle cx="16" cy="16" r="16" fill="#DAE9FB"/>
<mask id="mask0_7633_154434" style="mask-type:alpha" maskUnits="userSpaceOnUse" x="6" y="6" width="20" height="20">
<rect x="6" y="6" width="20" height="20" fill="#D9D9D9"/>
</mask>
<g mask="url(#mask0_7633_154434)">
<path d="M20.0047 23.9163C19.381 23.9163 18.8514 23.6982 18.416 23.262C17.9807 22.8257 17.7631 22.296 17.7631 21.6728C17.7631 21.5895 17.7919 21.387 17.8495 21.0653L11.9233 17.5765C11.7225 17.7849 11.4838 17.9481 11.2075 18.0661C10.9311 18.1842 10.635 18.2432 10.3191 18.2432C9.69815 18.2432 9.1703 18.0242 8.73558 17.5861C8.30086 17.1481 8.0835 16.6193 8.0835 15.9997C8.0835 15.3801 8.30086 14.8513 8.73558 14.4132C9.1703 13.9752 9.69815 13.7561 10.3191 13.7561C10.635 13.7561 10.9311 13.8152 11.2075 13.9332C11.4838 14.0513 11.7225 14.2145 11.9233 14.4228L17.8495 10.942C17.8165 10.8395 17.7938 10.739 17.7814 10.6407C17.7692 10.5424 17.7631 10.4377 17.7631 10.3265C17.7631 9.70335 17.9813 9.17363 18.4179 8.73738C18.8545 8.30113 19.3847 8.08301 20.0085 8.08301C20.6322 8.08301 21.1618 8.30134 21.597 8.73801C22.0325 9.17454 22.2502 9.70467 22.2502 10.3284C22.2502 10.9522 22.032 11.4818 21.5958 11.9172C21.1595 12.3525 20.6298 12.5701 20.0066 12.5701C19.6893 12.5701 19.3941 12.5097 19.1212 12.389C18.8481 12.2684 18.6112 12.1038 18.4104 11.8955L12.4841 15.3843C12.5172 15.4869 12.5399 15.5873 12.5522 15.6855C12.5645 15.7838 12.5706 15.8886 12.5706 15.9997C12.5706 16.1108 12.5645 16.2155 12.5522 16.3138C12.5399 16.412 12.5172 16.5125 12.4841 16.6151L18.4104 20.1038C18.6112 19.8955 18.8481 19.731 19.1212 19.6103C19.3941 19.4896 19.6893 19.4293 20.0066 19.4293C20.6298 19.4293 21.1595 19.6475 21.5958 20.084C22.032 20.5207 22.2502 21.0509 22.2502 21.6747C22.2502 22.2984 22.0318 22.8279 21.5952 23.2632C21.1586 23.6986 20.6285 23.9163 20.0047 23.9163ZM20.0066 22.6663C20.2881 22.6663 20.5241 22.5711 20.7145 22.3807C20.905 22.1903 21.0002 21.9543 21.0002 21.6728C21.0002 21.3913 20.905 21.1553 20.7145 20.9649C20.5241 20.7743 20.2881 20.679 20.0066 20.679C19.7251 20.679 19.4891 20.7743 19.2987 20.9649C19.1082 21.1553 19.0129 21.3913 19.0129 21.6728C19.0129 21.9543 19.1082 22.1903 19.2987 22.3807C19.4891 22.5711 19.7251 22.6663 20.0066 22.6663ZM10.3191 16.9932C10.6029 16.9932 10.8407 16.898 11.0327 16.7076C11.2247 16.5172 11.3208 16.2812 11.3208 15.9997C11.3208 15.7181 11.2247 15.4822 11.0327 15.2918C10.8407 15.1013 10.6029 15.0061 10.3191 15.0061C10.0398 15.0061 9.80572 15.1013 9.61683 15.2918C9.42794 15.4822 9.3335 15.7181 9.3335 15.9997C9.3335 16.2812 9.42794 16.5172 9.61683 16.7076C9.80572 16.898 10.0398 16.9932 10.3191 16.9932ZM20.0066 11.3203C20.2881 11.3203 20.5241 11.225 20.7145 11.0345C20.905 10.844 21.0002 10.6081 21.0002 10.3265C21.0002 10.045 20.905 9.80905 20.7145 9.61863C20.5241 9.42822 20.2881 9.33301 20.0066 9.33301C19.7251 9.33301 19.4891 9.42822 19.2987 9.61863C19.1082 9.80905 19.0129 10.045 19.0129 10.3265C19.0129 10.6081 19.1082 10.844 19.2987 11.0345C19.4891 11.225 19.7251 11.3203 20.0066 11.3203Z" fill="#406AFF"/>
</g>
</svg>
