<?xml version="1.0" standalone="no"?>
<svg xmlns="http://www.w3.org/2000/svg" version="1.1" xmlns:xlink="http://www.w3.org/1999/xlink" width="512" height="512" x="0" y="0" viewBox="0 0 64 64" style="enable-background:new 0 0 512 512" xml:space="preserve" fill-rule="evenodd" class=""><g><path d="M0 15v34a15.01 15.01 0 0 0 4.39 10.607A15.017 15.017 0 0 0 15 64h18c1.66 0 3-1.344 3-3s-1.34-3-3-3H15c-2.39 0-4.68-.948-6.36-2.636A8.995 8.995 0 0 1 6 49V22h52v27c0 2.387-.95 4.676-2.64 6.364A8.971 8.971 0 0 1 49 58h-7c-1.66 0-3 1.344-3 3s1.34 3 3 3h7c3.98 0 7.79-1.58 10.61-4.393A15.01 15.01 0 0 0 64 49V15a15.01 15.01 0 0 0-4.39-10.607A15.017 15.017 0 0 0 49 0H15C11.02 0 7.21 1.58 4.39 4.393A15.01 15.01 0 0 0 0 15zm26 40c1.22 0 2.41-.342 3.44-.986 2.53-1.581 10.06-6.287 13.45-8.41A6.596 6.596 0 0 0 46 40a6.596 6.596 0 0 0-3.11-5.604c-3.39-2.123-10.92-6.829-13.45-8.41A6.483 6.483 0 0 0 26 25c-3.31 0-6 2.686-6 6v18c0 3.314 2.69 6 6 6zm0-6V31c.09 0 .18.026.26.074l13.45 8.41c.18.111.29.306.29.516s-.11.405-.29.516l-13.45 8.41a.512.512 0 0 1-.25.074zM21.76 6H15c-2.39 0-4.68.948-6.36 2.636A8.995 8.995 0 0 0 6 15v1h5.76l.12-.121zm8.48 0-.12.121L20.24 16h13.52l.12-.121L43.76 6zm21.56.446L42.24 16H58v-1c0-2.387-.95-4.676-2.64-6.364a8.98 8.98 0 0 0-3.56-2.19z" fill="#df5d4c" opacity="1" data-original="#000000" class=""/></g></svg>