<svg width="40" height="40" viewBox="0 0 40 40" fill="none" xmlns="http://www.w3.org/2000/svg">
<mask id="mask0_40002639_6879" style="mask-type:alpha" maskUnits="userSpaceOnUse" x="0" y="0" width="40" height="40">
<rect width="40" height="40" fill="#D9D9D9"/>
</mask>
<g mask="url(#mask0_40002639_6879)">
<path d="M6.66732 36.6663C5.75065 36.6663 4.96593 36.34 4.31315 35.6872C3.66037 35.0344 3.33398 34.2497 3.33398 33.333V16.6663C3.33398 15.7497 3.66037 14.965 4.31315 14.3122C4.96593 13.6594 5.75065 13.333 6.66732 13.333H33.334C34.2507 13.333 35.0354 13.6594 35.6882 14.3122C36.3409 14.965 36.6673 15.7497 36.6673 16.6663V33.333C36.6673 34.2497 36.3409 35.0344 35.6882 35.6872C35.0354 36.34 34.2507 36.6663 33.334 36.6663H6.66732ZM6.66732 33.333H33.334V16.6663H6.66732V33.333ZM16.6673 31.6663L26.6673 24.9997L16.6673 18.333V31.6663ZM6.66732 11.6663V8.33301H33.334V11.6663H6.66732ZM11.6673 6.66634V3.33301H28.334V6.66634H11.6673Z" fill="#1946E7"/>
</g>
</svg>
