<svg width="40" height="38" viewBox="0 0 40 38" fill="none" xmlns="http://www.w3.org/2000/svg">
<path d="M20.2363 1.60889C21.0655 1.60889 22.049 1.97618 22.5957 2.88623L22.6992 3.07471V3.07568L26.8311 11.4429L36.0635 12.7847L36.2539 12.8198C37.1947 13.0256 37.9789 13.7175 38.2783 14.6558H38.2793C38.5977 15.6412 38.3435 16.7306 37.5859 17.4683L37.5869 17.4692L30.9043 23.9829L32.4824 33.1763L32.4834 33.1831L32.5088 33.3745C32.6006 34.3345 32.1849 35.2826 31.3926 35.8638L31.377 35.8755C30.8989 36.2158 30.3396 36.3882 29.7744 36.3882C29.3517 36.3881 28.9083 36.2941 28.4893 36.0728V36.0718L20.2373 31.7349L11.9775 36.0747L11.9766 36.0737C11.0439 36.5683 9.92767 36.4746 9.09082 35.8706C8.23309 35.2514 7.8219 34.2008 7.99121 33.1831L7.99316 33.1763L9.56934 23.9829L2.8877 17.4692L2.88867 17.4683C2.13168 16.7365 1.87324 15.6419 2.19043 14.6567L2.19141 14.6548L2.25879 14.4692C2.62679 13.5615 3.45285 12.9242 4.41211 12.7847L13.6426 11.4429L17.7705 3.07666L17.7734 3.06885L17.8779 2.88135C18.4271 1.97621 19.4071 1.60903 20.2363 1.60889Z" fill="#EFF0F7" stroke="white" stroke-width="2.7839"/>
</svg>
