<svg width="43" height="43" viewBox="0 0 43 43" fill="none" xmlns="http://www.w3.org/2000/svg">
<g id="upload" clipPath="url(#clip0_763_1065)">
<path id="Vector" d="M33.9422 3.4375H14.6748V11.4275H38.0572V7.55092C38.0572 5.28256 36.2112 3.4375 33.9422 3.4375Z" fill="#CED9F9"/>
<path id="Vector_2" d="M23.0352 12.6567H0.5V5.24277C0.5 2.52612 2.71068 0.316406 5.42828 0.316406H12.6336C13.3497 0.316406 14.0396 0.467331 14.6664 0.750916C15.5418 1.14537 16.2939 1.79553 16.8213 2.645L23.0352 12.6567Z" fill="#1640C1"/>
<path id="Vector_3" d="M42.5 14.3168V38.1981C42.5 40.4694 40.6511 42.3167 38.3789 42.3167H4.62111C2.34891 42.3167 0.5 40.4694 0.5 38.1981V10.1973H38.3789C40.6511 10.1973 42.5 12.0452 42.5 14.3168Z" fill="#2354E6"/>
<path id="Vector_4" d="M42.5 14.3168V38.1981C42.5 40.4694 40.6511 42.3167 38.3789 42.3167H21.5V10.1973H38.3789C40.6511 10.1973 42.5 12.0452 42.5 14.3168Z" fill="#1849D6"/>
<path id="Vector_5" d="M32.548 26.256C32.548 32.3484 27.5919 37.3049 21.5001 37.3049C15.4083 37.3049 10.4521 32.3484 10.4521 26.256C10.4521 20.1645 15.4083 15.208 21.5001 15.208C27.5919 15.208 32.548 20.1645 32.548 26.256Z" fill="#E7ECFC"/>
<path id="Vector_6" d="M32.5479 26.256C32.5479 32.3484 27.5918 37.3049 21.5 37.3049V15.208C27.5918 15.208 32.5479 20.1645 32.5479 26.256Z" fill="#CED9F9"/>
<path id="Vector_7" d="M25.0612 26.3922C24.8308 26.5873 24.5485 26.6825 24.2688 26.6825C23.9185 26.6825 23.5705 26.5341 23.327 26.2451L22.7307 25.5382V30.1663C22.7307 30.8456 22.1795 31.3967 21.5002 31.3967C20.8209 31.3967 20.2698 30.8456 20.2698 30.1663V25.5382L19.6734 26.2451C19.2344 26.7645 18.4587 26.8309 17.9392 26.3922C17.4201 25.9542 17.3535 25.1781 17.7915 24.6586L20.2271 21.7712C20.5447 21.3957 21.008 21.1797 21.5002 21.1797C21.9924 21.1797 22.4558 21.3957 22.7733 21.7712L25.2089 24.6586C25.647 25.1781 25.5803 25.9542 25.0612 26.3922Z" fill="#6C8DEF"/>
<path id="Vector_8" d="M25.061 26.3922C24.8306 26.5873 24.5483 26.6825 24.2686 26.6825C23.9183 26.6825 23.5703 26.5341 23.3268 26.2451L22.7305 25.5382V30.1663C22.7305 30.8456 22.1793 31.3967 21.5 31.3967V21.1797C21.9922 21.1797 22.4555 21.3957 22.7731 21.7712L25.2087 24.6586C25.6467 25.1781 25.5801 25.9542 25.061 26.3922Z" fill="#3B67E9"/>
</g>
<defs>
<clipPath id="clip0_763_1065">
<rect width="42" height="42" fill="white" transform="translate(0.5 0.316406)"/>
</clipPath>
</defs>
</svg>
