<svg width="16" height="16" viewBox="0 0 16 16" fill="none" xmlns="http://www.w3.org/2000/svg">
<path d="M11.3333 13.3334H14.6666V12.0001C14.6666 11.5844 14.537 11.1791 14.296 10.8405C14.055 10.5019 13.7145 10.2467 13.3218 10.1106C12.929 9.97442 12.5037 9.964 12.1048 10.0808C11.7059 10.1975 11.3532 10.4357 11.0959 10.7621M11.3333 13.3334H4.66659M11.3333 13.3334V12.0001C11.3333 11.5627 11.2493 11.1447 11.0959 10.7621M11.0959 10.7621C10.8483 10.1434 10.4211 9.61306 9.86925 9.2395C9.31741 8.86593 8.66631 8.66628 7.99992 8.66628C7.33353 8.66628 6.68243 8.86593 6.13059 9.2395C5.57875 9.61306 5.15149 10.1434 4.90392 10.7621M4.66659 13.3334H1.33325V12.0001C1.33328 11.5844 1.46281 11.1791 1.70383 10.8405C1.94484 10.5019 2.28538 10.2467 2.67809 10.1106C3.0708 9.97442 3.49617 9.964 3.89508 10.0808C4.29398 10.1975 4.6466 10.4357 4.90392 10.7621M4.66659 13.3334V12.0001C4.66659 11.5627 4.75059 11.1447 4.90392 10.7621M9.99992 4.66675C9.99992 5.19718 9.7892 5.70589 9.41413 6.08096C9.03906 6.45603 8.53035 6.66675 7.99992 6.66675C7.46949 6.66675 6.96078 6.45603 6.5857 6.08096C6.21063 5.70589 5.99992 5.19718 5.99992 4.66675C5.99992 4.13631 6.21063 3.62761 6.5857 3.25253C6.96078 2.87746 7.46949 2.66675 7.99992 2.66675C8.53035 2.66675 9.03906 2.87746 9.41413 3.25253C9.7892 3.62761 9.99992 4.13631 9.99992 4.66675ZM13.9999 6.66675C13.9999 7.02037 13.8594 7.35951 13.6094 7.60956C13.3593 7.8596 13.0202 8.00008 12.6666 8.00008C12.313 8.00008 11.9738 7.8596 11.7238 7.60956C11.4737 7.35951 11.3333 7.02037 11.3333 6.66675C11.3333 6.31313 11.4737 5.97399 11.7238 5.72394C11.9738 5.47389 12.313 5.33341 12.6666 5.33341C13.0202 5.33341 13.3593 5.47389 13.6094 5.72394C13.8594 5.97399 13.9999 6.31313 13.9999 6.66675ZM4.66659 6.66675C4.66659 7.02037 4.52611 7.35951 4.27606 7.60956C4.02601 7.8596 3.68687 8.00008 3.33325 8.00008C2.97963 8.00008 2.64049 7.8596 2.39044 7.60956C2.14039 7.35951 1.99992 7.02037 1.99992 6.66675C1.99992 6.31313 2.14039 5.97399 2.39044 5.72394C2.64049 5.47389 2.97963 5.33341 3.33325 5.33341C3.68687 5.33341 4.02601 5.47389 4.27606 5.72394C4.52611 5.97399 4.66659 6.31313 4.66659 6.66675Z" stroke="#333333" strokeLinecap="round" strokeLinejoin="round"/>
</svg>
