<svg width="17" height="16" viewBox="0 0 17 16" fill="none" xmlns="http://www.w3.org/2000/svg">
<path fill-rule="evenodd" clipRule="evenodd" d="M8.5 16C10.6217 16 12.6566 15.1571 14.1569 13.6569C15.6571 12.1566 16.5 10.1217 16.5 8C16.5 5.87827 15.6571 3.84344 14.1569 2.34315C12.6566 0.842855 10.6217 0 8.5 0C6.37827 0 4.34344 0.842855 2.84315 2.34315C1.34285 3.84344 0.5 5.87827 0.5 8C0.5 10.1217 1.34285 12.1566 2.84315 13.6569C4.34344 15.1571 6.37827 16 8.5 16ZM8.055 5.168C7.9044 5.06752 7.72935 5.00981 7.54852 5.00103C7.36769 4.99224 7.18786 5.03272 7.02823 5.11813C6.8686 5.20354 6.73516 5.33068 6.64213 5.48599C6.54909 5.6413 6.49997 5.81896 6.5 6V10C6.49997 10.181 6.54909 10.3587 6.64213 10.514C6.73516 10.6693 6.8686 10.7965 7.02823 10.8819C7.18786 10.9673 7.36769 11.0078 7.54852 10.999C7.72935 10.9902 7.9044 10.9325 8.055 10.832L11.055 8.832C11.192 8.74068 11.3043 8.61696 11.3819 8.47182C11.4596 8.32668 11.5002 8.16461 11.5002 8C11.5002 7.83539 11.4596 7.67332 11.3819 7.52818C11.3043 7.38304 11.192 7.25932 11.055 7.168L8.055 5.168Z" fill="url(#paint0_linear_7633_154420)"/>
<defs>
<linearGradient id="paint0_linear_7633_154420" x1="8.5" y1="0" x2="8.5" y2="16" gradientUnits="userSpaceOnUse">
<stop stopColor="#4BE7FF"/>
<stop offset="1" stopColor="#5816FF"/>
</linearGradient>
</defs>
</svg>
