<svg width="16" height="16" viewBox="0 0 16 16" fill="none" xmlns="http://www.w3.org/2000/svg">
<mask id="mask0_40002175_6591" style="mask-type:alpha" maskUnits="userSpaceOnUse" x="0" y="0" width="16" height="16">
<rect width="16" height="16" fill="#D9D9D9"/>
</mask>
<g mask="url(#mask0_40002175_6591)">
<path d="M6.4513 9.13398L7.03464 7.23398L5.5013 6.00065H7.4013L8.0013 4.13398L8.6013 6.00065H10.5013L8.9513 7.23398L9.53464 9.13398L8.0013 7.95065L6.4513 9.13398ZM4.0013 15.334V10.184C3.57908 9.71732 3.2513 9.18398 3.01797 8.58398C2.78464 7.98398 2.66797 7.3451 2.66797 6.66732C2.66797 5.17843 3.18464 3.91732 4.21797 2.88398C5.2513 1.85065 6.51241 1.33398 8.0013 1.33398C9.49019 1.33398 10.7513 1.85065 11.7846 2.88398C12.818 3.91732 13.3346 5.17843 13.3346 6.66732C13.3346 7.3451 13.218 7.98398 12.9846 8.58398C12.7513 9.18398 12.4235 9.71732 12.0013 10.184V15.334L8.0013 14.0007L4.0013 15.334ZM8.0013 10.6673C9.11241 10.6673 10.0569 10.2784 10.8346 9.50065C11.6124 8.72287 12.0013 7.77843 12.0013 6.66732C12.0013 5.55621 11.6124 4.61176 10.8346 3.83398C10.0569 3.05621 9.11241 2.66732 8.0013 2.66732C6.89019 2.66732 5.94575 3.05621 5.16797 3.83398C4.39019 4.61176 4.0013 5.55621 4.0013 6.66732C4.0013 7.77843 4.39019 8.72287 5.16797 9.50065C5.94575 10.2784 6.89019 10.6673 8.0013 10.6673ZM5.33464 13.3507L8.0013 12.6673L10.668 13.3507V11.284C10.2791 11.5062 9.85964 11.6812 9.40964 11.809C8.95964 11.9368 8.49019 12.0007 8.0013 12.0007C7.51241 12.0007 7.04297 11.9368 6.59297 11.809C6.14297 11.6812 5.72352 11.5062 5.33464 11.284V13.3507Z" fill="url(#paint0_linear_40002175_6591)"/>
</g>
<defs>
<linearGradient id="paint0_linear_40002175_6591" x1="8.03808" y1="-0.987068" x2="9.18205" y2="17.0285" gradientUnits="userSpaceOnUse">
<stop stop-color="#9C2CF3"/>
<stop offset="1" stop-color="#1A47E8"/>
</linearGradient>
</defs>
</svg>
